/* XPM */
static char *_3f50a2de20e468bedc1bd0694206096hjg4873IqYV4XgtO[] = {
/* columns rows colors chars-per-pixel */
"60 60 188 2 ",
"   c None",
".  c #992D7E",
"X  c #99317D",
"o  c #9F754A",
"O  c #9A755E",
"+  c #A57857",
"@  c #AF4A68",
"#  c #B15260",
"$  c #B5417F",
"%  c #B95073",
"&  c #8C6A6B",
"*  c #9B7261",
"=  c #947064",
"-  c #836372",
";  c #C36A4D",
":  c #CB685B",
">  c #D17152",
",  c #C76162",
"<  c #BE913F",
"1  c #B68A37",
"2  c #F4BB0E",
"3  c #FABB0D",
"4  c #E8A81B",
"5  c #F4B313",
"6  c #F9B710",
"7  c #EBB416",
"8  c #D39E2E",
"9  c #D9883A",
"0  c #C79337",
"q  c #E1962A",
"w  c #E39B29",
"e  c #DEA923",
"r  c #D4A22A",
"t  c #FFC404",
"y  c #B68B45",
"u  c #DA8243",
"i  c #2B1D96",
"p  c #2C1E9B",
"a  c #271B98",
"s  c #341C96",
"d  c #3B1B96",
"f  c #351D99",
"g  c #3C1C9A",
"h  c #3F2C89",
"j  c #342490",
"k  c #2D1FA0",
"l  c #3A1EA1",
"z  c #2E20A4",
"x  c #2F21A9",
"c  c #3520A6",
"v  c #3022AD",
"b  c #3C27AC",
"n  c #2F23BC",
"m  c #3324B5",
"M  c #3C23B6",
"N  c #3528B6",
"B  c #3C2CB1",
"V  c #3325B9",
"C  c #3924B9",
"Z  c #382BBB",
"A  c #3628BA",
"S  c #3F32BD",
"D  c #441996",
"F  c #4B1896",
"G  c #431C9B",
"H  c #4C1A9C",
"J  c #4F1796",
"K  c #531796",
"L  c #5D1596",
"P  c #541A9D",
"I  c #5A199E",
"U  c #5C1698",
"Y  c #740E94",
"T  c #641496",
"R  c #6B1396",
"E  c #66169F",
"W  c #731296",
"Q  c #7C1196",
"!  c #74139C",
"~  c #7C119A",
"^  c #442F87",
"/  c #583182",
"(  c #6C3386",
")  c #643F97",
"_  c #702594",
"`  c #4D1EAD",
"'  c #4A1EAA",
"]  c #561AA1",
"[  c #541CAB",
"{  c #591BA9",
"}  c #5F19A6",
"|  c #491FB2",
" . c #541FB3",
".. c #5C1EB3",
"X. c #6617A3",
"o. c #6C16A1",
"O. c #6418A3",
"+. c #6A18A1",
"@. c #6D1DAF",
"#. c #671CAE",
"$. c #7217A3",
"%. c #7A17A4",
"&. c #7519AC",
"*. c #7D19AD",
"=. c #7F17AB",
"-. c #631DB2",
";. c #6B1CB1",
":. c #731AB0",
">. c #4B2EA8",
",. c #5D26AE",
"<. c #4233AB",
"1. c #4D3AA1",
"2. c #5634A4",
"3. c #4322B4",
"4. c #4A21B6",
"5. c #4726BD",
"6. c #5221B4",
"7. c #4539B9",
"8. c #6629A8",
"9. c #7A21A9",
"0. c #733AAC",
"q. c #57419A",
"w. c #634B8E",
"e. c #684F8A",
"r. c #6C5187",
"t. c #745780",
"y. c #674790",
"u. c #4C40A7",
"i. c #5D4DAD",
"p. c #5726C0",
"a. c #6327C3",
"s. c #7627C7",
"d. c #5D53C8",
"f. c #6E4FC1",
"g. c #665BCB",
"h. c #766DD0",
"j. c #7F76D3",
"k. c #850F96",
"l. c #880F97",
"z. c #840D98",
"x. c #821096",
"c. c #831098",
"v. c #8B119B",
"b. c #85199A",
"n. c #972981",
"m. c #902089",
"M. c #9E358F",
"N. c #A82A96",
"B. c #A52998",
"V. c #AD3884",
"C. c #920FA5",
"Z. c #8316A6",
"A. c #8A15A7",
"S. c #8517AD",
"D. c #8C16AA",
"F. c #8219AD",
"G. c #8E18AF",
"H. c #9413A4",
"J. c #9F1AA5",
"K. c #9415AA",
"L. c #9B14AA",
"P. c #9D18AD",
"I. c #A019A8",
"U. c #A51AB3",
"Y. c #AE1EBC",
"T. c #A417B1",
"R. c #8725AB",
"E. c #9833A6",
"W. c #8C25BF",
"Q. c #952BA2",
"!. c #A54FB2",
"~. c #B147BD",
"^. c #AD5CB8",
"/. c #B31FC1",
"(. c #9628CD",
"). c #B721C4",
"_. c #BD24CB",
"`. c #BB5FC5",
"'. c #857DD5",
"]. c #BE7FC7",
"[. c #B2ADE5",
"{. c #ABA6E3",
"}. c #D79FDC",
"|. c #C3BFEA",
" X c #CCC9EE",
".X c #D7D4EE",
"XX c #E8D5EF",
"oX c #F2E6F4",
/* pixels */
"                                                      k.k.k.k.k.k.k.k.k.                                                ",
"                                              [ V { c.k.k.k.k.k.k.k.k.k.k.k.c.k.                                        ",
"                                          ~ [ M [ c.k.k.k.k.k.k.k.k.k.k.k.k.k.k.k.k.l.                                  ",
"                                    k.k.! ` V ` c.k.k.k.k.k.k.k.k.k.k.W W T T L L L T R R                               ",
"                                  k.k.! 3.V | Q k.x.k.k.k.k.k.Q R K D f s i i i i i i s d d d                           ",
"                              k.c.k.~ 3.V M ! Q.!.v.k.k.k.W K d i i j p i i i D J L R W W W Q Q                         ",
"                            k.k.l.Q ` V V O.k.].oXE.k.W K s i i i G W.G d L Y Q k.k.k.k.l.k.k.k.k.                      ",
"                          k.k.k.c.[ V V ` c.k.E.^.b.L d i i i i i f *.! k.k.k.k.m.c.k.k.k.k.k.k.k.k.k.                  ",
"                        k.k.k.c.X.V V C ! k.k.k.Y D i i i i i i D W k.k.k.k.z.. 9 . k.l.c.c.T.Y.v.k.k.k.                ",
"                i     k.k.k.k.~ 3.V V ` Q k.k.R d i i i i i s T Q k.~ ~ ~ ~ . q t w X l.c.x.U.).v.k.k.k.k.              ",
"                i   k.k.k.k.k.{ V V m o.c.k.T s i i i p p f ] { ` 3.| M M M >.O 2 + _ c.l.l.l.v.k.k.k.k.k.k.            ",
"                s Q k.k.k.k.! M n V 3.x.c.R s i i i p k v M V V n m m V V V V B - <.m 3.[ E Q c.k.k.k.k.k.k.            ",
"              i D c.c.k.k.k.{ V m V { l.R s i i p v m V V V V V V V V V V V V V M V V V V V 3.O.~ k.l.x.l.x.k.          ",
"              i D P.Y.k.c.~ M V V m ! Q d i p v V V V V V V V V V V V V V V V V V V V V V n V V | +.c.c.k.l.k.k.        ",
"              i D v.H.k.l.O.V V V M ! F i z m V V V V V V V V V V V V V V V V V V V V V V A 6.M n V [ ! k.x.k.k.        ",
"              i D k.x.x.k.[ V V V ` L p x V V V V V V V V V V V V V V V V V V V V m V V V p.(.5.m V n 3.! x.k.k.k.      ",
"            L i d k.k.k.~ M V V V [ g v V V V V V V V V V V V V V V V V V V V V V x z z v m C N V V V V M X.k.k.k.      ",
"            L i s Q k.k.$.V V V V c m V V V V V V V V V V V V V V V V V V V V V V V z i i p c 4.m V V V A M O.k.k.k.    ",
"          c.L i s W v.L.:.V V V V m V V V V V V V V V V V V V V V V V V V V V V V V V z i i i D E [ V d.|.d.m X.k.k.    ",
"          l.L i i o.N.N...V V V V V V V V V V V V V V m x x z x x m V V V V V V V V V m p i i i D ! X.f. Xg.n M $.k.k.  ",
"          c.L i i _ u > ,.V V V V V V V V V V V N m z p i i i i i p c m V V V V V V V V x p i i i F Q ~ ,.V V V 3.! k.  ",
"        l.H.E i j o t t + B V V V V V V V V V N x i i i i i i i i i i p v V V V V V V V m z i i i i J z.~ O.C V m [ c.  ",
"        H.P.%.i i ^ 0 9 2.C V V n A A V V V V x i i i i i i i i i i i i p m V V V V V V V x p i i i i T k.k.+.M V V +.  ",
"        L.L.Z.s i i ( N.| V V V a.6.n V V V m i i i i i i i i i i i i i i p m V V V V V V m k i i i i s W k.k.+.M V 3.~ ",
"        L.L.K.g i i f A.6.V V V s.a.V V V N p i i i i i i i i i i i i i i i v m V V V V V V v i i i i i F k.k.k.O.m C [ ",
"        L.L.L.H i i i O.6.V V V V V V V V v i i i i i i i i i i i i i i i i p m V V V V V m m f i i i i i R k.k.c.{ V C ",
"      L.L.L.L.+.i i i g  .V V V V V V V V x i i i i i i i i i i i i i i i i i v V V V V V V m ] s i i i i D Q v.H.~ ` V ",
"      L.L.L.L.Z.f i i i c m V V V V V V V z i i i i i i i i i i i i i i i i i v V V V V V V V { L i i i i s R K.Y.c.! M ",
"      L.L.L.L.K.H i i i z m V V V V V V m z i i i i i i i i i i i i i i i i i c V V V V V V V | Q D i i i i F k.v.k.k.} ",
"  V   L.L.L.L.L.$.i i i p m V V V V V V V z i i i i i i i i i i i i i i i i i v V V V V V V V C ~ W i i i i s Q k.k.k.x.",
"  V   L.L.L.L.L.H.G i i i v V V V V V V V c i i i i i i i i i i i i i i i i i v V V V V V V V m ! l.J i i i i R k.k.c.k.",
"    V :.L.L.L.I.P.! i i i z V V V V V V A v i i i i i i i i i i i i i i i i p m V V V V V V V V ! l.W s i i i K l.k.k.k.",
"    V 3.S.L.L._./.K.H i i p m n V V V V V m k i i i i i i i i i i i i i i i z V V V V V V V V V X.k.k.F i i i D x.k.k.k.",
"      V 4.D.L.).Y.L.Z.f i i x m V V V V V V x p i i i i i i i i i i i i i p m N V V V V V V V V O.k.k.R i i i s Q c.k.k.",
"      V V 4.S.L.L.L.L.+.i i p m A V V V V V V z i i i i i i i i i i i i p x V V V V V V V V V V O.k.l.Q d i i s W k.k.  ",
"        V V 5.F.L.L.L.L.P i i 7.{.g.m V V V V N z i i i i i i i i i i i x V V V V V V V V V V V +.l.c.l.J i i i R k.k.  ",
"        6.C V C ;.K.L.L.H.H i 1..Xj.n V V V V V V x k i i i i i i i z m m V V V V V V V V V V V $.l.c.c.T i i i R c.k.  ",
"          -.V V V  .F.L.L.A.H p B A V V V V V V V V m m z z z z z m m V V V V V V V V V V V V C F.v.v.l.R s i i R l.k.  ",
"          K.-.V V V C ,.F.L.K.P p m V V V V V V V V V A m V V V V V V V V V V V V V V A V V V M D.T.Y.k.Q s i i R l.    ",
"            K...V V V N 2.6.*.A.O.j v V V V V V V V V V V V V V V V V V V V V V V V 7.[.h.V V 4.K.H.v.k.k.d i i R c.    ",
"            L.K.-.C n q.y <.C 5.6.[ c m V V V V V V V V V V V V V V V V V V V V V m 7. X'.V n ..L.C.l.k.k.D i i W       ",
"            L.L.K.:.2.y t + B n V V m V V V V V V V V V V V V m V V V V V V V V x p V S Z V V &.I.H.z.l.k.D i s W       ",
"              L.L.V.w t t t < q.V V V V w.B V V V V V V V V V V V V V V V V m k p z V V V V 3.G.I.C.z.. # F i d         ",
"                L.N.> t t 7 & <.V V V w.e = B V V V V V V V V V V V V m m c i i i x V V V V ..L.L.H.z.; 4 / a d         ",
"                L.L.L.: 3 % :. .C V 1.0 t 7 t.V V V V V V V V V V m m z p i i i l m V V V C *.L.L.L.@ 6 t 1 h           ",
"                  L.L.B., J.L.K.S.;. .) r - N V V V V V V V V m x k i i i i i H  .V V V n 6.K.P.N.: 5 3 t t 4           ",
"                    L.L.J.L.L.L.L.L.L.D.M.9.;.-.......;.#.] p i i i i i i i P *.3.V m V M *.L.I., 5 t t t t t t         ",
"                      L.L.L.L.L.Y./.L.L.L.L.L.L.L.L.D.+.G i i i i i i i p I K...w.r.n n ..L.L.J.I.V.8 t t t             ",
"              p i       L.L.L.L.T.U.L.L.I.L.K.A.$.P f i i i i i i i i g $.L.*.y.r e e.3.G.T.L.L.L.H.n.4 t               ",
"                  i i i P +.$.%.%.%.%.$.+.I H s i i i i i i i i i s I A.L.K.6.& 2 3 * F.)._.L.L.L.A.z.  t               ",
"                    i p i i i i s p i i i i a i i i i i i a a f P Z.L.L.K.,.V V & * ;.L.Y./.L.L.L.H.                    ",
"                          i i i i i i i i i i i i i i i j i.0.D.K.L.L.K.;.V V V <.8.K.L.L.L.L.L.                        ",
"                                p G G f s s s f g H I o.R.XX}.L.L.L.L.:.C n V V ..K.L.L.L.L.L.                          ",
"                                    H.K.A.A.A.D.H.K.L.L.T.`.~.L.L.L.;.C V V V -.K.L.L.L.L.                              ",
"                                        L.L.L.L.L.L.L.L.L.L.L.L.K.-.C V V C :.L.L.L.L.                                  ",
"                                              L.L.L.L.L.L.L.L.S.6.V V V 6.S.L.L.                                        ",
"                                                      L.L.K.:.3.V V V ..                                                ",
"                                                          C V V V                                                       ",
"                                                      V V V V                                                           ",
"                                                  V V                                                                   "
};
