/* XPM */
static char *d931b1d99df7420e8362ea87f62c0f01Y5Z4FMGzo9zlKsml[] = {
/* columns rows colors chars-per-pixel */
"60 60 188 2 ",
"   c None",
".  c #992D7E",
"X  c #99317D",
"o  c #9F754A",
"O  c #9A755E",
"+  c #A57857",
"@  c #AF4A68",
"#  c #B15260",
"$  c #B5417F",
"%  c #B95073",
"&  c #8C6A6B",
"*  c #9B7261",
"=  c #947064",
"-  c #836372",
";  c #C36A4D",
":  c #CB685B",
">  c #D17152",
",  c #C76162",
"<  c #BE913F",
"1  c #B68A37",
"2  c #F4BB0E",
"3  c #FABB0D",
"4  c #E8A81B",
"5  c #F4B313",
"6  c #F9B710",
"7  c #EBB416",
"8  c #D39E2E",
"9  c #D9883A",
"0  c #C79337",
"q  c #E1962A",
"w  c #E39B29",
"e  c #DEA923",
"r  c #D4A22A",
"t  c #FFC404",
"y  c #B68B45",
"u  c #DA8243",
"i  c #2B1D96",
"p  c #2C1E9B",
"a  c #271B98",
"s  c #341C96",
"d  c #3B1B96",
"f  c #351D99",
"g  c #3C1C9A",
"h  c #3F2C89",
"j  c #342490",
"k  c #2D1FA0",
"l  c #3A1EA1",
"z  c #2E20A4",
"x  c #2F21A9",
"c  c #3520A6",
"v  c #3022AD",
"b  c #3C27AC",
"n  c #2F23BC",
"m  c #3324B5",
"M  c #3C23B6",
"N  c #3528B6",
"B  c #3C2CB1",
"V  c #3325B9",
"C  c #3924B9",
"Z  c #382BBB",
"A  c #3628BA",
"S  c #3F32BD",
"D  c #441996",
"F  c #4B1896",
"G  c #431C9B",
"H  c #4C1A9C",
"J  c #4F1796",
"K  c #531796",
"L  c #5D1596",
"P  c #541A9D",
"I  c #5A199E",
"U  c #5C1698",
"Y  c #740E94",
"T  c #641496",
"R  c #6B1396",
"E  c #66169F",
"W  c #731296",
"Q  c #7C1196",
"!  c #74139C",
"~  c #7C119A",
"^  c #442F87",
"/  c #583182",
"(  c #6C3386",
")  c #643F97",
"_  c #702594",
"`  c #4D1EAD",
"'  c #4A1EAA",
"]  c #561AA1",
"[  c #541CAB",
"{  c #591BA9",
"}  c #5F19A6",
"|  c #491FB2",
" . c #541FB3",
".. c #5C1EB3",
"X. c #6617A3",
"o. c #6C16A1",
"O. c #6418A3",
"+. c #6A18A1",
"@. c #6D1DAF",
"#. c #671CAE",
"$. c #7217A3",
"%. c #7A17A4",
"&. c #7519AC",
"*. c #7D19AD",
"=. c #7F17AB",
"-. c #631DB2",
";. c #6B1CB1",
":. c #731AB0",
">. c #4B2EA8",
",. c #5D26AE",
"<. c #4233AB",
"1. c #4D3AA1",
"2. c #5634A4",
"3. c #4322B4",
"4. c #4A21B6",
"5. c #4726BD",
"6. c #5221B4",
"7. c #4539B9",
"8. c #6629A8",
"9. c #7A21A9",
"0. c #733AAC",
"q. c #57419A",
"w. c #634B8E",
"e. c #684F8A",
"r. c #6C5187",
"t. c #745780",
"y. c #674790",
"u. c #4C40A7",
"i. c #5D4DAD",
"p. c #5726C0",
"a. c #6327C3",
"s. c #7627C7",
"d. c #5D53C8",
"f. c #6E4FC1",
"g. c #665BCB",
"h. c #766DD0",
"j. c #7F76D3",
"k. c #850F96",
"l. c #880F97",
"z. c #840D98",
"x. c #821096",
"c. c #831098",
"v. c #8B119B",
"b. c #85199A",
"n. c #972981",
"m. c #902089",
"M. c #9E358F",
"N. c #A82A96",
"B. c #A52998",
"V. c #AD3884",
"C. c #920FA5",
"Z. c #8316A6",
"A. c #8A15A7",
"S. c #8517AD",
"D. c #8C16AA",
"F. c #8219AD",
"G. c #8E18AF",
"H. c #9413A4",
"J. c #9F1AA5",
"K. c #9415AA",
"L. c #9B14AA",
"P. c #9D18AD",
"I. c #A019A8",
"U. c #A51AB3",
"Y. c #AE1EBC",
"T. c #A417B1",
"R. c #8725AB",
"E. c #9833A6",
"W. c #8C25BF",
"Q. c #952BA2",
"!. c #A54FB2",
"~. c #B147BD",
"^. c #AD5CB8",
"/. c #B31FC1",
"(. c #9628CD",
"). c #B721C4",
"_. c #BD24CB",
"`. c #BB5FC5",
"'. c #857DD5",
"]. c #BE7FC7",
"[. c #B2ADE5",
"{. c #ABA6E3",
"}. c #D79FDC",
"|. c #C3BFEA",
" X c #CCC9EE",
".X c #D7D4EE",
"XX c #E8D5EF",
"oX c #F2E6F4",
/* pixels */
"                                              ~ { M V M } Q l.k.k.k.                                                    ",
"                                      l.l.x.o.3.V V 4.! k.k.l.k.k.k.l.l.k.l.                                            ",
"                                  k.l.l.~ [ m n V { ~ l.k.x.k.k.x.l.l.x.l.l.l.l.                                        ",
"                              l.l.l.l.E 3.V V C O.k.H.Y.v.k.k.k.x.Q W R T T R R W W                                     ",
"                          k.k.k.k.k.X.M m m M X.k.k.v.L.c.Q T K d d s i i i i s s s d d     t                           ",
"                        l.k.k.k.k.O.m n m V X.k.k.x.x.R J s i i i i i i i i i i i i a i h 4 t                           ",
"                    k.k.k.k.l.l.O.m g.g.V O.z.v.x.R D i i i i i i i i i i s s d D D F / 1 t t t                         ",
"                  k.k.k.k.k.l.E C A |. X,.z.z.W F i i i i i i i i i d J T R Q Q Q l.# 4 t t t t t t                     ",
"                l.k.k.k.l.l.~ 3.V m d.f.~ k.T f i i i i i i i s F T Q k.l.k.v.c.l.c.n.; 6 t t t 4                       ",
"              l.k.k.k.k.c.c.` V V m m X.Q J i i i i i i i s J W l.l.l.l.k.v.Y.v.k.l.z.z.@ 5 t q n.z.                    ",
"              k.k.k.k.k.c.o.V V V V ` Q D i i i i i i i D W x.k.l.l.z.z.z.v.T.K.H.H.H.L.H.: 5 V.C.A.H.                  ",
"            k.k.v.v.k.k.c.3.V V V V o.D i i i i i i s L Q c.! E O.O.O.X.&.=.A.K.L.H.L.L.L.N., L.L.L.L.                  ",
"          Q k.l.Y.).v.l.O.V C 5.V | F i i i i i i f I { ` M V V V V V V A C C 4.-.&.K.L.L.P.I.L.L.L.L.L.                ",
"        D W k.k.P.U.l.x.3.n p.(.C l i i i i i p c m V V V V V V V V V V m V V V V V 5.6.*.K.L.L.L.I.L.L.L.              ",
"        d W l.k.c.c.l.E m V C 5.V i i i i k v V V V V V V V V V V V V V V V V m m V V V C  .*.L.T._./.L.L.              ",
"      R d W l.l.c.c.k.[ V m V V c i i k x V V V V V V V V V V V V V V V V V V h.'.A V V V V V ..G./.Y.L.L.L.            ",
"      T s W k.k.l.l.~ | V V V V z i z m V V V V V V V V V V V V V V V V V V N [. XS n N V V V V 3.F.L.L.L.L.            ",
"    l.T i R k.k.z.X _ V V V V m k x V V V V V V V V V V V V V V V V V V V V n p.7.N A n V V V V r.* ;.L.L.L.L.          ",
"    k.L i L k.k.. q + <.V V V m x V V V V V V V V V V V V V V V V V V V V V V V v k z v m V A r.e t * 8.K.P.L.          ",
"    k.L i K l.m.9 t 2 - m V V V V V V V V V V V V V V V V V V V V V V V V V V V N v i a l 6.3.w.8 2 & B ..K.L.          ",
"  k.l.L i D Q k.. 8 O b V V V V V V V V V V V V V m v x x c v m V V V V V V V V V V z a i G 9...y.& V V A -.L.L.        ",
"  l.l.L i s W k.z.. >.V V V V V V V V V V V V V x p p i i i i p z m V V V V V V V V N i i i P K.*.4.V V V V :.L.        ",
"  l.l.T i i L l.l.~ | n V V V V V V V V V V m p i i i i i i i i i p v A V V V V V V V x i i i I L.K.6.C V V 3.S.        ",
"  l.l.R i a D Q l.Q M V V V V V V V V V V v i i i i i i i i i i i i i x V V V V V V V v p i i i $.L.L.;.A V V 6.        ",
"l.k.l.W s i G ! l.~ M V V V V V V V V V m p i i i i i i i i i i i i i p m V V V V V V V x i i i g D.L.L.:.C V V 6.      ",
"k.k.l.Q D i W.F.l.~ 3.V V V V V V V V V c i i i i i i i i i i i i i i i p V V V V V V V m i i i i P L.L.L.;.m V V       ",
"k.k.k.k.P i G j R c.3.V V V V V V V V V p i i i i i i i i i i i i i i i i v A V V V V V V p i i i s %.L.L.L.-.V V       ",
"k.k.k.k.R i i i F x.| V V V V V V V A x p i i i i i i i i i i i i i i i i c V V V V V V V x i i i i P L.L.L.L.6.V V     ",
"k.k.k.k.k.d i i i T { V V V V V V V V x i i i i i i i i i i i i i i i i i z V V V V V V V x i i i i f A.L.L.L.S.3.V     ",
"k.k.k.k.l.K i i i g ] V V V V V V V V z i i i i i i i i i i i i i i i i i z V V V V V V V C p i i i a 0.}.~.L.L.:.V V   ",
"k.k.k.k.l.W s i i i f V V V V V V V V x i i i i i i i i i i i i i i i i i p V V V V V V V C ' i i i i i.XX`.L.L.K.V V   ",
"k.k.k.k.k.l.K i i i i v A V V V V V V x i i i i i i i i i i i i i i i i i c V V V V V V V m #.G i i i f R.I.L.L.L.  V   ",
"k.l.k.k.l.l.W d i i i z V V V V V V V m p i i i i i i i i i i i i i i i i v V V V V V V V V -.+.i i i i E I.L.L.L.  V   ",
"  ~ l.k.x.x.k.L i i i i V V V V V V V V p i i i i i i i i i i i i i i i z m V V V V V V V V -.D.f i i i I L.L.L.      V ",
"  { Q l.x.l.E.b.D i i i c V V V V V V V m p i i i i i i i i i i i i i i v V V V V V V V V V ,.L.P i i i H L.L.L.      V ",
"  C [ Q k.!.oX^.Y d i i p V V V V V V V V x i i i i i i i i i i i i i c V V V V V V V V V V ..L.$.i i i d K.L.L.        ",
"  [ C [ ~ Q.].Q.k.R s i i x V V V V V V V V z p i i i i i i i i i i z m V V V V V V V V V V -.L.A.f i i f K.L.L.        ",
"    [ V | W z.k.x.x.T s i p V V V V V V V V V m p i i i i i i p p x V V V V V V V V V B t.N ;.L.L.G i i f A.L.          ",
"    ~ | n M O.x.l.k.x.R s i z m V V V V V V V V A v v z p z z v V V V V V V V V V V B = 7 - 9.L.L.I i i f A.L.          ",
"      ~ 3.V V 4.! x.l.c.R f i x V V V V V V V V V V m V A m V V V V V V V V V V V V w.e t 8 M.L.L.E i i f A.L.          ",
"      l.! 3.n V m ` o.c.c.Q D i v V V V V V A n V V V V V V V V V V V V V V V V V V V w.0 y.G.L.L.$.i i g A.            ",
"      l.k.Q 4.V V V m 3.{ ! ~ T g m V V V V V A V V V V V V V V V V V V n V V m c V m m 1.6.K.L.L.%.s i G D.            ",
"        k.k.~ [ V V V V V V M ` [ c m V V V V 6.a.V V V V V V V V V V g.j.Z x j ' V V V V ;.L./.U.Z.i i G               ",
"          k.l.x.o.M V V V V V V V V V V V V V a.s.V V V V V V V V V V {..X<.i O.,.n V V C S.L.Y.T.%.i i s               ",
"          l.k.k.l.! { M V V V V V V V V V A V V V V V V V V V V V V m 7.1.p P D.3.V ) <. .L.L.L.L.%.i i                 ",
"            k.k.l.k.k.W { M V V V V V V V n V V V V V V V V V V V x i a a H K.&.V B y & :.L.L.L.L.$.i i                 ",
"              l.k.k.k.k.l.! X.` M V V n V Z n V m m V V V m x c i i i i H K.L.6.<.+ t 7 % J.L.L.L.O.i i                 ",
"                k.k.k.k.l.l.l.l.~ ! @.-.,.+ 2.|  .,.6.c z i i i i i i P K.I.S.1.y t t t 6 , L.L.L.] i                   ",
"                  l.l.k.k.k.c.c.l.l.H.N.u 3 9 N.A.O.d i i i i i i f o.K.L.L...m 1.< t 3 : B.L.L.  i i                   ",
"                    l.k.v.Y.H.c.l.x.v.N.u t 0 ( g i i i i i i i H Z.L.L.L.F.C V n 2.w > L.L.L.    i i                   ",
"                      Q Q K.v.x.x.Q W ! _ o ^ i i i i i i i G $.K.L.L.L.K.6.V V M :.$ N.L.L.      i                     ",
"                  i i s D D D D d d i i i j i i i i i f H $.K.L./.Y.L.L.;.V V V -.L.L.P.L.      i                       ",
"                        i i i i i i i i a i i s g H o.Z.L.L.L.P._./.L.*.C V V -.K.L.L.          i                       ",
"                                L L K L U +.%.Z.H.K.L.L.L.L.L.L.L.T.S.5.V V ,.K.P.L.                                    ",
"                                    l.c.l.H.L.L.L.L.L.L.L.L.L.L.L.G.| n C -.K.                                          ",
"                                          l.K.L.L.L.L.L.L.L.L.L.S.| V A 6.                                              ",
"                                                    L.L.L.L.L.:.4.V V                                                   ",
"                                                              V V                                                       ",
"                                                          V V                                                           ",
"                                                                                                                        "
};
