/* XPM */
static char *b6ef9cb208f34853dccade514dfa120bSPYN8NWU9sdMmXyS[] = {
/* columns rows colors chars-per-pixel */
"60 60 188 2 ",
"   c None",
".  c #992D7E",
"X  c #99317D",
"o  c #9F754A",
"O  c #9A755E",
"+  c #A57857",
"@  c #AF4A68",
"#  c #B15260",
"$  c #B5417F",
"%  c #B95073",
"&  c #8C6A6B",
"*  c #9B7261",
"=  c #947064",
"-  c #836372",
";  c #C36A4D",
":  c #CB685B",
">  c #D17152",
",  c #C76162",
"<  c #BE913F",
"1  c #B68A37",
"2  c #F4BB0E",
"3  c #FABB0D",
"4  c #E8A81B",
"5  c #F4B313",
"6  c #F9B710",
"7  c #EBB416",
"8  c #D39E2E",
"9  c #D9883A",
"0  c #C79337",
"q  c #E1962A",
"w  c #E39B29",
"e  c #DEA923",
"r  c #D4A22A",
"t  c #FFC404",
"y  c #B68B45",
"u  c #DA8243",
"i  c #2B1D96",
"p  c #2C1E9B",
"a  c #271B98",
"s  c #341C96",
"d  c #3B1B96",
"f  c #351D99",
"g  c #3C1C9A",
"h  c #3F2C89",
"j  c #342490",
"k  c #2D1FA0",
"l  c #3A1EA1",
"z  c #2E20A4",
"x  c #2F21A9",
"c  c #3520A6",
"v  c #3022AD",
"b  c #3C27AC",
"n  c #2F23BC",
"m  c #3324B5",
"M  c #3C23B6",
"N  c #3528B6",
"B  c #3C2CB1",
"V  c #3325B9",
"C  c #3924B9",
"Z  c #382BBB",
"A  c #3628BA",
"S  c #3F32BD",
"D  c #441996",
"F  c #4B1896",
"G  c #431C9B",
"H  c #4C1A9C",
"J  c #4F1796",
"K  c #531796",
"L  c #5D1596",
"P  c #541A9D",
"I  c #5A199E",
"U  c #5C1698",
"Y  c #740E94",
"T  c #641496",
"R  c #6B1396",
"E  c #66169F",
"W  c #731296",
"Q  c #7C1196",
"!  c #74139C",
"~  c #7C119A",
"^  c #442F87",
"/  c #583182",
"(  c #6C3386",
")  c #643F97",
"_  c #702594",
"`  c #4D1EAD",
"'  c #4A1EAA",
"]  c #561AA1",
"[  c #541CAB",
"{  c #591BA9",
"}  c #5F19A6",
"|  c #491FB2",
" . c #541FB3",
".. c #5C1EB3",
"X. c #6617A3",
"o. c #6C16A1",
"O. c #6418A3",
"+. c #6A18A1",
"@. c #6D1DAF",
"#. c #671CAE",
"$. c #7217A3",
"%. c #7A17A4",
"&. c #7519AC",
"*. c #7D19AD",
"=. c #7F17AB",
"-. c #631DB2",
";. c #6B1CB1",
":. c #731AB0",
">. c #4B2EA8",
",. c #5D26AE",
"<. c #4233AB",
"1. c #4D3AA1",
"2. c #5634A4",
"3. c #4322B4",
"4. c #4A21B6",
"5. c #4726BD",
"6. c #5221B4",
"7. c #4539B9",
"8. c #6629A8",
"9. c #7A21A9",
"0. c #733AAC",
"q. c #57419A",
"w. c #634B8E",
"e. c #684F8A",
"r. c #6C5187",
"t. c #745780",
"y. c #674790",
"u. c #4C40A7",
"i. c #5D4DAD",
"p. c #5726C0",
"a. c #6327C3",
"s. c #7627C7",
"d. c #5D53C8",
"f. c #6E4FC1",
"g. c #665BCB",
"h. c #766DD0",
"j. c #7F76D3",
"k. c #850F96",
"l. c #880F97",
"z. c #840D98",
"x. c #821096",
"c. c #831098",
"v. c #8B119B",
"b. c #85199A",
"n. c #972981",
"m. c #902089",
"M. c #9E358F",
"N. c #A82A96",
"B. c #A52998",
"V. c #AD3884",
"C. c #920FA5",
"Z. c #8316A6",
"A. c #8A15A7",
"S. c #8517AD",
"D. c #8C16AA",
"F. c #8219AD",
"G. c #8E18AF",
"H. c #9413A4",
"J. c #9F1AA5",
"K. c #9415AA",
"L. c #9B14AA",
"P. c #9D18AD",
"I. c #A019A8",
"U. c #A51AB3",
"Y. c #AE1EBC",
"T. c #A417B1",
"R. c #8725AB",
"E. c #9833A6",
"W. c #8C25BF",
"Q. c #952BA2",
"!. c #A54FB2",
"~. c #B147BD",
"^. c #AD5CB8",
"/. c #B31FC1",
"(. c #9628CD",
"). c #B721C4",
"_. c #BD24CB",
"`. c #BB5FC5",
"'. c #857DD5",
"]. c #BE7FC7",
"[. c #B2ADE5",
"{. c #ABA6E3",
"}. c #D79FDC",
"|. c #C3BFEA",
" X c #CCC9EE",
".X c #D7D4EE",
"XX c #E8D5EF",
"oX c #F2E6F4",
/* pixels */
"                                                                                                                        ",
"                                                          V V                                                           ",
"                                                      V V                                                               ",
"                                                  V V 3.:.L.L.L.L.L.                                                    ",
"                                              6.V V | G.L.L.L.L.L.L.L.L.L.H.v.                                          ",
"                                          K.-.C V 3.G.L.L.L.L.L.L.L.L.L.L.L.H.x.l.x.                                    ",
"                                    L.L.K...A V 5.S.L.P.L.L.L.L.J.L.L.K.Z.%.E U L K L L                                 ",
"                      i           L.L.K.-.V V C *.L.)._.L.L.L.L.A.E H g s i i i i i i i i i i i                         ",
"                      i       L.L.I.L.-.V V V ;.L.L.Y./.L.K.$.H f i i i i i j i i s d d D D D D s i i                   ",
"                    i       L.L.N.V.:.V V V 6.K.L.L.L.K.$.G i i i i i i a ^ o _ o.W Q x.z.v.P.x.Q                       ",
"                  i i     L.L.L.> w 2.n V C *.L.L.L.Z.H i i i i i i i g ( 0 t 9 N.v.x.k.x.H.Y.c.k.l.                    ",
"                  i i   L.L.B.: 3 t 0 1.V ,.L.L.K.o.s a i i i i i g +.A.N.9 t > N.H.l.k.x.x.k.k.k.k.k.                  ",
"                  i P L.L.J., 6 t t t y 2.F.L.K.I i i i i i p p c  ...4.| 2.+ ,.-.;.$.~ k.k.k.k.k.k.k.k.                ",
"                i i +.L.L.L.I.% 5 t + <.6.L.K.H i i i p k v m V V V V V V n B n V V V | ` X.~ k.k.k.k.k.k.              ",
"                i i $.L.L.L.L.:.= y B V *.K.H i a p v m V V V V V V V V V V V V V V V V V V M { ! k.k.k.k.k.            ",
"                i i %.L.L.L.K.| <.q.n 3.D.P i u.<.m V V V V V V V V V V V V V V V V V V V V V V M { ~ x.k.k.k.          ",
"              i i p %.T.Y.L.S.C V V V 6.O.i B .X{.A V V V V V V V V V s.a.V V V V V V n V V V V V V M o.x.l.k.          ",
"              G i f %.U./.L.;.n V V N 6.f x Z j.g.V V V V V V V V V V a.p.V V V V N c ' ` M C n V V V V [ Q k.k.        ",
"            K.G a s %.L.L.L.6.1.N V m c m m V n V V V V V V V V V V V V n V V V V V v g U ~ ! { 3.m V V V ` ! k.k.      ",
"            A.g i i $.L.L.D.y.0 w.V N m V V V V V V V V V V V V V V V V V V V V V V V v i F Q l.c.o.` V V V | ! k.      ",
"          I.A.f i i E L.L.M.8 t e w.V V V V V V V V V N V V N V N n N V V V V V V V V V v i f R k.k.c.o.' V n 3.~       ",
"          L.A.f i a I L.L.9.- 7 = B V V V V V V V V V m v x k z z c x V V V V V V V V V N c i s T k.k.l.z.} M N | Q     ",
"          L.A.s i i G K.L.;.N t.B V V V V V V V V N x k i i i i i i i k v A V V V V V V V N i i s T k.k.z.k.! | V [     ",
"        L.L.D.s i i d A.L...V V N V V V V V V V V k i i i i i i i i i i p x m V V V V V V V x i a s R k.E.].Q.~ [ C [   ",
"        L.L.K.G i i i $.L.,.V V V V V A V V V V x i i i i i i i i i i i i i v m V V V V V V m k i i d Y ^.oX!.k.c.[ V   ",
"V       L.L.K.H i i a P L...n V V V V V V V V x i i i i i i i i i i i i i i p v V V V V V V V x i i i D b.E.l.k.k.c.{   ",
"V       L.L.L.I i i i d D.-.V V V V V V V V m p i i i i i i i i i i i i i i i c V V V V V V V V p i i i L k.x.x.k.k.c.  ",
"  V   L.L.L.I.E i i i i o.;.V V V V V V V V v i i i i i i i i i i i i i i i i i m V V V V V V V c i i i s Q l.x.k.k.k.k.",
"  V   L.L.L.L.R.s i i i G @.V V V V V V V V x i i i i i i i i i i i i i i i i i v V V V V V V V m i i i i K k.k.k.k.k.k.",
"  V C K.L.L.`.XXi.a i i i ' V V V V V V V V k i i i i i i i i i i i i i i i i i x V V V V V V V m f i i i s W k.k.k.k.k.",
"  V V ;.L.L.~.}.0.a i i i f m V V V V V V V k i i i i i i i i i i i i i i i i i x V V V V A V V m ] s i i i L k.k.x.k.k.",
"    V 5.D.L.L.I.Z.f i i i i m V V V V V V N c i i i i i i i i i i i i i i i i i x V V V V V V V V } T i i i d Q k.k.k.k.",
"    V V 6.K.L.L.L.P a i i i x N V V V V V V x i i i i i i i i i i i i i i i i i x V V V V V V V n ' Q D i i i R k.k.k.k.",
"      V V -.L.L.L.Z.s i i i p N V V V V V V v p i i i i i i i i i i i i i i i p V V V V V V V V n | x.W g g i K k.k.k.k.",
"      V V C ;.L.L.L.I i i i a m V V V V V V V z i i i i i i i i i i i i i i i x V V V V V V V V V | Q k.*.W.j G x.k.k.k.",
"       .V V C :.L.L.A.g i i i k V V V V V V V v p i i i i i i i i i i i i i i N V V V V V V V V V M ~ l.! G i f Q k.k.k.",
"        6.V V C ;.K.L.$.p i i p v A n V V V V A v i i i i i i i i i i i i i v V V V V V V V V V V M ~ k.k.D i i R k.k.  ",
"        S.M V V V ..K.L.I i i i x V A V V V V n N v p i i i i i i i i i k v V V V V V V V V V V m M ~ k.k.L i i R l.k.  ",
"        L.:.V V V V 4.*.K.P i i p v V V V V n N V V v z p i i i i i p z n V V V V V V V V V V V N >.. k.k.W s i L k.k.  ",
"        L.L.-.V V V & y...=.H i i z V V V V N n V V A n N x x x x m N N V V V V V V V V V V V V 3.O 8 . k.Q d i L k.k.  ",
"          L.K...B & 2 r w.3.6.l i i x V V V n N V V V V V V V V V V V V V V V V V V V V V V V m - 2 t 9 m.k.K i L k.    ",
"          L.L.K.8.* 2 e r.N V m v x p v V V N N V V V V V V V V V V V V V V V V V V V x N V V V 3.+ w X x.k.L i L k.    ",
"          L.L.L.L.;.* e.V V V V V V V 7.p.n n n V V V V V V V V V V V V V V V V V V x p N V V V C _ X k.k.k.R i T l.    ",
"            L.L.L.L.R.3.V V V V V V S  X[.A N N V V V V V V V V V V V V V V V V m c i z V V V V 3.Q k.k.k.l.W s R       ",
"            L.L.L.Y.).G...C n V V V Z '.h.A V V V V C V V V V V V V V V V V V v p i i x V V V V [ k.k.k.k.k.W d R       ",
"              L.L.)._.I.L.*. .V V V V V V V V V V V V V V V V V V V V V V x k i i i p N 5.V V V o.x.k.k.k.k.W d         ",
"              L.L.L.L.L.L.L.L.*...M V V V V V V V V V V V V V V V C m v f i i i i i l M (.p.V 3.Q v.U.T.k.k.W D         ",
"                L.L.L.L.L.I.L.L.L.K.:...4.M C V V V V V V m M | { ] f i i i i i i G | V 5.C V O.x.v.).Y.l.k.Q           ",
"                  L.L.L.L., N.L.L.L.L.L.L.A.*.&.X.O.O.X.o.! ~ Q L s i i i i i i F X.M V V n 3.Q k.k.v.v.k.k.            ",
"                  H.A.C.V.5 : C.K.H.H.H.H.T.v.k.k.k.k.l.l.x.W D i a i i i i i F Y ` V V V m o.k.k.k.x.x.k.              ",
"                    z.n.q t 6 @ l.z.k.k.v.Y.v.k.k.k.l.x.W K s i i i i i i i J Q X.m V V V [ z.k.k.k.k.z.k.              ",
"                      4 t t t 6 ; n.k.k.k.v.k.k.k.Q R F s i i i i i i i s T x.Q f.d.V V | ! z.x.k.k.k.k.                ",
"                    t t t t t t 4 # x.z.x.Q W T F d i i i i i i i i i F W k.z.,. X|.Z C o.k.k.k.k.k.k.                  ",
"                        t t t 1 / F D D d s i i i i i i i i i i i D R x.x.k.O.V g.d.C X.k.k.k.k.k.k.                    ",
"                          t 4 h a i i i i i i i i i i i i i d F R Q k.k.x.X.C V m m O.k.k.k.k.k.                        ",
"                          t     d d s s i i i i i s s D K T Q c.L.v.k.k.+.C V V C X.k.k.k.k.k.                          ",
"                                    W W R R R R R W Q x.k.k.k.v.Y.K.x.X.C V V 3.E k.k.k.k.                              ",
"                                        l.l.x.l.x.l.l.k.k.k.k.k.l.c.{ m V V [ ! l.l.k.                                  ",
"                                            x.x.k.k.k.k.k.k.k.k.! 4.V m 4.o.x.x.k.                                      ",
"                                                    k.k.k.k.Q } M V C { Q                                               "
};
