/* XPM */
static char *_60_F_320411819_wdcEzlYyYMzaHZq3E4aKdgZlII1Lb9QN1673543780[] = {
/* columns rows colors chars-per-pixel */
"60 60 256 2 ",
"   c black",
".  c #010101",
"X  c #020202",
"o  c gray1",
"O  c #040404",
"+  c gray2",
"@  c #060606",
"#  c #070707",
"$  c gray3",
"%  c #090909",
"&  c gray4",
"*  c #0B0B0B",
"=  c #0C0C0C",
"-  c gray5",
";  c #0E0E0E",
":  c gray6",
">  c #101010",
",  c #111111",
"<  c gray7",
"1  c #131313",
"2  c gray8",
"3  c #151515",
"4  c #161616",
"5  c gray9",
"6  c #181818",
"7  c #191919",
"8  c gray10",
"9  c #1B1B1B",
"0  c gray11",
"q  c #1D1D1D",
"w  c #1E1E1E",
"e  c gray12",
"r  c #202020",
"t  c gray13",
"y  c #222222",
"u  c #232323",
"i  c gray14",
"p  c #252525",
"a  c gray15",
"s  c #272727",
"d  c #282828",
"f  c gray16",
"g  c #2A2A2A",
"h  c gray17",
"j  c #2C2C2C",
"k  c #2D2D2D",
"l  c gray18",
"z  c #2F2F2F",
"x  c gray19",
"c  c #313131",
"v  c #323232",
"b  c gray20",
"n  c #343434",
"m  c #353535",
"M  c gray21",
"N  c #373737",
"B  c gray22",
"V  c #393939",
"C  c #3A3A3A",
"Z  c gray23",
"A  c #3C3C3C",
"S  c gray24",
"D  c #3E3E3E",
"F  c #3F3F3F",
"G  c gray25",
"H  c #414141",
"J  c gray26",
"K  c #434343",
"L  c #444444",
"P  c gray27",
"I  c #464646",
"U  c gray28",
"Y  c #484848",
"T  c #494949",
"R  c gray29",
"E  c #4B4B4B",
"W  c #4C4C4C",
"Q  c gray30",
"!  c #4E4E4E",
"~  c gray31",
"^  c #505050",
"/  c #515151",
"(  c gray32",
")  c #535353",
"_  c gray33",
"`  c #555555",
"'  c #565656",
"]  c gray34",
"[  c #585858",
"{  c gray35",
"}  c #5A5A5A",
"|  c #5B5B5B",
" . c gray36",
".. c #5D5D5D",
"X. c gray37",
"o. c #5F5F5F",
"O. c #606060",
"+. c gray38",
"@. c #626262",
"#. c gray39",
"$. c #646464",
"%. c #656565",
"&. c gray40",
"*. c #676767",
"=. c #686868",
"-. c DimGray",
";. c #6A6A6A",
":. c gray42",
">. c #6C6C6C",
",. c #6D6D6D",
"<. c gray43",
"1. c #6F6F6F",
"2. c gray44",
"3. c #717171",
"4. c #727272",
"5. c gray45",
"6. c #747474",
"7. c gray46",
"8. c #767676",
"9. c #777777",
"0. c gray47",
"q. c #797979",
"w. c gray48",
"e. c #7B7B7B",
"r. c #7C7C7C",
"t. c gray49",
"y. c #7E7E7E",
"u. c gray50",
"i. c #808080",
"p. c #818181",
"a. c gray51",
"s. c #838383",
"d. c #848484",
"f. c gray52",
"g. c #868686",
"h. c gray53",
"j. c #888888",
"k. c #898989",
"l. c gray54",
"z. c #8B8B8B",
"x. c gray55",
"c. c #8D8D8D",
"v. c #8E8E8E",
"b. c gray56",
"n. c #909090",
"m. c gray57",
"M. c #929292",
"N. c #939393",
"B. c gray58",
"V. c #959595",
"C. c gray59",
"Z. c #979797",
"A. c #989898",
"S. c gray60",
"D. c #9A9A9A",
"F. c #9B9B9B",
"G. c gray61",
"H. c #9D9D9D",
"J. c gray62",
"K. c #9F9F9F",
"L. c #A0A0A0",
"P. c gray63",
"I. c #A2A2A2",
"U. c gray64",
"Y. c #A4A4A4",
"T. c #A5A5A5",
"R. c gray65",
"E. c #A7A7A7",
"W. c gray66",
"Q. c #A9A9A9",
"!. c #AAAAAA",
"~. c gray67",
"^. c #ACACAC",
"/. c gray68",
"(. c #AEAEAE",
"). c #AFAFAF",
"_. c gray69",
"`. c #B1B1B1",
"'. c #B2B2B2",
"]. c gray70",
"[. c #B4B4B4",
"{. c gray71",
"}. c #B6B6B6",
"|. c #B7B7B7",
" X c gray72",
".X c #B9B9B9",
"XX c gray73",
"oX c #BBBBBB",
"OX c #BCBCBC",
"+X c gray74",
"@X c gray",
"#X c gray75",
"$X c #C0C0C0",
"%X c #C1C1C1",
"&X c gray76",
"*X c #C3C3C3",
"=X c gray77",
"-X c #C5C5C5",
";X c #C6C6C6",
":X c gray78",
">X c #C8C8C8",
",X c gray79",
"<X c #CACACA",
"1X c #CBCBCB",
"2X c gray80",
"3X c #CDCDCD",
"4X c #CECECE",
"5X c gray81",
"6X c #D0D0D0",
"7X c gray82",
"8X c #D2D2D2",
"9X c LightGray",
"0X c gray83",
"qX c #D5D5D5",
"wX c gray84",
"eX c #D7D7D7",
"rX c #D8D8D8",
"tX c gray85",
"yX c #DADADA",
"uX c gray86",
"iX c gainsboro",
"pX c #DDDDDD",
"aX c gray87",
"sX c #DFDFDF",
"dX c gray88",
"fX c #E1E1E1",
"gX c #E2E2E2",
"hX c gray89",
"jX c #E4E4E4",
"kX c gray90",
"lX c #E6E6E6",
"zX c #E7E7E7",
"xX c gray91",
"cX c #E9E9E9",
"vX c #EAEAEA",
"bX c gray92",
"nX c #ECECEC",
"mX c gray93",
"MX c #EEEEEE",
"NX c #EFEFEF",
"BX c gray94",
"VX c #F1F1F1",
"CX c gray95",
"ZX c #F3F3F3",
"AX c #F4F4F4",
"SX c gray96",
"DX c #F6F6F6",
"FX c gray97",
"GX c #F8F8F8",
"HX c #F9F9F9",
"JX c gray98",
"KX c #FBFBFB",
"LX c gray99",
"PX c #FDFDFD",
"IX c #FEFEFE",
"UX c white",
/* pixels */
"    o   &   . O % X O . <     2 %   O ; U M.5   X   . X   . o . o .     + * $ .   o %   $ O O H a + X -   - O # @ $ # + ",
"  = + O   O X o   X %   & o o %   , + < : 9   = o + + + @ @ @ # $ $ @ o O @ +   +     % : * =       @ 2 # - # X % * * % ",
"  +   + = o # . *   + , 7 * & $ ; 1   * = . O o $ - % @ * # . @ # % & # @ # $ # X   4 ..p   =   o o X > % O # < X + $ % ",
"=   O ; c O : O &     - & X - * @ @ $ O   o X   # > % + ; $   # X O @ @ @ @ @ +   : ` 5X$.: X . o   o # % @   o   . o o ",
":   % : j   + o   $ < 7 $ * 1   : 3 h ,   X # > X = @ o ; & o = : - - : , : & @ # o t X.u @ O X O o :     =     @ @ O . ",
"o O $ $ @     : d <   - - 3 0 O % # # $ # O #   X $ o   @ o   O @ .   o $ $ X   #   + @ $ X & o 1 o =         > $ $ + . ",
"* # = +   @ @ s @X*.* : * o % @   +   - > - - # O O X           1 * @ * , < > ; * # ; $ &       O   . & *   : # X o o   ",
"7   @   .     i B.~   & $ . # @ X + O     &   . X   . o X # = * 3 * O O # # @ #   =   - @ 4 = . X 6 .   @ 8 R < . X X   ",
"; O o     o   O % @ @ , +   =     > $   . X O O . @ o @ o S J.0 o   @ & + & 2 < + & @ %   - % X   =   O * 6 l & O X o $ ",
". X % O . o   o .     * * + %   X X       O $ X $ @   & : q W 2 @ O + # O O + . o + X % X * +     X @ $     $     . @ % ",
"  . % @ + #       O   . .   X + 9 & @ %       +   : + @ # X . O O @ O @ * & + O O O . $ @ & O X $ . = %   . o ;   # $ o ",
"* @ * # o .   @ o * X   % O X ;   O       * o     . %   % =   *   # + @ , > & : # * # @ # & # # %     . o $ & 1   X + # ",
"O   X O X O ; d O O   + y t & # & $ + . o   9 3.H     O 4 : + $ X % @ O & # O = $ < - . O @ # % o +   O & # @   O   O > ",
"k , O . O o   # + o   X 8 9 + # +     & @   S 6X@.  O # &   #   O $ @ o X . X # $ , ;   $ o o # + , # + @ X +       = s ",
"7 o     - 7 - + + O +   o +   = # o : .   # , m h   O @     : O O X o O X + % $ * = = $ 7 @   # o # @   . +   & O @ > e ",
"o @ - @ $ , $ . O   +   O #   & <   0 0 + o   . % +   ; = X O   @   . @ X # = + > % * 2 g =   % @   = o > 7   ; o $ = = ",
"% O % o X ; * + O     *   + o   % # * - O   X o X # + % ; = a } # #   @   7 &   ; + + # ; =   $ 8 #   & o.F.w   @ # @ O ",
"+   # X   & +     % @   $ @ .   o + # % # X   O   o % & # + t ~ ,     + . ,   , = @ % * - @   = % - # $ x ^ = X   o @ @ ",
"# X # .   $ +     * = # o X   .   + X o & +   @ - $ @ & & X         o + @ &   X $ o X o : 1 O .   ; * # @ % O # $ * - & ",
"- + $ X   $ # + X # e T : ; X   . % .   * #   #     * 1 : * = & . &     +   # . # * = # 5 a 3 @ & % * = o   & % = - & o ",
"* O & @ o $ + O % @ 3 A @ * + + # ; o   % #   # % * : * o X + O & +     $ # & $ o * , & - 2 > 3 9 O = , : ; $ O 1 3 3 < ",
"% + > > = - @ X + & o     @ + @ & ; @   # @ . + o       @ % O   X   +     : # # : o o O @ .   6 6 . % = & -   o X + # # ",
"& @ < 2 : : $ +   * = O 3 , #   # % # O O @ O .   $ ; ; ; +   # # o % b 5 O - > 6 $ o + * $ X < $ + . +   $   w ; = $ O ",
"= @ ; ; % * $ $ * $ % >   # & * X o # @ o + @   . #   o < *   . + % 2 !.w.  & -   # - o X +   +   -   +   ; 1 L w 5 * X ",
"+ 3 o X 6 1 # = $ = %   + ; # - > O ; <     #   O X   O * 6   + o $ 0 Z f O + O X @ $ o   X O + o * X > # @ - - : % % + ",
"1 &     % @   = & . % = & $ + : $ & $ = + . & .         X & . O O X . > -   @ O + $ $ o . X o o r ..1   o - * > 4 & . = ",
".   6 5 # o + 4 = O = & * 2 - O . #   + % $ : # X & : & @ X $     +     o X O   + @ @ o X O O o e.%XH & O = = * $ *   - ",
",.0 = * X @ O , O & , * ; , = 1 <     O @ = * @   @ & o     2 X o : % o # + . . X X X X O + + + i ( ; @ O = 6 $ . @ o N ",
"oXc   & * % # q - : * # = % k a.l   $ & o ; o   @ & % o $ : c p = ; #   O O . & .     X O O O O   #   + % $ > X < + , 7.",
"F + o ; +     = < 3 = o % ; M l.l . * * @ > @ +   o o   o % 4 - % .     # & o $ o X X O O X . o * X O   o + + = & X   k ",
"X @ > , - : - o & ; 4 > = & # 1 2 > + @ - = % % + & * % $ &     X   @ @ @ = o . O o + # + . . + % X %   @ $   +   & @   ",
"  # $ : =   o & 2   - 3 # @ % $   i o   > . + X X O X     &   & X . < #   X X X X o @ $ @ X O % ,     $       O % O # # ",
": $ ; % + # $ $ @   $ : + o * - X , &   $ # . # % @   # X * $ # + + O X . o @ @ & # + O X   . O * %     . .     = & $ # ",
"  .   *   $ # # % o * > # X + O @ 1 - o % #   o , X I d   4 :   o @ @ O . . + $     . + @ O o O       X % $ o o # @ o o ",
"% $ O M t - o : O   # ; $ o o X $ 3 < = < > & = + r G.%.$ = , : o @ $ @ .   o $ . X @ = ; = & &   o . . O .     O X     ",
"& % O M u o   $     o $ # O o X $ , , : 2 1 - ; o > k 7 $ $ #   # # $ # o   X + o . X O + O o O ; &     X @ # = o X     ",
"  %   #     ;   + @ + + + X   X @ & & % & $ o . O 7 O o + + & 6 * # + + + X . o o     . X .     l u : X o X     O X . . ",
"  # .       : . + % @ O @ O o % @ @ @ # # @ + X & : % & # 8 > < - @ X O @ O o + X     O # @ O O & #     & = @ O o X . X ",
"@     * O       X & # o @ + O - * # # % % * = & #   %     4 4 w & O . O + O @ * O       X .             + O     X X . X ",
"@     &   *   O O ; & o +     @ > % # $ + @ $ + % = ; O :     $ # X . O O o $ , 4 - + X . . X O   O X   O o . @ o X X o ",
"  O O     O o     X X * % %   + $   + $   o # @ : O o ; 2 = + @   o # - < 7   -.K.3   $ % X .   $ + o X . o % >         ",
"O # @ o o @ + .   @ @ @ X     # =   O O X # .   # O o # $ @ O + # , & # o * X j D o : =     # o + X . o o X X o + % $ . ",
"# @ @ @ # @ + O   :     @ # @   + O @     X . * . o o     o @ # # > O O   O > X @   5 #   O * o .     X O .       & - = ",
"# O O @ # O o o : @ ; V ;   * . X       % o   o @ X   . O # % & O +   @ : + 6 + # . 1 = = % $ $ X       X . . . - 2 - # ",
"# O O # $ + o o &    .6X(   = o   o O   .   - K < O   + - & @ @ o X o o 3 + - > & $ 4 2 3 o X ; % + X       @ - X & . o ",
"$ $ $ % % $ @ O # # v w.j     &   O #       q @.5 +   # ; #   .   O #   ; + O > 1 > : + &   o % ; & @ X     # : 5 0 % & ",
"+ $ % # # % # X X : o @ ; &     O       & #   = : @ . O @ X   X   . .   = @ $ : 4 ; o   @ + & o % @ + + O o @ % H A 3 & ",
". @ # X o $ +   = X > O + . #     . #     .   + o + O       O # #     ; , O ; : o X + @ < = > # .   . @ & $ O o @ >   O ",
"# -   = & & o X $ @ @ O   O +       6   o . % .       . . X X X   O $ % & & +   - ] E   # < $     X o % & o   + = $ o . ",
"5 ,   X   O     . . + # O $ % o O h !.O.X   + + . . . . . . .   . o O . . o X   3 ^.W.8   + O O & @ $ : O o .   & # O o ",
".   X @ o $ X $ . X $ & @ @ #   @ s E. .  @ @   . . X o o X X . X O O .     o o : l l = *     @ * # X + j 4 + % # @ + + ",
"- o @ O   o     o o $ % O o o     # u %   O +       X o O O o o . O @ O X X O #   # 8 $   @ 4 %   3 X 2 !.O.    o O + + ",
"> X + $ & & @   X   X O . X + X   +     =     +     . X X X . . . X o o . X # * - @ .   ;     # @   X & M 6 & o X o O O ",
"+ o @ O     6 0 #     X     o . . . O # $     o . . .           # O .     O = 2 =   X   X + < - + $       * .   o X X X ",
"O % @ @ O 3 :.h.- o . o X . X   X         # X   X X .   . X o O * + .   X @ - 2 w   + * . X 2 .   . # *   o $ . O o . . ",
"* =   O X   P I &     O @ $ $ +   %     +   o % X . . X O # & = @ .   . o + $ - + % 5 4 1 O : 8 &       >   % + @ o . . ",
"O O X X & < - X # @ % : & = = %       & o @ + < O o o o & @ X 4 a $   o @ o o @   + * ; & # , : % ; o   = , O $ & + o # ",
"o @ + O # = & o O X + & % % $ O + * ; , + +   $   O o . # + X , y = o # @ o O @ @ > ; * - % # o   . O @ - > * 1 < - & = ",
". @ $ + O # # O X   . @ = % O       O # $ <     . = $ X + o . $ : + o + o O $ $   +     #   O p 4   + & * - ; < > = $ % ",
". + # + o + + + X   . + 1 * O   + @ O ; g I i 1 @ 6 > + + X     .   . X   + $ + & - O > 4 & p f.J @ . @ & ; : & # O X X "
};
