/* XPM */
static char *_affc3ff5eecc81295649ecdad5ac02d1673543430[] = {
/* columns rows colors chars-per-pixel */
"60 60 51 1 ",
"  c black",
". c #010101",
"X c #020202",
"o c gray1",
"O c #040404",
"+ c gray2",
"@ c #060606",
"# c #070707",
"$ c gray3",
"% c #090909",
"& c gray4",
"* c #0B0B0B",
"= c #0C0C0C",
"- c gray5",
"; c #0E0E0E",
": c gray6",
"> c #101010",
", c #111111",
"< c gray7",
"1 c #131313",
"2 c gray8",
"3 c #151515",
"4 c #161616",
"5 c gray9",
"6 c #181818",
"7 c #191919",
"8 c gray10",
"9 c #1B1B1B",
"0 c gray11",
"q c #1D1D1D",
"w c #1E1E1E",
"e c gray12",
"r c #202020",
"t c gray13",
"y c #222222",
"u c #232323",
"i c gray14",
"p c gray15",
"a c #272727",
"s c #282828",
"d c #2A2A2A",
"f c gray17",
"g c #2C2C2C",
"h c #2D2D2D",
"j c #2F2F2F",
"k c #323232",
"l c gray21",
"z c #373737",
"x c #3C3C3C",
"c c gray28",
"v c #4B4B4B",
/* pixels */
";>>;>>2>;%%%;>;;%%;;;;%;;%>%8%;;>%>%>@>8;;;;;;;;@2fa%%>%%>>;",
";>;;;>>;@th8@@;;;%%;;%%;;;>X>;8%@@%%>%%@;;%%;;;%;;28%@;;%>e8",
";;;;%;>;%8t>%>>%;%;;>;;>@;%2%>%%;>%%%;%%%;%;%;;;2%%>%%;>;;;%",
";;;;;;;%;@X%>2;@;;;>>;;>%;>2%;%;>te8X;;2;%;%;;%%;%;>>;;;%%@@",
"%;;%%;;%;%;>;%%>%%@;%%%;>>h@;Xe;%eaf>>%%;%;;;;;%@;>;>;%@e2>;",
";;;;%;;%%>2;@;>;%%%%%;;;>;2l2;%2%>>222;@;;;;>;;%%8>%;;;%f8%@",
"%;;%%;;%%%%%>8>%;;%;>;;2;@Xv>eX>;%%%>;>;;;;>>>;;;2>%>;%>;%%>",
"%;;%;;;;;%%88>%%;%%;;;;>%@2@@2tX%%228%;>;;;>>>;;%;@%8;X;>;>>",
">;;;;;>;>;;22;%;%;;;>;>>;;;;>;>>;;;%;%%;;;%;22>%>>>;;%%%>>;%",
";;;%%;;;2;@X@%;>%;;>;;>;%;;%;;%;%;%;;;;;>2>;>2>%2>;;;;;;>;%;",
";;%%%;;%%;>222;%;;>;;;;;;;;;;;;;;;;;>>;%;;;%>>;%>>;;;;;;;%%;",
"%%%%;%;%%%%%%%;;;;;>;%;;%;;;;;;;>%%;;>;%;%%%;>;;;;%@%;;;;;%%",
";%%;;;;;>@%>2;%>;;;>;%;%%%;%;%%;>;%%%;;%2>>>>>;;;%;%%>>;%%%;",
"%;;;;;;%;%>aa2;>%;;;;%%;;;%;;;%;;;;%%%;;>;;>>;;;;>;%;>>;;;;%",
";;%%;>;;2%@%;%%2%;;;%;;%;;;>>;>>;;>>;;%;%@%;>;;>;;;%%>2;;>;;",
"%%;;;>;;;%;>>>;;;;;;;%;;;%;;;;;;%>88>;%;;;;>>%%%%;%@%;>%%%;;",
"%;>2882>;%;;;>;;%;;;@@>%2k;;>;8%;;;%%;%%;;;;;;%;%;%8;;2>2>;;",
";%%%;>>>;;%%;;;;%2X;2;e%%e@;>%2%;;;;;;;;;%;;>%%%%;%;%%;%>%;;",
";;%%%%;>;;;;;;;;2fX>e;t;%%>>%;;%;;>;;;;;;%;;>;%%;;>%;%@;%;%;",
";%;;;;;%;;;>>>>>>k2>8%>22@88;;%;;;;%;%;;%%;>;;;%;;2@>>%>;;%;",
"%%;;;;@@>;;;>>;;%2>@;;@28X82%;@;%;%;;;;%;;;;;%;;%%2@>%;%>>;;",
";;;%%%;;;;%;%;;%%%;X%8X>2%>;%;%>;;;;%;;;>%%%;%;>;%>%;Xe@2>%%",
">;;;;;>2;;;%%;%%;;>%;>%%>;;%>>;2%;;;;;;;;%%;;%;>>;>;>@z>;;;%",
"%;%;%;;;;;%;;;;%@>>2%@>;;>%@>;%;%%@%%%;%;%;;;;%;>;%;;@ve%%;;",
"%%;%>822%%;;>>;%%;%%%;22;@%%;;>%>;%%;>;%%;%;;;%;;%%%;%;%;;%;",
";;%;;2>;;;;;>>;;;;;;>>>;%%%;;;;;;;;;;;;%%%%;;;;;;;;%;;%;;%;%",
";;;;>>>;;;;%;;;;%%@;;%%;%;>;;%@;;;;;;;%;%%%%%;;;;;%%%%;%;;%%",
"%;;;>>;;;;%;;%%%a>@%;%@;%>;%;%@;;;>>;%;;%;;%%;;%;%%%%;;;;;;;",
"%;;>>;;>;;;>>;;%xa;>2;%;%;%%%;%;;;;;;%%;;;%%;%;;;;%;>222;;%%",
">;;;;%;;;;;>>>;%t2%;2>;%;@;>;;>%;;;;%;;;;;;;;>>2;%;;;>>2;;%;",
";;;;;%;>%;;>>>;%@@%;;;;%>@2e;;8@;;%;;;%;%;;%;>>>%%%%;;;;;;%;",
"%%%%;%;8;;%%;;;;%>8>;%;;;@ef;%8@;;;;;>;;;;;%%%;;;;%;;;%;;;%%",
"%%;;;;;;%;%;;;;%>;;;;%;>;>@X2>%>2>;;>ee>le%;;@%2;>;%;;@%%%%;",
";%%;;>;;%;;;%;;%>;;;;%%;;;%;;;;;2>;%%>2%t;@%;;;2@%@%>;;;;;%;",
"%;;;;;;;%>>%%>>%>;%;;%;%%@;>%%;%;;;%@;;%;%%;;;;;;;%;2;%>;;;%",
"%%%;%;%;%22;;22%%%;;;;;;%;;;;;%;;;;%%;2;@%;;;;%@>;%;2;%;%%;;",
";%;%;%;%;28>;22;%;;;;;>;%8;@22%>;%%;;>8;%;>>;;;@@%%%;;%;;%%;",
";;;;;;;;;22>>;;;>2;;;>;;@>%X>>%;>%%;;>>%;;>;>>;;%>>%%;%;;%%;",
";;;;;%;;;%>2>%@;;>;;;;;%%%>;%>8%;%;;;;;;;;%;>;;;;tt;%;%%;;;;",
"%;%;;;%%;;>2>@@;;;;%%%;%>@tf@2h;%%;>%%>;>;%;;%%%@et;@;;%%;;;",
";;;;;;;;;%%;;;;%;;;%;;;;;>>>;%;>;>;%%;;%;;;%;;;%%%;%%;;%;%%;",
"%;%;%%;%;;%;%;;%%%%;;%%%%;>;%%;;%%;%%;;%;;%;;;;;%%%;%;;%%%;%",
"%;%%;%%;%;%%%;%%%%;;;;%%%%;;;%;;%;>;;;;;%%;;;%%;;;%;;%;;;%%;",
";%;%;%;%;%%%;;%;;;;>>;;;%;;>;;;;;>2>;%%%;;%%;;;%;;;;%;;%;%;%",
"%;%;;%;%;%%;;;%;;;;>>;;;;;;>>;%%%>22;%;;;%%%;;%%;;;;;%%;%%;;",
";;%;;%;;%;;;;;;%%%;;;;%%%;;;%;%%%;>;%;;%;;%;%;;%%;;%%;;%;%%%",
";%;;;;%;;%;;;;%%%;%;;%;%;;%%%%;%%%;%%;;%%;%%%;%%%;%;;%;;;%;;",
"%;%%%;%;%%%%;;%%%;;%;;%;%%%;;;;;;;;%%;;%;%;%%;%;;%%%%;%;%;%%",
";;%;;%;;;;%;;%;;%;;%;;%;%%;>>;;%;;%;;%;;;%%;%%;%;%%;;%;%;%;;",
";%;%%;;%%;;%%;%;;%;%%;;%;%;>>;;;;%;%%;;%%;;%%;%;;;;%%;%;>;;%",
"%%;;;%%;;%%;;;%%;%;;%;;%;;;%;;%%%%;;;%%;%%%%;;%%%;%;;%;;>;;%",
";;%;;;%;;%;;;%;;%;;%;;%;;;;;%;;;;;%;;;%;;%;;%%;%%%%;%;;;;;%%",
";%%;%;;%%;;%;%%;;%;;%%;%;;;;;%;%;%%;%;;%%;%%;%%;%%%%;;;;;%;;",
"%;;%;%%;;%%;%;;%;;%%;;;;;;%%%%;;%;;%;%%;;%%;%%;%;%;;;%%;%;;2",
";;;;;;;;;;;;;;;;%;%;;%%;%;%%%;;;;;;;;;;;;%%;;%;%;%;%%;;;@%>>",
";%%;%%;%%;%%;%%;;%;;%;;%;%;;%;%;;%%;%%;%%;%%;%%;;;;%;;%%;;;%",
"%%;%;;%;;%;;%;%%%%;%%;%%;;;%;%;;@@%;;%%%%;%%%;%%%%%;;%;;;%;;",
";;;;%;;%%;;%;;;;;@;%;2;%;%%;%;;%e;%%;%%;;%%;%;;%%;;%%%%%%;;%",
";%%;;%%;;%%;;%%;;%%%;8>%;;;;%;;%f2@;>%%>;%;%%%;%%;%%%;%;;%%;",
"%;;%;%;;;;%;%;;%>%;%;8;;%%;%;%;;8;%>>;%%%;%;;;%;;%;;;%;%;;%;"
};
