/* XPM */
static char *clipart_stars_pattern_256x256_172c1673439270[] = {
/* columns rows colors chars-per-pixel */
"60 60 246 2 ",
"   c #0D3250",
".  c #163D5C",
"X  c #113757",
"o  c #0D3251",
"O  c #0F3B5E",
"+  c #0E3758",
"@  c #0F3554",
"#  c #103757",
"$  c #0D3351",
"%  c #0E3351",
"&  c #133958",
"*  c #103655",
"=  c #123858",
"-  c #193E5C",
";  c #0F3555",
":  c #0E3452",
">  c #123958",
",  c #0D3352",
"<  c #0F3758",
"1  c #0E3555",
"2  c #0D3453",
"3  c #0C314F",
"4  c #174062",
"5  c #133A5A",
"6  c #0D324F",
"7  c #0F3452",
"8  c #22496A",
"9  c #113654",
"0  c #103755",
"q  c #103553",
"w  c #103554",
"e  c #1A4364",
"r  c #0F3A5E",
"t  c #0E3352",
"y  c #183E5D",
"u  c #0E3656",
"i  c #0F3B5F",
"p  c #163D5E",
"a  c #143B5B",
"s  c #0D314F",
"d  c #0E3454",
"f  c #123857",
"g  c #1A4262",
"h  c #153B5A",
"j  c #103654",
"k  c #0F3553",
"l  c #0F3859",
"z  c #123755",
"x  c #214766",
"c  c #113756",
"v  c #0E3554",
"b  c #123856",
"n  c #133857",
"m  c #153A59",
"M  c #0F3453",
"N  c #143A58",
"B  c #0F3656",
"V  c #0E3453",
"C  c #133A58",
"Z  c #0F3757",
"A  c #113B5D",
"S  c #133957",
"D  c #163C5B",
"F  c #214869",
"G  c #163B59",
"H  c #1C4567",
"J  c #123756",
"K  c #12395A",
"L  c #143957",
"P  c #113755",
"I  c #1D4566",
"U  c #173D5C",
"Y  c #11395A",
"T  c #113C5F",
"R  c #153F60",
"E  c #133E62",
"W  c #163F61",
"Q  c #0F3C60",
"!  c #183D5B",
"~  c #183D5C",
"^  c #143A59",
"/  c #0F3A5D",
"(  c #113857",
")  c #113959",
"_  c #153A58",
"`  c #2A4F6D",
"'  c #173C5A",
"]  c #133A59",
"[  c #1C4260",
"{  c #163B5A",
"}  c #0F3858",
"|  c #113C5E",
" . c #204462",
".. c #123A5B",
"X. c #0E3859",
"o. c #1F4563",
"O. c #103B5F",
"+. c #143C5D",
"@. c #1B4161",
"#. c #264B69",
"$. c #133C5D",
"%. c #0F3756",
"&. c #113E61",
"*. c #103B5D",
"=. c #0F3655",
"-. c #0D3454",
";. c #194061",
":. c #103656",
">. c #274D6B",
",. c #214765",
"<. c #1D4362",
"1. c #133959",
"2. c #133856",
"3. c #143D5F",
"4. c #164164",
"5. c #10395A",
"6. c #244A69",
"7. c #103552",
"8. c #193D5B",
"9. c #0F395B",
"0. c #103C60",
"q. c #113858",
"w. c #214665",
"e. c #113655",
"r. c #0D3452",
"t. c #0E3759",
"y. c #123A5A",
"u. c #183E5C",
"i. c #0E3350",
"p. c #113A5C",
"a. c #0E3556",
"s. c #0F385A",
"d. c #103B5E",
"f. c #2A506E",
"g. c #184161",
"h. c #1B405F",
"j. c #1E4362",
"k. c #153E5E",
"l. c #204666",
"z. c #173B59",
"x. c #133F62",
"c. c #1A4363",
"v. c #163E5F",
"b. c #133E60",
"n. c #164061",
"m. c #103C5F",
"M. c #173C5B",
"N. c #0E3250",
"B. c #204767",
"V. c #1E4667",
"C. c #143B5A",
"Z. c #11395B",
"A. c #123B5E",
"S. c #234A69",
"D. c #123C5E",
"F. c #163C5C",
"G. c #133B5C",
"H. c #113A5B",
"J. c #153E60",
"K. c #123E62",
"L. c #0F3351",
"P. c #143956",
"I. c #123959",
"U. c #153B5B",
"Y. c #103756",
"T. c #1C405F",
"R. c #194162",
"E. c #143A5A",
"W. c #133C5E",
"Q. c #103858",
"!. c #1C4667",
"~. c #193E5D",
"^. c #264B6A",
"/. c #173E5E",
"(. c #194060",
"). c #123B5C",
"_. c #0F385B",
"`. c #133D5E",
"'. c #143C5C",
"]. c #153D5D",
"[. c #1B405E",
"{. c #123C5F",
"}. c #0F3759",
"|. c #254A68",
" X c #164163",
".X c #143856",
"XX c #153B59",
"oX c #163C5A",
"OX c #1C4566",
"+X c #244B6C",
"@X c #184163",
"#X c #254B68",
"$X c #0D3353",
"%X c #133C5C",
"&X c #133B5D",
"*X c #153D5E",
"=X c #1D4565",
"-X c #184061",
";X c #103D61",
":X c #1A415F",
">X c #184060",
",X c #153C5B",
"<X c #224969",
"1X c #143E61",
"2X c #254A67",
"3X c #0E3657",
"4X c #113B5E",
"5X c #103758",
"6X c #123C5D",
"7X c #214767",
"8X c #143958",
"9X c #1E4565",
"0X c #143F62",
"qX c #103C61",
"wX c #0F395C",
"eX c #294E6C",
"rX c #123654",
"tX c #194365",
"yX c #113D61",
"uX c #173F60",
"iX c #143B59",
"pX c #20496A",
"aX c #164062",
"sX c #194264",
"dX c #1F4666",
"fX c #2B506F",
"gX c #183F5F",
"hX c #1F4767",
"jX c #244B6B",
"kX c #103859",
"lX c #1D4564",
"zX c #284D6B",
"xX c #183C5A",
"cX c #113D60",
"vX c #113553",
"bX c #163E5E",
"nX c #153C5C",
"mX c #0C3250",
"MX c #193F5F",
"NX c #1B4262",
"BX c #1A4365",
"VX c #194161",
"CX c #163F5F",
"ZX c #173F5F",
"AX c #184265",
"SX c black",
/* pixels */
"        . X o                                       O +               @ #   $                           % & % * * =     ",
"- %     % ; $     : >         , o       o < &       1 2 3     o $     $ :   4 5 6         $ $           7 8 9 0 %       ",
"q     w $         * e %       1 ,       $ < : , r @ t q y o   u i   p a s   # @           2 d       1 2   %             ",
"    % f 1 d 7         g h 6       7 j         k l * k z x %   $ ,   = c     v t $ d     1 +         o         %         ",
"b n   m q : h o       f w   :     M *   % n   N 9 B V o               s     % C u i     Z A     : 7       S D F %       ",
"% %   7   G z             : H @         % J       $ 1 V       @ : : $ K t     :   o     9 L     P b       % 7 f V       ",
"          % b I t u       q U         o         $   V 1       c Y T % R V           $ d           3       V t   B $   3 ",
"  o & %     7 & o , % M   % w o     ; E o   6 K W               o $   k             v Q o   q %   ! q     @ :       9 ~ ",
"    g ^           6 M f 3 s / +   ( ; v , :   : @       M :       3   ^ M )     6     o     _ 7 % ` L           $ , ' ` ",
"    ] P         7 j     [ S 1 $ q {   6 } |         s   * @ j t    .L 3 : ]     ..v v       X.,                 , v     ",
"                k P     o.^ 2     o     o $ % q O.+.@.      P :   #.G         o $.%.&.,   V *.*         7 :             ",
"    o u             t =.3                   q N -.> ;.$ V       % &             6   $     :.- >.      3 ,.<.3           ",
"1.F % o M 2.  t j   $ V 7 {       3.)           6 u i =.4.$         V X.        o           7 9         q q             ",
"5.h   3 { 6.  t *       % J 7     :.k     t (     o $   t   7.8.    v 9.      d 0.o                 $ , $               ",
"  s     : l r t %   o o   f q.            * e %             % q ,       w._ 6 $ v     o % e.$ r.$   , t.0.o             ",
"; V :     , + e.8.  ; v   , v             M a                 k y.6     u.P         v 1 % ^ Z i ..9   o 2 d ,       & : ",
"B @ V         $ i.                          6   % q M         7 b p.;   3     3 a.$     : @   o P z       / +     $ @ $ ",
"1           s.d.@                 > 5 *         N f.^ M q.        5.v s     7 y :       t k 7 z           o       V -.  ",
"V           $ @ g.7         3 h.j.k.]           % z     $         s @ ..  * & l.7           q z.  t x.V     c 7 o       ",
"              % c.w         2 & L 3         L 2.            $ o   t ( $.  @ Z         q m   d o   o Z $     I v.b.      ",
"      n.X       =.V         2 $ % w         7 %             i u   e.J s   1 m.M.%     N.7   V o       t t   % : @ $     ",
"  %   y.@                 @ $ 3 ^ B.            d   o $     , M V.. C.    o   %       < B           6 Z.A.> %   o Z     ",
"& S.% 6             % $   * V D.: 7           % v   V <     , % ] F.. s d 0.o   @ k 6 5.Y             $ % M             ",
"7 n % %     , V V 6 3.G.6   t H.$           q {     $ Z     1 , s   : o $ d     k M   t f   t :.% e.            $ :     ",
"  3 G z     V 1 1   : t     1   6       J...% %       $ @         $ K.v       1 ,   L.P.    % V 7 _   % *       < d.    ",
"    %       3               I.@ U U.    Y.] b         $ =.          , , 2 , 1 , o   7 _               % & :     $ @     ",
"          w T.%             R.E.h ^ s s           f t   6 q.W.        @ Q.  $                         o c e.    @ !.:   ",
"        q ~.^.7     j %   o       s w /.$         w %     ; q.        V k               6         : c q.        o @ $ $ ",
"  7 >       3       * % d 0.o       @ (.  * c     & k L     ).=.%.$   B V       v _.  $ `.:       > e o             v d ",
"'.].%     , -.          $ v   % w 7 [.% s '.v.6   : % 2.    Y ( w         7 n   2 {.=.}.).t         $       :.* V       ",
"( (   $   $ ( :   @   $ %     t f 9 |.7                     s J e.  j %   % w   V k =./           % %   7 %   (  X$ 7   ",
"  3 y.W     e >   *   k Y.          s         7   z 9         :.*   = t         v o             7 f P 3 _ .Xt > : 7 XX  ",
"    ; :.    %   6 6         o     $ + 1 2   % oX% 9 2.9 V $ 6 v.'.  OXc   2 o   $ 1 B         e.+XM         * @X$       ",
"    r +       7 y.B q m     1 V   , r j L         3 [.#X=.%     , V @ % o 0.-.2._ $XV       v v 9           o %XM   q.q.",
"    $ o     7 G &X# % q   k ]       1 U ^.      c M V 7       b k d       2 d 7 q                 : X   c e.  *X@ 6 y.) ",
"                          & =X      $ % % t #   9 < i         P %         $ V               %   o 1 t   % %   6     5.5.",
"            o                   d $     7   $     o ,     J.I.s                     %     7 M.  9 ( -X5 6         % # B ",
"          2 0.$ @ (       s   o ;Xv   $ h %         ,   : # @     @ $ q 2.        z ` q     % 3 :X<.c w     %     e.J s ",
"  7 b     o d : >X-X      ,XM   $                   u $ # $     V =.$ k z     I.@ % N %           %       z XX          ",
"  % w   c e.6 % k       % c.*   , 1   7 <Xj                     1XY 6         R Y.      q J   2.q           @ @ o %     ",
"3 =.@   7 :   6 o $             o 1 , % h t                     t %                   3 ~.x 3 2X[.3       % & t k Y.    ",
"y c o       , 3Xl 4X              Y.@   6   , ,     5X6X        Y.k                       %   % %         % c           ",
"7X8X        d / , ,               9XU 3     d V     @ 5X    ; 0Xt       d m.o   $     M S             l 9.6 s     V $   ",
"    % XX$   Y.: % q             $ B %                       t #         , u     u $   % M             1 v M c d   d $   ",
"      7     %   9 N       , ,   $ V     @               j %                                   @ (   2 qXo 7 * 2         ",
"      * :                 wXs.          ( $ q eXrX    % 8 n             V $     o   o $         $ v d d * : k           ",
"$ 1 u tXI.:         % M.% $ $               % ! 9       7 $             d $   o yXd ].uX6           $ M * V =.          ",
"$ v $ o iXB.          7             k %       @ pX7             1 V             v $ k @     e.%   s y.aX6     2 o       ",
"        % w       J 7               sX= %     $ j       S z     o                           _ 7   * c V     o 0.v $ % t ",
"      $ $         dX^ 6             t w fXz             7 7 % :           :                     s g gX3       $   @ * Q.",
"      s./ q.%     %           , +     % _ %   w b         f * *           B $   9 %         $ r.  % $       g f 6 V / o ",
"      , , %       6 ^ hX      V / o       %   : w         w c :   %           % jXn s       , 1             U.j   k kX  ",
"                    w ^               s . lX                OX&   zXxX3         7 ( @   v o         P k     & M 3 L _   ",
"    %   , 1 3X2   %   6                 k P         % P     %     8Xc   o         W y.  d           j 7     : %         ",
"  M =   o 2 / 1 s ( V   o cXv     V ,   2 ,         % XX%         $ Y.  a.,                 9.X.                  6     ",
"  $ %   M     % >Xk       u ,     d , vXd.+     o               $ ,               w f       v V 1 ,   6         t h : k ",
"  n J   1.t % > bX: v V 7 M           ' P t   % ^ o 6   $       , v       $     c nXR.          N M P C.        j <Xe.& ",
"  % $ 7 m   % @ 6     mXMXNXs       J 7 ; V     % $ s.:.*   k @           # t   k %   : BXk     9 % E.VX                ",
"        $         $ uXw % t   @ *   dX^ s   % W.: $ wX,   s ].CX6               X t   $ > %                             ",
"                  $ ZXw       % %   %       $ 6X:           $ $               $ AX:.                                    "
};
