/* XPM */
static char *pngtree_star_space_png_image_38551541673543630[] = {
/* columns rows colors chars-per-pixel */
"60 60 198 2 ",
"   c #000C27",
".  c #000E29",
"X  c #00112C",
"o  c #00122D",
"O  c #00132E",
"+  c #00142F",
"@  c #001230",
"#  c #001530",
"$  c #001631",
"%  c #001731",
"&  c #001732",
"*  c #001833",
"=  c #051B33",
"-  c #001934",
";  c #001835",
":  c #001A35",
">  c #001836",
",  c #001936",
"<  c #001937",
"1  c #011B36",
"2  c #001A37",
"3  c #021C37",
"4  c #041C36",
"5  c #011A38",
"6  c #001B38",
"7  c #021B39",
"8  c #011C39",
"9  c #031D38",
"0  c #001D3B",
"q  c #031C3A",
"w  c #021D3A",
"e  c #031E3B",
"r  c #041E39",
"t  c #071F39",
"y  c #041D3B",
"u  c #051F3A",
"i  c #051E3C",
"p  c #041F3C",
"a  c #061F3D",
"s  c #06203B",
"d  c #05203D",
"f  c #07213C",
"g  c #04213F",
"h  c #07203E",
"j  c #06213E",
"k  c #07223F",
"l  c #08223D",
"z  c #0A223C",
"x  c #08213F",
"c  c #09233E",
"v  c #0A243F",
"b  c #092240",
"n  c #082340",
"m  c #0A2341",
"M  c #092441",
"N  c #0B2540",
"B  c #0B2442",
"V  c #0A2542",
"C  c #0B2643",
"Z  c #0C2641",
"A  c #0E2640",
"S  c #0C2543",
"D  c #0D2742",
"F  c #092644",
"G  c #0A2745",
"H  c #0D2644",
"J  c #0C2744",
"K  c #0E2745",
"L  c #0E2843",
"P  c #0B2846",
"I  c #0D2845",
"U  c #0F2944",
"Y  c #0F2846",
"T  c #0E2946",
"R  c #0F2A47",
"E  c #0D2A48",
"W  c #102842",
"Q  c #102A45",
"!  c #132B45",
"~  c #102947",
"^  c #112B46",
"/  c #122C47",
"(  c #112A48",
")  c #102B48",
"_  c #122B49",
"`  c #112C49",
"'  c #132D48",
"]  c #132C4A",
"[  c #122D4A",
"{  c #132E4B",
"}  c #142E49",
"|  c #172F49",
" . c #142D4B",
".. c #152F4A",
"X. c #152E4C",
"o. c #142F4C",
"O. c #162F4D",
"+. c #16304B",
"@. c #15304D",
"#. c #17314C",
"$. c #17304E",
"%. c #16314E",
"&. c #17324F",
"*. c #19314B",
"=. c #18324D",
"-. c #1B334D",
";. c #18314F",
":. c #19334E",
">. c #1A344F",
",. c #163351",
"<. c #193250",
"1. c #183350",
"2. c #1A3351",
"3. c #1B3550",
"4. c #1B3452",
"5. c #1A3552",
"6. c #1B3653",
"7. c #1C3651",
"8. c #1C3553",
"9. c #1D3752",
"0. c #1D3654",
"q. c #1C3754",
"w. c #1E3755",
"e. c #1E3853",
"r. c #1D3855",
"t. c #1F3954",
"y. c #1F3856",
"u. c #1E3956",
"i. c #1F3A57",
"p. c #21374F",
"a. c #203A55",
"s. c #203957",
"d. c #213B56",
"f. c #223C57",
"g. c #213A58",
"h. c #223B59",
"j. c #213C59",
"k. c #233D58",
"l. c #243E59",
"z. c #243D5B",
"x. c #253F5A",
"c. c #253E5C",
"v. c #263F5D",
"b. c #26405B",
"n. c #27415C",
"m. c #28425D",
"M. c #28415F",
"N. c #29435E",
"B. c #2A445F",
"V. c #30465E",
"C. c #2B4560",
"Z. c #2C4661",
"A. c #2D4762",
"S. c #2E4863",
"D. c #2F4964",
"F. c #304A65",
"G. c #304967",
"H. c #314B66",
"J. c #324C67",
"K. c #334D68",
"L. c #334C6A",
"P. c #344E69",
"I. c #354F6A",
"U. c #36506B",
"Y. c #37516C",
"T. c #39536E",
"R. c #3A546F",
"E. c #3E546C",
"W. c #395270",
"Q. c #3B5570",
"!. c #3D5772",
"~. c #3E5873",
"^. c #3F5974",
"/. c #405A75",
"(. c #425C77",
"). c #465C74",
"_. c #485E76",
"`. c #435D78",
"'. c #46607B",
"]. c #47617C",
"[. c #48627D",
"{. c #49637E",
"}. c #4A647F",
"|. c #50667E",
" X c #4E6883",
".X c #506A85",
"XX c #516B86",
"oX c #526C87",
"OX c #546E89",
"+X c #556F8A",
"@X c #57718C",
"#X c #5E748C",
"$X c #5B7590",
"%X c #67819C",
"&X c #758FAA",
"*X c #7E98B3",
"=X c #829CB7",
"-X c #8AA4BF",
/* pixels */
"9 r c U L Z N c ..r * s ..=.L 4 s r s N v v s s f E M k L s V.= L s ^ =.v v ^ f v ..f L L 3 Z / f N K B m m x a g g f g ",
"^ v d.>.s P.XXd.r N ..>...c v v ..^ L Z v v s s P P b 9 L +.E.p.c 3 Z =.v c Z c r L v v s 3 L 3 a h a a a K Y K b f b n ",
"c s ..c o N.`.^ ^ / >.d.8.+.L L / / L v v Q / +.d 9 P s v Q *.4 c r / >.^ Z L Z +.v >.`.U.^ ^ ^ ( E m q a B m a n g f g ",
"c U s 9 ^ ..N f ^ N c Z L v v v v v v v v +.8.t./ Z } 9 4 L v v Z v / +.U v L ^ ! * +.{.U.v L Z c.h.$.( ( ] Y m b M M M ",
"L Z 9 Z e./ 9 U v Z ^ L a r Z =.v U L v v L ..} * r ^ U Q +.v L Z Z Z Z Z c r Z f f ^ =.s c >.3 ( ( K B Y ] Y a M b M M ",
"/ - c U r U =.r L L U ........=.v ^ ^ v s v L L ! >.Z / Q L - s ^ / Z Z ( Z r Z N U ^ ..c v e.Z a a a a B K m q M f g f ",
"+.Z ^ Z 9 U =.c c - - v ....Z c f ^ / f s Z / ^ #X|.z 9 9 f P ,.....Z ^ 8.=.c Z v c c e.=.- c v ] $.$.O.O.O.] K b g n b ",
"9 } r - } v o ^ c ^ =.=...^ ..8.L #...c 3 v L L _.).% } 5.E S 0 U ! v ^ l.>.c c f 5.^ Z L c Z v a B K B m B B m f g g f ",
"U O.O.K m m S m q K O.O.( K K ~ K m q m ( m > 7 r a m Y B a m ( q S ( K B K B a b E E M f g s g l.Z c ..=./ ^ 5.v S S 0 ",
"( ( ( m x m S x ( ( K K K K K K m ~ m x K ~ K ~ ( K B m a a B O.m m x q a S K B b M N f b M f 9 8.^ c / ..N v ^ f M f g ",
"E K S a a m m x ;.~ x x K ( K m a ] K 7 a m m S O.] ( m x m K K a x m m Y ( K a f M b g M E P g ^ Z W ^ L v f v P M f M ",
"( S m b x S S m S x x K O.O.K a x ~ m a m m a m Z ( ( K ~ ( Z a a x m S K K m a M M M N N E P M c Z ^ Z v N L L U f g S ",
"( K B B B K Z K a x S ( O.( S a m a a ( w.;.K <.a x S K ~ ( K x m B m a 7 7 b S g S P N f S S M Z ^ } N f Z ^ U b 0 0 b ",
"( K K Y K m K Y K K K K S m m m ~ a x 8.M.;.S O.m x m K K K ~ ] 0 K $.<.( m 0 b 9 F P M g g b b ^ ..! Z c N Z L g M S M ",
"K K ] O.K a m ( ~ K m x x x m K K S K ;.w.~ 7 x ( K K ;.] m S ;.a K <.z.w.( b b g F S M M M N f U L L Q N c f v S ,.#.N ",
"m K O.O.Y a m ( S m x x m K K K 7 K ( ( ;.K a m ] K O.c.s.m x ] O.K K K S S Y #.N S N M U  .E v c a c L ^ c f c U r.4.g ",
"m a a x m m x m / X v } / L 3 / ( r =.A.e.U L v L L z v Q / Q Z N.....U / N.e.9 N 5.^ 9 L / v 3 v s s L L s s f N E E M ",
"m S K K m m m S {.d.+.L s / / d.c c r Z Z Z s ^ + 8.R.v s 3 l.d.r s L - c j.#.- / 9 v / v v / L L f v L L L v v b U U M ",
"m ~ ( ( m m m K B.L L L L +.c * s >.m Z v +.v +.b.d././ B./ {.OXs ^ >.Z z L v } v U >.s + B.R.3 U / U L U / L f S P P M ",
"m K K S S K S m L 3 s s L e.>.c 3 a.>.8.s / s f >.* L + d.s B.D.s c +.=.+.c =.#Xb.N v } 5.D.D.L / #.>./ L L L v U P F M ",
"m m x m E O.( a s v v Z U 8.d.L L >.n.b.- N U v s +.b./ >./ >.L ^ s Z ^ } c #.OXt./ c / b.d...U L +.e.+.L N Z U S M b g ",
"K m a x  .w.O.r s L Z L Z / e.v ..Q >.=.v v ..^ L / / >.v v s ^ d.+.L 3 f ^ c / * >.+.s L / f f v U +.>./ N U 5.N g 9 g ",
"m S m m ( <.} a e.e.c s 3 v N.t.z - s Z R.>.s s b.v * -.+.^ v d./ Z L 3 f e.#.f v - v =./ - r +./ L / >.=.U L 5.E N g f ",
"x S m x K  .K - s L s / U f U + v / / b.-X[.v v / / } 7.8.>.L c 5.Z >.} r Z / E L s +./ s d.D.f d./ L e.e.U N #.4.E S N ",
"K c Q c v / v ^ 3 c f N ^ s 3 L ..c c ^ R.e.L Z / #. .m b S  .O.r.E M b g b P #.s s / * N s #.! s v / / v N L v @.@.U f ",
"Z f L c s Z 4 v / U Z ^ =.} f s v ^ Z % N - f ..a K ( S m K K S P S N U Z g f b / s v L j.L +.j.U / >.>.s 3 s f P S M g ",
"c a ^ v c L v ^ N v r 3 f L Z v Z >.+.9 } +.+.L 9 m S S S K m a b M U E P f 0 g / v z L b.v s >./ N / #.N s L U b M g g ",
"N c ..Z v U v / Z / +.L - 3 f s c U L v #.e.} - S S m m b m S m N P U P M f N E v / v s +./ s L +.3 3 U / / +./ N M f b ",
"^ Z +.L c v 9 c % * L / v v N 3 =...U U r f v U K S m m b b m S N S F g f M P E s +.L l U >./ +.+.v s L L L U L M M g b ",
"Z c / U ^ ..Z ^ B.v - s s U / 3 P.e.^ 8.Z Z v ^ m m K K m a m K 0 f b b b N P M R v s L v / L L N N / / s s / / b 9 9 g ",
"v r U L ..e...+.&XU.^ L r Z / - b.v - >.U ( c - m m K K m b ( w.b N M M S P N 9 / s 3 / s b.t.s s v / L v ..>./ F g 9 g ",
"^ f Z v ^ ..c f [.^ - Z v L =.^ c r c e.- Z ..d.( E K m a m 4.G.E E M f N E L d f v L -./ OX X} / N s s U d.e.s @.S b M ",
"v c ^ 3 } L =.L s Z +.* +./ L 9 e.L k s / +./ b.L v v >./ s v s ^ a 0 ( O.K m K ..^ 8.v * Y.'.+ s +.v L L N.R + +.} P Z ",
"c U d.#.} 3 +.l.L v L s e.L s / s v * L >.s v s L v L v z / +.Z K N K ( ( K K m Z a > N 8./ k *.' L s ' >.e.+.U k v f g ",
"/ L ^ v +./ / s L c / U. X+.+ #.s =.+ / >.3 / z + / J.+.* L s s a m K c x K K m c ^ } ..+.v l / U 7.7.d s L ' s M M b g ",
"Z b.J.8.^ } +.v v R.d.  s b.B.+.L >.9 / >.s / v L d. XD.L >.v / 7 m K m m m K ( 9 ].D.- e.e.s ' +.D.R.v s f *.f E U P N ",
"v e.B.b.+...L v s +.3 N +.f s L 3 s f L } N * 3 / * / 3 % / 3 s x a m ( ( m ( s.d.e.B.d.s / d.v *.+.e.+.+.3 L / N M f f ",
"/ s 3 e.e.+.3 s L >.L B.d.U U L L v L s N / s / >.* L L L >.v L K q a ( K a B w.+.>.' v L / +.>.L s s s / s s * g g g g ",
"v +.>.B...L v e./ f U %XXXL s v e.d./ v L L =.d.z 3 Q +.L s s s ( K m B x q h K L f ' U * *.D.} / +.+.-.L +.N k f b b M ",
"L d./ L s b.+.* +.>.v B.v f e.s +.B.L +.>.v >./ / k 3 v v L / s w.w.<.K m m K m v L v v / +.+.b./ R +.J.' * 3 B.N N F b ",
"L v c L } ..Z r f ( <.O.m m K O.L s 3 s v L / e.a m m m m m K K : : / s v *.: b.b.f B.B./ / +.b.d.s v e.L m.+.3 f v v v ",
"} / / *.<.=.^ c b ( O.( m m K ^ v / / L L +./ s a m K K K K K ( ' / *.f k U v K.J.s v +.7.d./ v * / >.+.L e.z / / L v s ",
"..} +.>.8.>.^ r m E ( K B B B S v L / / ....L v m m m ( ( K ( <.} s + * +./ f Z >.s s L *.>./ *./ d.s s R.@X>.L s N ^ } ",
"L N Z ^ ../ Z r m N K m m m m a 8.c s +.>.v Z e.K a m O.( S K <.d.e.*.*.e.f v f v L / / R L R d.s >.L s J.^./ / L +.e.d.",
"f s r c Z Z Z N x m x a x B x 7 B...Z >.#.z c 5.K a a ( ( a b ( >.v s : / f *.v =.*.v v ' / v v s / a./ L v 3 L >.+.^ v ",
"v c s f Z ^ ..^ a x a a x m m q } / / Z Z ^ L c m b m K m 0 a m s s e.s v 3 ' f *.+.f L +.' ' s +.s +./ / / L v ^ L v c ",
"L Z N Z Z U ^ Z a x m a m K S x 3 v N s v ^ U s m K m m b b b m / U.*X^.U . Z *.f R ' q.U U d./ 3 3 e.v v v L L L L +.8.",
"Z L Z Z Z c c a a m m m m Y K S ..L v Z L v m Z m K K S b S S S v L {.L v ' q.Z U ' *.b./ / B.U v >.b.s +.+.v s 3 s s s ",
"v f N S b 9 g U m m q a Y K a m K E  .E M M F E M b b U E E S M ' : s 3 +.l Q L L =X'.* Q v U v k / b m 5.O.a a 0 4.i.P ",
"7 M #.j.r.E f 0 7 m K K m > 7 ( N K U P M f N P b N P F b f f 0 v / 7./ L s v v l Q.>.s / v ' *.N / B h ( S 7 m M #.,.S ",
"b F E ,.#.P b 0 a K K a m O.O.m S S P S P S N S E t.i.@.N M P U l } / U v +.L f / v s v v Q +.L m ( S h m x a Y U E P S ",
"} S f 0 9 g b M ( K a a m O.( > S M f M Z P M M N ,.4.P 0 M P N L / s v d -.L v 7.v Q s L B.-.: m S N m m K E O.E N M N ",
"P Z S M S N b g O.7 a O.m @ 7 S M f g b S U M 9 M  .E b 0 U } N / *./ 7.s s s } ' U / % 7.Q.-.l m x m S K ~ ( ( P N M P ",
"N P P S M F M 0 a a m a 7 <.h.S P P S S E E P M U E E N U ,. .E +.R ' d.7.+.L / U U f : d.D.v } K a m K m K K a M S S P ",
"M P S g 9 g N N m m m > a L.W.0 U E E } E E P N g 9 9 0 0 m f 0 R f Z +.B.b.>.v U v k f >.-.s v K a K ~ a x ( x M N S m ",
"9 N } E b M F b w.7 m O.m m  .S M N U P N b b f M b b b F f g f v L *.v >.' -.l v U / U v ' } s S a ( ( 7 m O.( M S P m ",
"@.( N b b b M g f 9 M M S - E 7 f } U 5.} s / } g M g f E P f b s v v v U f v *.s v q.f U f L : c U U - ^ ..- v m m m m ",
"E P M b M M M g M g M M S 7 } f 9 U U =...c U U f S f b U P 0 m k v v v Q v ' b.N.v v f U l Q s a c c - s 3 + ..Z K m m ",
"M f g f M M M b b g M f N 9 ,.S r N N =.#.N U N P E M b S N g M ' +.Q v U v v 7.@Xe.*.7.+.s v s s r Z m ..^ +.(.~ K K Z ",
"g g g M M M M f M b N g M 9 q.E f N f ....N U f R @.S g M M f N R *.v l v v v ' N.: U d.v % v v L / / s v s v J.~ K S S "
};
