/* XPM */
static char *space__1___1_1673447748[] = {
/* columns rows colors chars-per-pixel */
"60 60 183 2 ",
"   c None",
".  c #010101",
"X  c #0A0205",
"o  c #0C0B02",
"O  c #03080A",
"+  c #030709",
"@  c #14030B",
"#  c #1A040E",
"$  c #1A1703",
"%  c #020D11",
"&  c #1C0711",
"*  c #00141A",
"=  c #0D1415",
"-  c #141919",
";  c #181A1B",
":  c #211E06",
">  c #2D0A1A",
",  c #240714",
"<  c #320C1E",
"1  c #2E2900",
"2  c #262308",
"3  c #342E00",
"4  c #3D3600",
"5  c #36320D",
"6  c #363311",
"7  c #3E3A15",
"8  c #2F2D10",
"9  c #011821",
"0  c #191F21",
"q  c #1D2222",
"w  c #17353D",
"e  c #222629",
"r  c #242A2B",
"t  c #292D2E",
"y  c #252327",
"u  c #282F32",
"i  c #2C3538",
"p  c #33383A",
"a  c #433C01",
"s  c #423F16",
"d  c #470A28",
"f  c #4B112C",
"g  c #570B30",
"h  c #5A1636",
"j  c #660F3A",
"k  c #601739",
"l  c #4D4401",
"z  c #4C481A",
"x  c #554E0E",
"c  c #655A01",
"v  c #746701",
"b  c #726709",
"n  c #5F5921",
"m  c #6A6424",
"M  c #746E28",
"N  c #013648",
"B  c #013B50",
"V  c #7C1E4A",
"C  c #7D1447",
"Z  c #3D4648",
"A  c #3A4548",
"S  c #024C65",
"D  c #025E7F",
"F  c #326371",
"G  c #42494B",
"H  c #4B575A",
"J  c #51595B",
"K  c #59666A",
"L  c #5A6B72",
"P  c #426772",
"I  c #606A6D",
"U  c #6B7679",
"Y  c #6D787C",
"T  c #657277",
"R  c #7C6078",
"E  c #8B7B00",
"W  c #86124A",
"Q  c #831F4D",
"!  c #941653",
"~  c #A7165D",
"^  c #A9185F",
"/  c #85204F",
"(  c #862050",
")  c #892151",
"_  c #962259",
"`  c #BE196A",
"'  c #A82864",
"]  c #B42A6B",
"[  c #C31E6F",
"{  c #CF327B",
"}  c #D3327D",
"|  c #846177",
" . c #948402",
".. c #A99703",
"X. c #B39F00",
"o. c #BBA601",
"O. c #A99D24",
"+. c #A59C38",
"@. c #ACA33B",
"#. c #BBB03F",
"$. c #918932",
"%. c #CCB602",
"&. c #DBC301",
"*. c #E6CD06",
"=. c #EDD302",
"-. c #F6DC09",
";. c #F3DC15",
":. c #FAE218",
">. c #DDCC2B",
",. c #EDD826",
"<. c #FBE528",
"1. c #FCEA38",
"2. c #C3B842",
"3. c #D5C948",
"4. c #E9DC4F",
"5. c #FDED44",
"6. c #F9EA4B",
"7. c #F2E452",
"8. c #FAED53",
"9. c #FFF156",
"0. c #FFF458",
"q. c #347688",
"w. c #547E8B",
"e. c #737E82",
"r. c #697C83",
"t. c #DE3584",
"y. c #D73480",
"u. c #EC2385",
"i. c #E52381",
"p. c #F02487",
"a. c #E73789",
"s. c #EA388B",
"d. c #F4358F",
"f. c #FE3C97",
"g. c #FF3D99",
"h. c #6D818A",
"j. c #768488",
"k. c #79868A",
"l. c #7C8D92",
"z. c #7B939D",
"x. c #469DB4",
"c. c #4090A5",
"v. c #669AA8",
"b. c #6FA7B7",
"n. c #58ABC1",
"m. c #73B0C2",
"M. c #7AE3FF",
"N. c #808D91",
"B. c #8B999E",
"V. c #829094",
"C. c #8D9CA0",
"Z. c #88A3AD",
"A. c #86A0AA",
"S. c #99A9AE",
"D. c #97A7AB",
"F. c #8DA8B2",
"G. c #9CADB2",
"H. c #A5B5BA",
"J. c #C790B2",
"K. c #9DBCC8",
"L. c #AABCC1",
"P. c #C998C1",
"I. c #EAACD9",
"U. c #B9CCD2",
"Y. c #B7D8E4",
"T. c #81E5FF",
"R. c #9CEAFF",
"E. c #C0D4DA",
"W. c #C5D9DF",
"Q. c #C7DBE2",
"!. c #CBE1E8",
"~. c #D0E6EC",
"^. c #D3E9EF",
"/. c #C7EBF8",
"(. c #D5EBF1",
"). c #D8EEF5",
"_. c #CAF2FF",
"`. c #D5F3FD",
"'. c #DFF6FD",
"]. c #DCF9FF",
"[. c #D9F0F7",
"{. c #E0F7FE",
"}. c #E3FAFF",
/* pixels */
"                                                          . .                                                           ",
"                                                        . . . .                                                         ",
"                                                      . X v b o .                                                       ",
"                                                      . c ;.7.n .                                                       ",
"                                                    . $ %.1.0.3.2 .                                                     ",
"                                                    . v ;.8.9.9.M .                                                     ",
"                                                  . o o.<.9.9.0.2.o .                                                   ",
"                                                  . 1 *.1.9.9.9.4.8 .                                                   ",
"                                                  . l -.5.9.9.9.8.z .                                                   ",
"                                                  . c -.6.9.9.9.9.m .                                                   ",
"                            . .                   . c :.8.9.9.9.9.m .                   . .                             ",
"                            . .                   . l *.4.7.7.7.4.n .                   . .                             ",
"                          . . . .               . . o 3 5 5 5 6 5 o . .               . . . .                           ",
"                          . 4 1 .               . ; e e y y e r e r ; .               . 1 4 .                           ",
"                        . X .. .. .             . z./.!.~.~.~.~.~.^.B..             . .  ...X .                         ",
"                        . 4 =.>.2 .             . H l.N.N.N.N.N.l.V.J .             . 2 &.,.7 .                         ",
"                        . E :.5.M .             . . . . . . . . . . . .             . v -.5.$..                         ",
"                      . $ %.:.9.#.o .             . @ W ! ' ' ' _ # .             . X X.:.9.3.$ .                       ",
"                      . 4 =.1.9.4.2 .           . . # [ d.f.f.g.} & . .           . 2 &.<.9.7.s .                       ",
"                      . c -.5.0.8.z .         . . + . , d f f f > . . X .         . l =.1.9.9.m .                       ",
"                      . c -.5.0.9.z .         . T G.I q - - - - q K G.Y .         . l -.1.9.0.M .                       ",
"                      . 1 ..O.@.+.2 .         + F.}.[.Q.E.E.E.E.Q.'.}.G.+         . 2  .O.@.+.6 .                       ",
"                      . . . . X . . .         . Z.].{.}.}.}.}.}.}.'.}.S.X         . . . . . . . .                       ",
"                  . . . Z h.j.k.j.p . . . . . + Z.].'.}.[.V.V.[.'.}.}.S.. . . . . . i h.j.j.k.G . . .                   ",
"              . . X . . h._.`.[.{.K . X X X . + Z.].{.{.~.t t ~.{.'.}.S.X . X X . . K /.[.'.}.k.. . X . .               ",
"              . d ~ W X ; A Z Z G = @ ! ~ ^ g . Z.].{.{.~.t t ~.{.'.}.S.. g ~ ~ ! @ = A Z Z Z 0 X W ~ d .               ",
"              . W p.} C , & # # # > ! i.i.p.C . Z.].`.{.~.t t ~.{.'.}.S.. C u.u.u.! > # # # # , W } p.W .               ",
"              . ! f.f.f.a.t.t.t.a.a.f.f.f.f./ + Z.].].].~.t r ~.}.{.}.S.. / f.f.f.f.s.t.t.t.t.a.f.f.f.! .               ",
"              . V g.g.g.f.g.g.g.f.f.f.f.f.g.) . F.'.{.{.~.t t ~.{.'.}.S.. ) g.f.f.f.g.g.g.g.f.f.f.g.g.V .               ",
"              . > t.g.g.f.f.f.f.f.f.f.f.f.g.} R Y.`.{.{.~.t t ~.{.'.}.!.| } g.g.f.f.f.f.f.g.g.g.f.g.t.> .               ",
"              . . f { f.g.g.f.f.f.f.f.f.g.g.f.I._.`.{.{.~.t t ~.'.'.].}.I.g.f.f.f.f.f.f.g.f.f.g.g.} f . .               ",
"                . . & V } f.g.f.f.f.f.f.g.g.d.P._.`.{.{.^.p i ^.}.'.{.].J.d.f.g.f.f.g.f.f.g.f.} V & . .                 ",
"                  . . . # h ] s.g.g.f.f.f.g.' y K.].`.}.'.H.H.'.'.'.}.L.; _ g.g.g.g.g.g.s.] h # . . .                   ",
"                  . * N * . X < / { f.f.g.g.) . Z.].'.'.'.}.}.}.{.'.}.D.. / g.g.f.f.{ / < + . * N * .                   ",
"                  . 9 D S + . . . # f ' a.g.) . Z.].'.'.'.'.'.'.'.{.}.S.. ) g.a.' f # . . . O S D 9 .                   ",
"                  . O S B + .     . . X > V h + Z.].'.'.}.}.}.}.{.{.}.S.+ h V > . . .     . + B S O .                   ",
"                    . + + .           . . . . . Z.].{.{.W.G.S.W.{.'.}.S.X . . . .           . + + .                     ",
"                      . .                   . . Z.`.}.S.e . X e D.'.}.S.X .                   . .                       ",
"                                              X Z.].U.; % F P = ; U.}.S..                                               ",
"                                              + Z.].N.. q.M.R.w.. l.}.S.+                                               ",
"                                              . Z.].Y + x.T.R.b.X Y }.S.+                                               ",
"                                . . . . . . . + Z.].Y . x.T.R.b.. Y }.S.. . . . . . . .                                 ",
"                              . . @ @ @ @ @ X . Z.].Y . x.T.R.b.. U }.S.+ X # @ @ @ X . .                               ",
"                              . @ ^ [ [ [ [ j . Z.].Y . x.T.R.b.. U }.S.. j [ ` [ [ ^ @ .                               ",
"                              . X ] f.f.f.g./ . Z.}.j.. c.M.R.v.. Y }.S.. / g.f.f.f.] X .                               ",
"                                . , / y.f.g.) . A.].H.+ w n.m.i + H.}.S.. ( g.f.y./ , .                                 ",
"                                  . . & h ] / . z.].(.K . O + X K ).}.C.. Q ] h & . .                                   ",
"                                    . . + X # . h.`.}.(.B.J J B.(.}.}.k.. & X . . .                                     ",
"                                    . .   . . . K `.[.{.{.{.[.}.}.}.}.I . . .   . .                                     ",
"                                    . .       . A /.'.'.'.{.'.{.'.{.[.Z .       . .                                     ",
"                                              . 0 Y.].'.'.'.'.'.'.}.W.q .                                               ",
"                                              . O F.].'.'.{.{.'.'.}.H.X .                                               ",
"                                                . L `.'.{.'.'.'.{.}.T .                                                 ",
"                                                . e Y.'.[.'.{.{.{.!.r .                                                 ",
"                                                . . z.'.{.{.{.'.}.B.. .                                                 ",
"                                                  . u Y.{.{.{.}.!.t .                                                   ",
"                                                  . . L `.].{.[.U . .                                                   ",
"                                                    . O r.!.~.j.O X                                                     ",
"                                                      . X u t + .                                                       ",
"                                                        . . . .                                                         "
};
