/* XPM */
static char *_a1afc6b370d47f4ebbec428eca89ffbCYKbKzwRcaA39RUQ[] = {
/* columns rows colors chars-per-pixel */
"60 60 81 1 ",
"  c None",
". c #16274C",
"X c #17294D",
"o c #182A4F",
"O c #1A2C52",
"+ c #1F2F5A",
"@ c #1D3156",
"# c #1F3259",
"$ c #202F5C",
"% c #20345C",
"& c #22395D",
"* c #253464",
"= c #253E62",
"- c #283769",
"; c #2B3A6E",
": c #2E3D73",
"> c #313F78",
", c #264164",
"< c #284366",
"1 c #2A4669",
"2 c #2D4A6D",
"3 c #2F4D70",
"4 c #304F72",
"5 c #34427D",
"6 c #325275",
"7 c #355778",
"8 c #385C7E",
"9 c #364381",
"0 c #394685",
"q c #3B4788",
"w c #3E4A8C",
"e c #3A5F81",
"r c #3D6385",
"t c #434E94",
"y c #455098",
"u c #406789",
"i c #426B8C",
"p c #456F90",
"a c #467293",
"s c #487595",
"d c #4A7798",
"f c #4D7C9C",
"g c #4A55A1",
"h c #525BAD",
"j c #565EB4",
"k c #5A62BB",
"l c #5E65C1",
"z c #6168C6",
"x c #666CCF",
"c c #696ED2",
"v c #6A70D5",
"b c #6D73DB",
"n c #7075DF",
"m c #7377E3",
"M c #7579E7",
"N c #767AE9",
"B c #5283A3",
"V c #568AAA",
"C c #588DAC",
"Z c #5D94B3",
"A c #629DBB",
"S c #65A0BE",
"D c #66A3C1",
"F c #68A6C4",
"G c #6AA9C6",
"H c #6DAECB",
"J c #6FB1CE",
"K c #70B1CE",
"L c #72B4D1",
"P c #75BAD6",
"I c #76BCD8",
"U c #79BFDB",
"Y c #7AC1DD",
"T c #7DC6E1",
"R c #7FC9E4",
"E c #80CBE6",
"W c #82CEEA",
"Q c #86D4EF",
"! c #87D5F0",
"~ c #88D7F2",
"^ c #89D8F3",
/* pixels */
"                                                            ",
"                                                            ",
"                                                            ",
"                                                            ",
"                                                            ",
"                                                            ",
"                                                            ",
"                                                            ",
"                                                            ",
"                                                            ",
"                                                            ",
"                           XXXXX                            ",
"              oXOOXX   o..O#&===@@                          ",
"             X%wjjy*XOXO2pZHPYUPHDRI&X                      ",
"            X*kMNNNx:.6AT!!!!!!!!!QQSVP&                    ",
"           oOjNMMMMNz+p!!!QQQ!!!QQQ!!!R8XX                  ",
"           X-bNMMMMMm51TQQQQQQQQQQQQQQ!Ta+.                 ",
"           X5mMMMMNMNt&I~QQQQQQQQQQQQQQ!WB@X                ",
"            kNMMMMMMNq&U!QQQQQQQQQQQQQQQQQB@X               ",
"            wzNMMMMNv*7WQQQQ!QQQQQQQ!QQQQQQao               ",
"            .:xNNMNmwOZ!QQQ!QQQQQQQ!!QQQQQQY6X              ",
"             X;hxck5ouEQQQQQQQQQQQQQQQQQQQQQS@X             ",
"             oOO+$O@aTQQQQQQQQQQQQQQQQQQQQQQQr.Xoo          ",
"             @BBrrfGQQQQQQQQQQQQQQQQQQQQQQQQQS@XoooooO      ",
"            X2R!QQ~~QQQQQQQQQQQQQQQQQQQQQQQQ!T2X    ooo     ",
"            .a!QQQQQQQQQQQQQQQQQQQQQQQQQQQQQ!!aX     oo     ",
"            OZ!QQQQQQQQQQQQQQQQQQQQQ!QQQQ!QQQ~ZO    ooo     ",
"            @H!!QQQ!QQQQQQQ!QQQQQQQQQQQQQQQQ!!H#   oOo      ",
"           X&I!QQQQQQ!QQQQQ!!QQQQQQ!QQQQQQQQQ~U&Xooo        ",
"           X,Y!QQQQQQQQQQQQQQQQQQQQQQQQQQ!!!EGp@oo          ",
"          oX=Y!QQQQQQQQQQQQQQQQQQQQ!QQ!~!EHB4@OOo           ",
"        oooX&P!QQQQQQQQQQQQQQQQQQQ!!!QYDf3@O1dC&X           ",
"      ooo   @J!Q!QQQQQ!QQQQQQQ~~~QYKCr<oO1aSY~J@            ",
"     ooo    OZ~Q!!QQQQ!!!!!!QEISBr1@X&7BGYQ~~^ZO            ",
"     oo     .a!!!~!!!!QEYKABu2&oo&6sAPWQ^~QQQ^sX            ",
"     ooo    .2LPKGAZBp83&%oo%2uBSIWQ~~QQQQQQ~Y2.            ",
"      oooooooO&%@Oooo%&28sVSPEQ!^~QQQQQQQ!QQ~S@             ",
"          oooX@rdBCAFLUEQ!~!!!QQQQQQQQQQ!~~~Q8.             ",
"             o@S~~~~~!!QQQQQ!QQQQQQQQQQ~TABZC@o             ",
"              o2Y!QQQ!QQQQQQQQQQQQQQQQQF2OOO@o              ",
"               XiW!QQQQQQQQQQQQQQQQQQ!H&%glj5X              ",
"               oOBQQQQQQQQ!QQQQQQQQQQQu+kNNNb:X             ",
"                X@BW!!Q!QQQQQQQQQQQQ!T<>mMNmNhO             ",
"                 XOaY!QQQQQQQQQQ!QQQQY=9mNmNNjO             ",
"                  XX4AW~!QQQQQQQQQQ!!T2*cNMNNtO             ",
"                    X@eAT!~~!!!!!~!TAr@X0cmbh#X             ",
"                     X.O2aZHPYYUHZa2OXooX*5;OX              ",
"                        .XO@&,=&@O.X     X.XO               ",
"                            XXXX                            ",
"                                                            ",
"                                                            ",
"                                                            ",
"                                                            ",
"                                                            ",
"                                                            ",
"                                                            ",
"                                                            ",
"                                                            ",
"                                                            ",
"                                                            "
};
