/* XPM */
static char *star1673425172[] = {
/* columns rows colors chars-per-pixel */
"60 60 195 2 ",
"   c None",
".  c #7074DE",
"X  c #7174DE",
"o  c #7274DE",
"O  c #7275DE",
"+  c #7375DE",
"@  c #7375DF",
"#  c #7475DF",
"$  c #7476DF",
"%  c #7576DF",
"&  c #7676DF",
"*  c #7677DF",
"=  c #7777DF",
"-  c #7877DF",
";  c #7878DF",
":  c #7978E0",
">  c #7A79E0",
",  c #7B79E0",
"<  c #7C7AE0",
"1  c #7D7AE0",
"2  c #7E7BE0",
"3  c #7F7BE1",
"4  c #7F7CE1",
"5  c #807CE1",
"6  c #817CE1",
"7  c #827DE1",
"8  c #837DE1",
"9  c #837EE1",
"0  c #847EE1",
"q  c #847EE2",
"w  c #857EE2",
"e  c #857FE2",
"r  c #867FE2",
"t  c #877FE2",
"y  c #8780E2",
"u  c #8880E2",
"i  c #8980E2",
"p  c #8981E2",
"a  c #8A81E2",
"s  c #8A81E3",
"d  c #8B81E3",
"f  c #8B82E3",
"g  c #8C82E3",
"h  c #8D82E3",
"j  c #8D83E3",
"k  c #8E83E3",
"l  c #8F83E3",
"z  c #8F84E3",
"x  c #8F84E4",
"c  c #9084E4",
"v  c #9184E4",
"b  c #9185E4",
"n  c #9285E4",
"m  c #9385E4",
"M  c #9386E4",
"N  c #9486E4",
"B  c #9587E5",
"V  c #9687E5",
"C  c #9787E5",
"Z  c #9788E5",
"A  c #9888E5",
"S  c #9988E5",
"D  c #9989E5",
"F  c #9A89E5",
"G  c #9A89E6",
"H  c #9A8AE6",
"J  c #9B8AE6",
"K  c #9C8AE6",
"L  c #9C8BE6",
"P  c #9D8BE6",
"I  c #9E8BE6",
"U  c #9E8CE6",
"Y  c #9F8CE6",
"T  c #A08CE6",
"R  c #A08CE7",
"E  c #A08DE7",
"W  c #A18DE7",
"Q  c #A28DE7",
"!  c #A28EE7",
"~  c #A38EE7",
"^  c #A48EE7",
"/  c #A48FE7",
"(  c #A58FE7",
")  c #A58FE8",
"_  c #A68FE8",
"`  c #A690E8",
"'  c #A790E8",
"]  c #A890E8",
"[  c #A891E8",
"{  c #A991E8",
"}  c #AA91E8",
"|  c #AA92E8",
" . c #AB92E8",
".. c #AB92E9",
"X. c #AC92E9",
"o. c #AC93E9",
"O. c #AD93E9",
"+. c #AE93E9",
"@. c #AE94E9",
"#. c #AF94E9",
"$. c #B094E9",
"%. c #B095E9",
"&. c #B195E9",
"*. c #B195EA",
"=. c #B295EA",
"-. c #B296EA",
";. c #B396EA",
":. c #B496EA",
">. c #B497EA",
",. c #B597EA",
"<. c #B697EA",
"1. c #B698EA",
"2. c #B698EB",
"3. c #B798EB",
"4. c #B898EB",
"5. c #B899EB",
"6. c #B999EB",
"7. c #BA99EB",
"8. c #BA9AEB",
"9. c #BB9AEB",
"0. c #BC9AEB",
"q. c #BC9BEB",
"w. c #BC9BEC",
"e. c #BD9BEC",
"r. c #BD9CEC",
"t. c #BE9CEC",
"y. c #BF9CEC",
"u. c #BF9DEC",
"i. c #C09DEC",
"p. c #C19DEC",
"a. c #C19EED",
"s. c #C29EED",
"d. c #C39EED",
"f. c #C39FED",
"g. c #C49FED",
"h. c #C59FED",
"j. c #C5A0ED",
"k. c #C6A0ED",
"l. c #C7A0ED",
"z. c #C7A0EE",
"x. c #C7A1EE",
"c. c #C8A1EE",
"v. c #C9A1EE",
"b. c #C9A2EE",
"n. c #CAA2EE",
"m. c #CBA2EE",
"M. c #CBA3EE",
"N. c #CCA3EE",
"B. c #CCA3EF",
"V. c #CDA3EF",
"C. c #CDA4EF",
"Z. c #CEA4EF",
"A. c #CFA4EF",
"S. c #CFA5EF",
"D. c #D0A5EF",
"F. c #D1A5EF",
"G. c #D1A6EF",
"H. c #D2A6EF",
"J. c #D2A6F0",
"K. c #D3A6F0",
"L. c #D3A7F0",
"P. c #D4A7F0",
"I. c #D5A7F0",
"U. c #D5A8F0",
"Y. c #D6A8F0",
"T. c #D7A8F0",
"R. c #D7A9F0",
"E. c #D8A9F1",
"W. c #D9A9F1",
"Q. c #D9AAF1",
"!. c #DAAAF1",
"~. c #DBABF1",
"^. c #DCABF1",
"/. c #DDACF1",
"(. c #DDACF2",
"). c #DEACF2",
"_. c #DFADF2",
"`. c #E0ADF2",
"'. c #E0AEF2",
"]. c #E1AEF2",
"[. c #E2AEF2",
"{. c #E2AFF2",
"}. c #E3AFF2",
"|. c #E3AFF3",
" X c #E4AFF3",
".X c #E4B0F3",
"XX c #E5B0F3",
"oX c #E6B0F3",
"OX c #E6B1F3",
"+X c #E7B1F3",
"@X c #E8B1F3",
"#X c #E9B2F4",
"$X c #EAB2F4",
"%X c #EAB3F4",
"&X c #EBB3F4",
/* pixels */
"                                                        6     e                                                         ",
"                                                      6 e     u u                                                       ",
"                                                      e e     u u                                                       ",
"                                                    6 e e     g g z                                                     ",
"                                                    e t e     g c c                                                     ",
"                                                  e e t u     c c c n                                                   ",
"                                                e e e u u     c c c V V                                                 ",
"                                                e e u g g     c c N V A                                                 ",
"                                              e e t g g g     n m V A A A                                               ",
"                                              e t g g g c     n V A A A L                                               ",
"                                            y u u g g g n     V A A F L L R                                             ",
"                                          t u u g g c c n     V A F F L R R T                                           ",
"                                          u u g g z c c n     A A L L L ! ! `                                           ",
"            . . $ - $ , , 1 4 6 6 e e e   u g z g c c N n     A L L R R ! ! !   ] ] O.O.o.&.-.:.2.7.6.6.t.t.            ",
"          . . $ $ - ; , , 1 1 6 6 e e e     g c c c c N V     L L L T ! ! !     ] O.O.O.&.-.-.:.2.6.6.q.y.t.i.          ",
"            $ $ - - , 1 1 4 6 6 e e t u u   z c c c V V Z     L R L ! T ) )   ] O.O.O.&.-.&.5.:.6.6.6.t.t.t.            ",
"        . $     ; , 1 1 8 1 8 e e t t g g g   n n V Z Z         T ! ! ^ )   }  .o.$.$.$.-.-.5.5.5.y.y.t.    j.j.        ",
"        $ $ $       1 1 1 8 e e t t u g z g   n c V A A   L L   ! T ) ) ]    .o.o.$.$.>.-.5.5.5.7.7.      i.j.j.        ",
"        $ - $ , ,     6 6 e e e u u g g g n n   Z Z A   L L T T   ^ ) '   o.o.o.$.&.&.>.5.5.7.7.7.    h.h.z.j.z.        ",
"          - , , 1 1 6     6 u u g g g c n n n     A A   L L ! !   ) '     o.o.$.-.&.>.4.5.7.7.    i.i.i.h.j.z.          ",
"          , , 1 4 4 6 6       u g g g n n n V V   A   Y R ! ! ) )   ]   o.O.o.&.-.:.>.:.7.      i.i.d.z.j.z.v.          ",
"            1 1 4 6 6 e e u       g x n c V V A       Y R T ^ ^ ]       o.O.&.-.:.:.5.      t.i.i.d.i.z.v.v.            ",
"              6 6 6 e e u u u g                     T T T ^ ^ ) ] o.                    y.7.t.i.i.j.z.z.v.              ",
"              6 6 e e u u g g z n     V V A A L L Y T T ) ^ ) ] ] o.o.o.&.:.&.5.5.    y.y.y.i.i.f.j.z.v.v.              ",
"                e e e u h h g c n     V A A A L L T T ) ^ ) ] ] ] O.&.o.-.:.&.5.7.    y.i.i.i.h.z.j.j.M.                ",
"                y u u u h h c c n V   Z A L L L L ! ^ ^ ) ] } o.o.&.&.-.:.:.5.5.7.  y.t.i.i.h.h.j.v.M.B.                ",
"                  u u g x g n c n V     A I Y Y ! T ) ) ' } } O.$.o.-.:.:.5.7.5.    i.i.i.h.h.j.v.M.B.                  ",
"                  u g g g n n V V Z A   I I Y ! ! ) ) ] } } O.O.o.-.-.&.5.:.7.7.  t.i.i.i.h.j.j.v.B.B.                  ",
"                    g c n n V V Z A A L   Y T T / ' ' ] } ] O.&.-.-.-.5.5.7.7.  t.t.i.h.h.j.M.M.M.V.                    ",
"                                          ` ! ) ' ' ] o.o.O.&.&.-.&.5.:.5.7.t.                                          ",
"                                          T / / ' ' ] O.O.&.&.&.-.5.5.7.7.w.t.                                          ",
"                    n n V V A A L L L Y   T / ' ' } O.O.O.O.&.2.-.5.5.7.w.w.i.  d.i.z.z.M.M.V.A.A.D.                    ",
"                  n N N Z A A L L R R   ^ ^ ' ' } o.O.O.&.&.>.>.6.6.6.q.y.t.i.d.  z.z.v.v.B.C.C.J.J.I.                  ",
"                  n c Z A A L L L R     ^ ] } } ] O.O.&.&.&.2.2.2.6.6.t.i.i.i.h.    v.V.C.C.A.J.J.J.R.                  ",
"                V N V A A L L L L !   ) ) ] ]  .O.O.&.&.&.2.2.6.6.6.t.t.i.i.i.h.j.  v.v.A.D.D.J.I.I.R.R.                ",
"                c V A A F L L R !     ) ] ] o.O.O.&.&.>.2.2.6.6.q.y.t.i.i.h.h.h.v.    C.A.D.D.L.I.R.E.~.                ",
"              V V A A L L L R R !     ' ] ] o.o.O.&.&.2.2.2.6.6.y.y.i.i.h.h.h.M.M.    A.A.G.L.R.I.R.~.~.).              ",
"              V A A F L L R R ^                     >.2.2.6.6.t.t.t.                    G.L.R.R.R.~.~.^.[.              ",
"            V V A A L L T T     ' ' ] ] O.&.O.-.      7.6.6.t.t.t.      j.M.M.M.A.A.A.D.    R.R.~.~.).^.[.[.            ",
"          V V A A L L L       ^ ] ] o.o.o.&.&.-.  2.  7.6.t.t.t.t.  h.  j.M.M.M.A.A.J.J.I.      ~.).).[.[.`..X          ",
"          A A A L L L     ^ ^ ] ] o.o.o.$.$.-.    5.7.  y.y.i.i.  h.h.    M.A.A.A.A.J.L.R.R.R.    ).[.[.`..X.X          ",
"        Z A A L L     ) ^ ^ ' ] ] o.o.$.&.&.-.  5.5.7.  y.i.i.i.  j.j.M.  B.B.A.A.L.L.R.R.~.~.^.).    [..X.X.X&X        ",
"        A A A     T ) T T ' ] ] o.o.o.&.-.-.  5.5.7.7.y.  t.i.  j.M.j.M.B.  A.D.L.L.R.R.R.~.^.).[.[.`.    &X&X&X        ",
"        A       R T ^ ^ ' } } o.o.o.&.-.:.:.  7.7.7.y.t.        h.h.M.B.A.  D.J.L.R.R.R.~.).).).[.[..X X      &X        ",
"            L T T ' / ' ] } } o.O.&.-.-.5.  5.7.7.t.t.t.h.    h.M.M.M.V.C.J.  I.I.R.R.~.~._._.`.[. X X&X&X&X            ",
"          L T ! T T ' ' ] O.O.O.o.-.:.:.    7.7.t.t.i.i.i.    M.M.M.V.V.J.J.    R.R.~.).^._.`.`. X X.X&X&X&X&X          ",
"            ! T ` ' ' ] o.O.O.O.&.-.-.5.  7.7.t.t.i.i.j.h.    M.M.V.V.D.J.J.R.  R.~.~.)._.`.`..X.X&X.X&X&X&X            ",
"                                          7.t.t.i.i.i.h.j.    V.V.A.D.D.J.I.I.                                          ",
"                                          t.t.i.i.h.h.j.v.    V.A.A.D.L.R.R.R.                                          ",
"                                            i.i.i.h.j.v.v.    C.A.D.J.J.I.R.                                            ",
"                                              i.h.j.h.M.v.    C.G.J.J.R.R.                                              ",
"                                              j.j.h.h.M.C.    J.L.R.R.R.~.                                              ",
"                                                M.h.M.V.C.    J.J.I.R.~.                                                ",
"                                                j.M.M.V.C.    J.R.R.R.~.                                                ",
"                                                  M.V.A.J.    R.R.R.~.                                                  ",
"                                                    A.D.J.    R.R.~.                                                    ",
"                                                    J.J.J.    R.~.~.                                                    ",
"                                                      J.I.    ~.~.                                                      ",
"                                                      I.R.    ~.^.                                                      ",
"                                                        R.    ^.                                                        "
};
