/* XPM */
static char *c9f2e8659d8444f5c9b3e3f1ba26e2bcS5UoeCZGgJnYU6F0[] = {
/* columns rows colors chars-per-pixel */
"60 60 127 2 ",
"   c None",
".  c #16274C",
"X  c #17294D",
"o  c #182A4F",
"O  c #1A2C52",
"+  c #1F2F5A",
"@  c #1D3156",
"#  c #1F3259",
"$  c #202F5C",
"%  c #20345C",
"&  c #22395D",
"*  c #253464",
"=  c #253E62",
"-  c #283769",
";  c #2B3A6E",
":  c #2E3D73",
">  c #313F78",
",  c #264164",
"<  c #284366",
"1  c #2A4669",
"2  c #2D4A6D",
"3  c #2F4D70",
"4  c #304F72",
"5  c #34427D",
"6  c #325275",
"7  c #355778",
"8  c #385C7E",
"9  c #364381",
"0  c #394685",
"q  c #3B4788",
"w  c #3E4A8C",
"e  c #3A5F81",
"r  c #3D6385",
"t  c #434E94",
"y  c #455098",
"u  c #406789",
"i  c #426B8C",
"p  c #456F90",
"a  c #467293",
"s  c #487595",
"d  c #4A7798",
"f  c #4D7C9C",
"g  c #4A55A1",
"h  c #525BAD",
"j  c #565EB4",
"k  c #5A62BB",
"l  c #5E65C1",
"z  c #6168C6",
"x  c #666CCF",
"c  c #696ED2",
"v  c #6A70D5",
"b  c #6D73DB",
"n  c #7075DF",
"m  c #7377E3",
"M  c #7579E7",
"N  c #767AE9",
"B  c #5283A3",
"V  c #568AAA",
"C  c #588DAC",
"Z  c #5D94B3",
"A  c #629DBB",
"S  c #65A0BE",
"D  c #66A3C1",
"F  c #68A6C4",
"G  c #6AA9C6",
"H  c #6DAECB",
"J  c #6FB1CE",
"K  c #70B1CE",
"L  c #72B4D1",
"P  c #75BAD7",
"I  c #75BBD7",
"U  c #76BBD7",
"Y  c #74B9D5",
"T  c #75BAD7",
"R  c #76BBD8",
"E  c #76BCD8",
"W  c #77BCD9",
"Q  c #76BCD8",
"!  c #78BFDB",
"~  c #79BFDB",
"^  c #79C0DC",
"/  c #79C1DD",
"(  c #7AC1DD",
")  c #7BC2DE",
"_  c #7BC3DF",
"`  c #79C0DD",
"'  c #7BC4E0",
"]  c #7CC4E0",
"[  c #7DC6E1",
"{  c #7DC6E2",
"}  c #7DC7E2",
"|  c #7EC7E3",
" . c #7DC6E2",
".. c #7EC8E4",
"X. c #7FC9E4",
"o. c #7FC9E5",
"O. c #7EC8E4",
"+. c #80CAE6",
"@. c #80CBE6",
"#. c #80CBE7",
"$. c #81CCE7",
"%. c #81CDE8",
"&. c #82CEE9",
"*. c #82CEEA",
"=. c #83CFEA",
"-. c #83CFEB",
";. c #83D0EB",
":. c #84D0EC",
">. c #84D1EC",
",. c #84D2ED",
"<. c #85D2ED",
"1. c #85D2EE",
"2. c #85D3EE",
"3. c #86D3EE",
"4. c #86D4EF",
"5. c #86D5EF",
"6. c #84D1EC",
"7. c #86D5F0",
"8. c #87D5F0",
"9. c #87D6F0",
"0. c #87D6F1",
"q. c #87D5F0",
"w. c #88D6F1",
"e. c #88D7F1",
"r. c #88D7F2",
"t. c #88D7F2",
"y. c #89D8F3",
/* pixels */
"                                                                                                                        ",
"                                                                                                                        ",
"                                                                                                                        ",
"                                                                                                                        ",
"                                                                                                                        ",
"                                                                                                                        ",
"                                                                                                                        ",
"                                                                                                                        ",
"                                                                                                                        ",
"                                                                                                                        ",
"                                                                                                                        ",
"                                                        X . X X                                                         ",
"                              X X . .           X . O # & , , & # O . X                                                 ",
"                            O O : 5 * X X X X O 2 s Z H R ) ) U H Z a 1 O . X                                           ",
"                          X # h b m c 0 X @ r A [ 4.w.8.8.8.4.w.8.y.4.[ A r @ X                                         ",
"                          X t N N M M v * 2 ' y.4.4.4.4.4.4.4.4.4.4.4.8.w.%.S 3 X o                                     ",
"                          o k N M M M M 9 = ) 8.1.8.4.4.4.4.4.4.2.8.2.8.2.8.8.) a O X                                   ",
"                          . h M M M M m > < ] 8.8.1.4.4.4.4.4.4.8.2.8.2.8.2.2.8.%.B @ X                                 ",
"                          o 5 v N N N k O i 1.4.4.4.4.4.4.4.4.4.2.8.2.8.2.8.2.8.8.1.B O X                               ",
"                            X 5 j l g % = H 8.4.4.4.4.4.4.4.4.4.8.2.8.2.8.2.8.2.4.8.;.i X                               ",
"                            X O O O O 2 D q.4.4.4.4.4.4.4.4.4.4.2.8.2.8.4.4.4.8.4.4.8.) 3 X                             ",
"                          X # C Z V A ) q.q.8.1.4.4.4.4.4.4.4.4.7.8.8.2.8.8.e.e.y.8.8.8.A @ X                           ",
"                          X r 6.q.q.q.q.1.1.q.8.4.4.4.4.4.4.8.8.e.e.8.;...^ J F Z C B f r @ X o o o                     ",
"                          O S y.q.q.q.q.1.q.1.1.4.4.8.y.8.1...Y D V a 8 2 = # O O O O @ & & O o o o o o o o             ",
"                        . 2 O.4.8.2.8.8.8.8.y.y.8.%.E D B r 2 # o O @ = 3 e a B Z A G J Y L 2 X         o o o           ",
"                        . a 8.4.2.8.8.e.8.%.E Z s 6 & O O & 2 i B A J ) o.6.8.8.8.e.e.8.8.8.a X           o o           ",
"                        O Z y.4.8.8.' G f 7 & o @ 1 r B D I $.4.8.e.8.8.8.7.7.2.8.8.4.4.1.8.Z O         X O o           ",
"                        # J y._ S a 1 @ O < r C J ' 1.8.8.e.4.4.8.2.8.4.8.7.2.8.4.4.4.8.8.8.H @       o X o             ",
"                      X # Z s 1 o @ 3 f D ' 1.e.e.8.4.4.4.4.4.4.4.4.4.4.4.4.4.4.4.4.4.4.4.8.I & X o X O                 ",
"                      O o o @ 6 B H ..8.e.8.8.4.4.4.4.4.4.4.4.4.4.4.4.4.4.4.4.4.4.4.4.4.4.8.) = X o                     ",
"                    o X @ a G o.8.8.8.8.4.4.4.4.4.4.4.4.4.4.4.4.4.4.4.4.4.4.4.4.4.4.4.4.4.8.) , X                       ",
"                o o o X = E y.7.8.2.8.2.4.4.4.4.4.4.4.4.4.4.4.4.4.4.4.4.4.4.4.4.4.4.4.4.4.8.U & X                       ",
"            o o o       # J e.4.4.4.4.4.4.4.4.4.4.4.4.4.4.4.4.4.4.4.4.4.4.4.4.4.4.4.8.2.8.8.H @                         ",
"          o o o         o Z y.4.4.4.4.4.4.4.4.4.4.4.4.4.4.4.4.4.4.4.4.4.4.4.4.4.4.4.2.7.2.e.Z o                         ",
"          o o           . s 4.4.4.4.4.4.4.4.4.4.4.4.4.4.4.4.4.4.4.4.4.4.4.4.8.8.4.8.7.8.8.8.s X                         ",
"          o o o         . 2 O.e.4.4.4.4.4.4.4.4.4.4.4.4.4.4.4.4.4.4.4.4.4.4.4.8.8.8.6.2.8...2 .                         ",
"            o o X O X O X @ S 4.4.4.4.4.4.4.4.4.4.4.4.4.4.4.4.4.4.4.4.4.4.4.8.6.G f r r B B @                           ",
"                    X X o X r ;.4.4.4.4.4.4.4.4.4.4.4.4.4.4.4.4.4.4.4.4.4.8.' a # O % # o o o                           ",
"                          X @ S 8.4.4.4.4.4.4.4.4.4.4.4.4.4.4.4.4.4.4.4.8.o.r o 9 k x x h ; o                           ",
"                            . 6 ' 8.4.4.4.4.4.4.4.4.4.4.4.4.4.4.4.4.4.4.8.Z @ w n N N N N x : X                         ",
"                              O s 6.8.4.4.4.4.4.4.4.4.4.4.4.4.8.4.4.4.1.*.7 * c N M M M M N l w                         ",
"                              X O B 1.8.4.4.4.4.4.4.4.4.4.4.4.1.4.4.4.w.~ = q M N M M M M M N l                         ",
"                                X @ B 6.8.4.4.4.4.4.4.4.4.4.1.8.4.4.4.w.R & t N M M M M M M M 5 X                       ",
"                                  O O a ' 8.4.4.4.4.4.4.4.4.q.1.4.4.1.8.[ 1 5 M M M M M M M b - X                       ",
"                                    X X 8 ..e.8.4.4.4.4.q.q.q.1.4.4.4.w.w.i % z N M M M M N j O X                       ",
"                                        & Y V S 6.8.8.8.8.8.q.q.w.w.8.[ A 7 X : x N N N M k * X                         ",
"                                            X & I O.D H R ~ ~ U H Z a 2 O X O X * y j j w % X                           ",
"                                                    @ # = = = & # o . . X       X X O O X X                             ",
"                                                        X X X X X                                                       ",
"                                                                                                                        ",
"                                                                                                                        ",
"                                                                                                                        ",
"                                                                                                                        ",
"                                                                                                                        ",
"                                                                                                                        ",
"                                                                                                                        ",
"                                                                                                                        ",
"                                                                                                                        ",
"                                                                                                                        ",
"                                                                                                                        "
};
