/* XPM */
static char *bc79d648c7b749cbef8fdcdee66ade2010lm4iDTl1S8awJr[] = {
/* columns rows colors chars-per-pixel */
"60 60 81 1 ",
"  c None",
". c #16274C",
"X c #17294D",
"o c #182A4F",
"O c #1A2C52",
"+ c #1F2F5A",
"@ c #1D3156",
"# c #1F3259",
"$ c #202F5C",
"% c #20345C",
"& c #22395D",
"* c #253464",
"= c #253E62",
"- c #283769",
"; c #2B3A6E",
": c #2E3D73",
"> c #313F78",
", c #264164",
"< c #284366",
"1 c #2A4669",
"2 c #2D4A6D",
"3 c #2F4D70",
"4 c #304F72",
"5 c #34427D",
"6 c #325275",
"7 c #355778",
"8 c #385C7E",
"9 c #364381",
"0 c #394685",
"q c #3B4788",
"w c #3E4A8C",
"e c #3A5F81",
"r c #3D6385",
"t c #434E94",
"y c #455098",
"u c #406789",
"i c #426B8C",
"p c #456F90",
"a c #467293",
"s c #487595",
"d c #4A7798",
"f c #4D7C9C",
"g c #4A55A1",
"h c #525BAD",
"j c #565EB4",
"k c #5A62BB",
"l c #5E65C1",
"z c #6168C6",
"x c #666CCF",
"c c #696ED2",
"v c #6A70D5",
"b c #6D73DB",
"n c #7075DF",
"m c #7377E3",
"M c #7579E7",
"N c #767AE9",
"B c #5283A3",
"V c #568AAA",
"C c #588DAC",
"Z c #5D94B3",
"A c #629DBB",
"S c #65A0BE",
"D c #66A3C1",
"F c #68A6C4",
"G c #6AA9C6",
"H c #6DAECB",
"J c #6FB1CE",
"K c #70B1CE",
"L c #72B4D1",
"P c #75BAD6",
"I c #76BCD8",
"U c #79BFDB",
"Y c #7AC1DD",
"T c #7DC6E1",
"R c #7FC9E4",
"E c #80CBE6",
"W c #82CEEA",
"Q c #86D4EF",
"! c #87D5F0",
"~ c #88D7F2",
"^ c #89D8F3",
/* pixels */
"                                                            ",
"                                                            ",
"                                                            ",
"                                                            ",
"                                                            ",
"                        ooo                                 ",
"                       ooooo                                ",
"                       oo oo                                ",
"                       o   oo                               ",
"                       o    o                               ",
"                      oo    oo                              ",
"                      oo    XXXX          .Xo               ",
"                      ooo.O@&==&@O..   .wk5;Oo              ",
"                     XXO2aZHIYYIJZa2@oX:zMmbj*X             ",
"                    o@@&K!~~!!!!!~QRBo;vNMMMNk%X            ",
"                  XX2Au%P!QQQQQ!QQQ!BOhNMMMMMMwo            ",
"                 XOaY~d@K~QQQQQQQQQQr+xNNMMMNNjo            ",
"                X@BW!!BOG~QQQQQQQQQQr+cNNMMMMNjO            ",
"               XOBQQQ~CoA~QQQ!QQQQ!!fOkNMMMMMNyX            ",
"               oiWQQQ~AOZ!QQQQQQQQQ!G#5bNMMMNx*X            ",
"              X3Y~QQQ~FOB~QQQQQQQQQQQaXwvMNMz:o             ",
"             o@A~QQQQ~L@a!QQQQQQQQQ!!TuX*qt5#Xo             ",
"             .eWQQQQQ~Y&8QQQQQQQQQQQQQWZ7=&<p7.             ",
"             OA~QQQQQQR23EQQ!QQQQQQQQQ!!WIIT!AOo            ",
"            .2T!QQQQQQQ8=YQQQQQQQQQQ!QQQQ!!!!T2X            ",
"            .aQQQQQQQQQa@K~QQQQQQQQQQQQQQQQQQQa.            ",
"            oZ~!QQQQQQ~VoA~QQQQQQQQQQQQQQQQQQ!ZX            ",
"            @H!!QQQQQQ!DOB~QQQQQQQQQQQQQQQQQ!!H+X           ",
"           X&I!QQQQQQQ!P&uQQQQQQQ!QQQQQ!!QQQQ!P=X           ",
"           X,Y!QQQQ!QQ!R22EQQQQQQQQQQQQQQQQQQ!U=X           ",
"           X,Y!QQQQQQQQQr&I~Q!QQQQQQQQQQQQQQQ!Y=X           ",
"           o&P!QQQQQQQQ~BOS~QQQQQQQQQQQQQQQQ!!I&o           ",
"            @H~!QQQQQQQ~DOB~QQQQQQQQQQQQQQQQQ~J@            ",
"            OZ~QQQQQQQQ!P&rQQQQQQQ!QQQQQQQQQQ~S@            ",
"            Xa!QQQQQQQQQE6<TQQQQQQQQQQ!QQ!QQQQR             ",
"            .2T!QQQQQQQ!Qs+H~QQQQQQQQQQQQQQQQQI             ",
"             OA^!!!Q!!W!~AOC~QQQQQQQQQQQQQQQ!S&             ",
"             .rTUTQ!W!!!QP&rQQQQQQQ!QQQQQQQQ!VX             ",
"             XO2=,uH!!!!QW7<YQQQQQQQQQQQQQQ!EL              ",
"             OO*9>+=D!W!Q!fOF~QQQQQQQQQQQQQT8&              ",
"             o0cMmk#3T!!Q~GOf!QQQQ!QQQQQQ!QaX               ",
"            X*cNMMNgoA!!Q~T13E!QQQQQQQQQQQBOX               ",
"            .5mMMMNkOB^!QQQa@H!!QQQQQQQ!QB@X                ",
"            X;bNNNNjOZ~!QQ~DOf!!QQQQQQ~YaOX                 ",
"            XOhNNNv5oCQ~~Q!T13E!Q!Q!~WD6OX                  ",
"             X#tkh:OX@rST!~~sOG~!~~TSr@X                    ",
"              oXOoX  XXO2aZKZOaUHZa2OXX                     ",
"                        XXo#&OO&#O.Xoo                      ",
"                            XOoX    oo                      ",
"                              oo    oo                      ",
"                               o    o                       ",
"                               oo   O                       ",
"                                oo oo                       ",
"                                ooooo                       ",
"                                 ooo                        ",
"                                                            ",
"                                                            ",
"                                                            ",
"                                                            ",
"                                                            "
};
