/* XPM */
static char *f4c6205e4ac444b9aa95a4e04a6b5c3ewuS3SttP7PkRiL5p[] = {
/* columns rows colors chars-per-pixel */
"60 60 124 2 ",
"   c None",
".  c #16274C",
"X  c #17294D",
"o  c #182A4F",
"O  c #1A2C52",
"+  c #1F2F5A",
"@  c #1D3156",
"#  c #1F3259",
"$  c #202F5C",
"%  c #20345C",
"&  c #22395D",
"*  c #253464",
"=  c #253E62",
"-  c #283769",
";  c #2B3A6E",
":  c #2E3D73",
">  c #313F78",
",  c #264164",
"<  c #284366",
"1  c #2A4669",
"2  c #2D4A6D",
"3  c #2F4D70",
"4  c #304F72",
"5  c #34427D",
"6  c #325275",
"7  c #355778",
"8  c #385C7E",
"9  c #364381",
"0  c #394685",
"q  c #3B4788",
"w  c #3E4A8C",
"e  c #3A5F81",
"r  c #3D6385",
"t  c #434E94",
"y  c #455098",
"u  c #406789",
"i  c #426B8C",
"p  c #456F90",
"a  c #467293",
"s  c #487595",
"d  c #4A7798",
"f  c #4D7C9C",
"g  c #4A55A1",
"h  c #525BAD",
"j  c #565EB4",
"k  c #5A62BB",
"l  c #5E65C1",
"z  c #6168C6",
"x  c #666CCF",
"c  c #696ED2",
"v  c #6A70D5",
"b  c #6D73DB",
"n  c #7075DF",
"m  c #7377E3",
"M  c #7579E7",
"N  c #767AE9",
"B  c #5283A3",
"V  c #568AAA",
"C  c #588DAC",
"Z  c #5D94B3",
"A  c #629DBB",
"S  c #65A0BE",
"D  c #66A3C1",
"F  c #68A6C4",
"G  c #6AA9C6",
"H  c #6DAECB",
"J  c #6FB1CE",
"K  c #70B1CE",
"L  c #72B4D1",
"P  c #75BAD7",
"I  c #76BBD7",
"U  c #74B9D5",
"Y  c #76BBD7",
"T  c #76BBD8",
"R  c #76BCD8",
"E  c #77BCD9",
"W  c #78BFDB",
"Q  c #79BFDB",
"!  c #79C0DC",
"~  c #79C0DD",
"^  c #79C1DD",
"/  c #7AC1DD",
"(  c #7BC2DE",
")  c #7BC3DF",
"_  c #79C0DC",
"`  c #7BC4E0",
"'  c #7CC4E0",
"]  c #7DC6E1",
"[  c #7DC6E2",
"{  c #7DC7E2",
"}  c #7EC7E3",
"|  c #7EC8E4",
" . c #7FC9E4",
".. c #7FC9E5",
"X. c #7EC8E4",
"o. c #80CAE6",
"O. c #80CBE6",
"+. c #80CBE7",
"@. c #81CCE7",
"#. c #81CDE8",
"$. c #82CEE9",
"%. c #82CEEA",
"&. c #83CFEA",
"*. c #83CFEB",
"=. c #83D0EB",
"-. c #84D0EC",
";. c #84D1EC",
":. c #84D2ED",
">. c #85D2ED",
",. c #85D2EE",
"<. c #85D3EE",
"1. c #86D3EE",
"2. c #86D4EF",
"3. c #86D5EF",
"4. c #86D5F0",
"5. c #87D5F0",
"6. c #87D6F0",
"7. c #87D6F1",
"8. c #87D6F1",
"9. c #88D6F1",
"0. c #88D7F1",
"q. c #88D7F2",
"w. c #88D7F2",
"e. c #89D8F3",
/* pixels */
"                                                                                                                        ",
"                                                                                                                        ",
"                                                                                                                        ",
"                                                                                                                        ",
"                                                                                                                        ",
"                                                o o o                                                                   ",
"                                              o o o o o                                                                 ",
"                                              o o   o o                                                                 ",
"                                              o       o o                                                               ",
"                                              o         o                                                               ",
"                                            o o         o o                                                             ",
"                                            o o         X X O X                                                         ",
"                                            o O X X O # = O O & # O . X                                                 ",
"                                          X . O 2 s Z H T p O Z J Z a 2 O . X     X O O X X                             ",
"                                        X @ r A { 7.q.7.e.G O s q.q.7.{ S r @ O O : h j t # X                           ",
"                                    X o 6 S &.q.7.1.2.2.7.o.4 1 ' 7.1.2.7.1.C O > b N N N h O X                         ",
"                                  X O s ) q.1.2.2.2.2.2.2.7.B O S 0.2.2.2.e.Z O j N N M N b ; X                         ",
"                                X @ B =.7.2.2.2.2.2.2.2.2.7.H O a 2.2.2.2.q.B O l N M M N m 5 .                         ",
"                              X O B 2.7.2.2.2.2.2.2.2.2.2.2.o.4 2 ) q.2.2.e.A O g N M M N c * X                         ",
"                              X s =.7.2.2.2.2.2.2.2.2.2.2.2.7.f O G q.2.2.2.( 2 % k m M c 0 X                           ",
"                            & 8 ` 7.2.2.2.2.2.2.2.2.2.2.2.2.q.F O f e.2.2.2.2.F = O > 9 * O O                           ",
"                            U | 7.2.2.2.2.2.2.2.2.2.2.2.2.2.2.) , 7 #.2.2.2.2.2.H u < = 3 O O                           ",
"                          X V e.1.2.2.2.2.2.2.2.2.2.2.2.2.2.2.1.r & P 7.2.2.2.2.q.1.` Q { e .                           ",
"                          & S 6.2.2.2.2.2.2.2.2.2.2.2.2.2.2.2.7.V o A 6.2.2.2.2.5.5.5.5.q.A O                           ",
"                          R ;.2.2.2.2.2.2.2.2.2.2.2.2.2.2.2.2.7.H @ s 7.2.2.2.2.2.2.2.2.5.{ 2 .                         ",
"                          | 2.2.2.2.2.2.2.2.2.2.2.2.2.2.2.2.2.7.{ < 6 O.2.2.2.2.2.2.2.2.2.2.a o                         ",
"                        O S e.2.2.2.2.2.2.2.2.2.2.2.2.2.2.2.2.2.1.r & I 7.2.2.2.2.2.2.2.2.q.Z O                         ",
"                        # J 7.2.2.2.2.2.2.2.2.2.2.2.2.2.2.2.2.2.7.B O F e.2.2.2.2.2.2.2.2.q.H @                         ",
"                      X & P q.2.2.2.2.2.2.2.2.2.2.2.2.2.2.2.2.2.6.F o B q.2.2.2.2.2.2.2.2.5.I & o                       ",
"                      X = ) 2.2.2.2.2.2.2.2.2.2.2.2.2.2.2.2.2.2.7.I & r 1.2.2.2.2.2.2.2.2.5.) , X                       ",
"                      o = ) 2.2.2.2.2.2.2.2.2.2.2.2.2.2.2.2.2.2.7.O.2 2 } 2.2.2.2.2.2.2.2.5.) , X                       ",
"                      . & P 7.2.2.2.2.2.2.2.2.2.2.2.2.2.2.2.2.2.2.2.u # P q.2.2.2.2.2.2.2.2.P & X                       ",
"                      X @ H 7.2.2.2.2.2.2.2.2.2.2.2.2.2.2.2.2.2.2.q.B O F 2.2.2.2.2.2.2.2.2.H @                         ",
"                        O Z q.2.2.2.2.2.2.2.2.2.2.2.2.2.2.2.2.2.2.e.A o V e.2.2.2.2.2.2.2.e.Z O                         ",
"                        . a 7.1.2.2.2.2.2.2.2.2.2.2.2.2.2.2.2.2.2.2.J @ a 6.2.2.2.2.2.2.2.2.a .                         ",
"                        . 2 { 7.2.q.2.2.2.2.2.2.2.2.2.2.2.2.2.2.2.2.) = 8 >.2.2.2.2.2.2.2.` 2 X                         ",
"                        X O S 7.{ P W #.7.7.2.2.2.2.2.2.2.2.2.2.2.2.o.2 2 o.2.2.2.2.2.2.e.A O                           ",
"                          X 7 i 1 & = 7 Z o.7.1.2.2.2.2.2.2.2.2.2.2.1.8 & _ 2.2.2.2.2.1.#.r X                           ",
"                          o . $ 5 t q * X u { 2.2.2.2.2.2.2.2.2.2.2.q.a # K 2.2.2.2.2.q.A @ X                           ",
"                          o : z m N N v w o a 1.2.2.2.2.2.2.2.2.2.2.q.B @ F e.2.2.2.2.) 3 X                             ",
"                        X * x N M M M N n 5 @ G 7.2.2.2.2.2.2.2.2.2.2.Z o A e.2.2.q.#.p o                               ",
"                        X y N M M M M M N k O f 7.2.2.2.2.2.2.2.2.2.e.A o V e.2.1.1.B O X                               ",
"                        O j N N M M M M N v % r 1.1.2.2.2.2.2.2.2.2.e.G @ B 2.6.#.B @ o                                 ",
"                        o j N M M M M M N x + r 1.7.2.2.2.2.2.2.2.2.2.K @ s e.) i O o                                   ",
"                        X w M M M M M M N h X B 7.1.1.7.1.2.2.1.2.2.7.P % u A 2 X X                                     ",
"                        o % k N M M M N c ; O B X.7.7.7.7.1.7.7.2.e.7.K & @ @ X                                         ",
"                          X * j b m N z : X o @ 2 a Z H T ) ) R H Z a 2 O X X                                           ",
"                            o O ; 5 k q .       . X o # & = = & @ o . . o O                                             ",
"                              o X .                     X X X X         o o                                             ",
"                                                            o o         o o                                             ",
"                                                              o         o                                               ",
"                                                              o o       o                                               ",
"                                                                O o   o o                                               ",
"                                                                o o o o o                                               ",
"                                                                  o o o                                                 ",
"                                                                                                                        ",
"                                                                                                                        ",
"                                                                                                                        ",
"                                                                                                                        ",
"                                                                                                                        "
};
