/* XPM */
static char *f1673423959[] = {
/* columns rows colors chars-per-pixel */
"60 60 83 1 ",
"  c None",
". c #595E7F",
"X c #5F637C",
"o c #7F7E6F",
"O c #62667A",
"+ c #666A79",
"@ c #696C78",
"# c #737574",
"$ c #777872",
"% c #7B7C71",
"& c #807F6F",
"* c #F5E23F",
"= c #FAE63C",
"- c #FEEA3B",
"; c #A59F5F",
": c #ADA65C",
"> c #B3AA5A",
", c #BEB355",
"< c #83826D",
"1 c #8C8A69",
"2 c #928F67",
"3 c #908D68",
"4 c #959166",
"5 c #9B9663",
"6 c #9E9962",
"7 c #A29C60",
"8 c #C1B754",
"9 c #C9BD51",
"0 c #CEC14F",
"q c #D1C44E",
"w c #D7C94C",
"e c #DCCD49",
"r c #DFD048",
"t c #E3D346",
"y c #EBDA43",
"u c #F0DE41",
"i c #26328F",
"p c #323E8E",
"a c #263392",
"s c #283592",
"d c #2A3995",
"f c #2C3E99",
"g c #37428C",
"h c #3B458A",
"j c #3F4989",
"k c #2E429C",
"l c #30459F",
"z c #3047A0",
"x c #324BA3",
"c c #3551A7",
"v c #3653A9",
"b c #3857AD",
"n c #3959AE",
"m c #3B5DB1",
"M c #3D63B6",
"N c #3F66B8",
"B c #454D86",
"V c #414A88",
"C c #4E5583",
"Z c #505781",
"A c #565C80",
"S c #4067B9",
"D c #426CBD",
"F c #4470BF",
"G c #4674C3",
"H c #4778C6",
"J c #4879C7",
"K c #4A7CCA",
"L c #4C82CE",
"P c #4F87D2",
"I c #4F89D3",
"U c #518BD5",
"Y c #528FD8",
"T c #5493DB",
"R c #5798DF",
"E c #579AE0",
"W c #599EE3",
"Q c #5BA1E6",
"! c #5CA5E9",
"~ c #5FAAED",
"^ c #60ACEF",
"/ c #61AEF0",
"( c #64B4F5",
/* pixels */
"                       sssssssssdai                         ",
"                    ssssaaissaaaaasdss                      ",
"                 sssaadkcmSGGGDNnxddaiaa                    ",
"               ssssdcGT!^(((((((/^WLSldisd                  ",
"              ssakNT~((((((((((((((((!Lxssss                ",
"            ssafNR(((((((((((((((((((((^Lxsss               ",
"           sssxU((((((((((((((((((((((/((!Sdsa              ",
"          sssmQ((((((((((((((((((((((((((((Llas             ",
"         sssN^((((((((((((((((((((((((((((((Tlas            ",
"        sssS/((((((((((((((((((((((((((((((((Tkas           ",
"        ssm^((((((((((((((((((((((((((((((((((Ufss          ",
"       ssx!(((((/((((((/((((((//((/((((((((((((Hsss         ",
"      ssdU(((((((((((((((((((((((((((((((((((((~mas         ",
"      ssN(((((((((((((((((((((((((((((/(((((((((Rfss        ",
"     sskW((((((((((((((((((((((((((((((((((((((((Dss        ",
"     saD(((((((((((((((((((((((((((((((((((((((((Wkss       ",
"    aakE((((((((((((((((((((((((((((((((((((((((((Sas       ",
"    sam/(((((((((((((((((((((/((((((((((((((((((((Tfs       ",
"    ssL((((((((((/((((((((((((((((((((((((((((((((~xss      ",
"   sakQ(((/QWQQWW^^(((((((((((((((((((/^^W!WQQ!((((Das      ",
"   sav/((/mkkkffplcDY/((((((((((((((!KmxlfkkkfzT(((Uss      ",
"   saD(((!kassaassiadmE(((((((((((^JzaaiiaasasaG(((Wks      ",
"   saK(((!ka@;7773@haafK/((((((((QnaadZ$26561gaG(((~zss     ",
"   sdT(((Qka5-----*e1padK(((((((QcadA>y-----tBaH((((nas     ",
"   sfE(((!la2----=---8BadU/((((/nsd&y-------tVaG((((Sas     ",
"   sfQ(((Wka4---------9Vax^((((Ksa&*--------tVaG((((Gas     ",
"   sk!(((!ka4----------7dsK(((^zi.y---------tVaH((((Gas     ",
"   sk!(((~za<----=-----u.ax/((Kas:-=--------egaK((((Gas     ",
"   sk!(((/miA*----=---=-7afE((SaCy---=------>ssY((((Gis     ",
"   skW((((Gihq----------8daP(/ca#-------=--=$iz!((((Sss     ",
"   sdR((((Efs%=-=--=----eVaK(~za1----=-----9gaS(((((Mas     ",
"   ssI((((/Nsp>---------eVaJ(Wka2-=-------u+afR((((/cas     ",
"   ssG(((((Ekaj,--------tjiH(~ka2--------u$saF(((((!kss     ",
"   sam((((((Ifag4y------tjaH(!la4------=0Xsan/(((((Tfs      ",
"   ssz!((((((PfasC2,weee8haH(~ka<rrrr0:#gaan!((((((Has      ",
"    sdU(((((((TcsaidghghgdsG(!lspjhjggsaakG~((((((/mas      ",
"    saD(/((((((~LvkdssssissL(^xssasaassxNR((((((((Wfss      ",
"    ssz!((((((((((WULKKKKKP(((RKHJKKKLT~((((((((((Jss       ",
"     ssL(((((((((((((((((((((((((((((((((((((((((~cas       ",
"     sav/((((((((((((((((((((((((((((((((((((((((Pds        ",
"      sdI(((((((((((((((((((((((((((((((((((((((/bas        ",
"      sab/(((((((((/((((((((((((((((((((((((((((Pdss        ",
"       ssK(((((((((((((((((((((((((((((((((((((~css         ",
"       ssxQ((((((((((((((((((((((((((((((((((((Hss          ",
"        ssN((((((((((/((((((((((((((((((((((((Rkss          ",
"        ssdP(((((((((((((((((((((((((((((((((~nas           ",
"         sszW((((((((((((((((((((((((((((((((Nsas           ",
"          sab~((((((((((((((((((((((((((((((Ikss            ",
"          sssN~((((((((((((^!~/((((((((((((Tkss             ",
"           sssD(((((((((!LMxzzbDT(((((((((Exss              ",
"            sssF(((((((QcsiiaiiadJ(((((((Exss               ",
"             ssdN/(((((EfdxNGDbfiM((((((Tzss                ",
"              sssm!(((((UU~((((EL!(((((Ikss                 ",
"               ssscR(((((((((((((((((~Nkss                  ",
"                ssafH~((((((((((((((Rndss                   ",
"                  sascU/((((((((((QNksss                    ",
"                   sssfvLQ/((((^RNlasss                     ",
"                     saasknDGFMxdisds                       ",
"                       sssaaaaissds                         ",
"                         sssssss                            "
};
