/* XPM */
static char *black_hole1673427171[] = {
/* columns rows colors chars-per-pixel */
"60 60 188 2 ",
"   c None",
".  c #992D7E",
"X  c #99317D",
"o  c #9F754A",
"O  c #9A755E",
"+  c #A57857",
"@  c #AF4A68",
"#  c #B15260",
"$  c #B5417F",
"%  c #B95073",
"&  c #8C6A6B",
"*  c #9B7261",
"=  c #947064",
"-  c #836372",
";  c #C36A4D",
":  c #CB685B",
">  c #D17152",
",  c #C76162",
"<  c #BE913F",
"1  c #B68A37",
"2  c #F4BB0E",
"3  c #FABB0D",
"4  c #E8A81B",
"5  c #F4B313",
"6  c #F9B710",
"7  c #EBB416",
"8  c #D39E2E",
"9  c #D9883A",
"0  c #C79337",
"q  c #E1962A",
"w  c #E39B29",
"e  c #DEA923",
"r  c #D4A22A",
"t  c #FFC404",
"y  c #B68B45",
"u  c #DA8243",
"i  c #2B1D96",
"p  c #2C1E9B",
"a  c #271B98",
"s  c #341C96",
"d  c #3B1B96",
"f  c #351D99",
"g  c #3C1C9A",
"h  c #3F2C89",
"j  c #342490",
"k  c #2D1FA0",
"l  c #3A1EA1",
"z  c #2E20A4",
"x  c #2F21A9",
"c  c #3520A6",
"v  c #3022AD",
"b  c #3C27AC",
"n  c #2F23BC",
"m  c #3324B5",
"M  c #3C23B6",
"N  c #3528B6",
"B  c #3C2CB1",
"V  c #3325B9",
"C  c #3924B9",
"Z  c #382BBB",
"A  c #3628BA",
"S  c #3F32BD",
"D  c #441996",
"F  c #4B1896",
"G  c #431C9B",
"H  c #4C1A9C",
"J  c #4F1796",
"K  c #531796",
"L  c #5D1596",
"P  c #541A9D",
"I  c #5A199E",
"U  c #5C1698",
"Y  c #740E94",
"T  c #641496",
"R  c #6B1396",
"E  c #66169F",
"W  c #731296",
"Q  c #7C1196",
"!  c #74139C",
"~  c #7C119A",
"^  c #442F87",
"/  c #583182",
"(  c #6C3386",
")  c #643F97",
"_  c #702594",
"`  c #4D1EAD",
"'  c #4A1EAA",
"]  c #561AA1",
"[  c #541CAB",
"{  c #591BA9",
"}  c #5F19A6",
"|  c #491FB2",
" . c #541FB3",
".. c #5C1EB3",
"X. c #6617A3",
"o. c #6C16A1",
"O. c #6418A3",
"+. c #6A18A1",
"@. c #6D1DAF",
"#. c #671CAE",
"$. c #7217A3",
"%. c #7A17A4",
"&. c #7519AC",
"*. c #7D19AD",
"=. c #7F17AB",
"-. c #631DB2",
";. c #6B1CB1",
":. c #731AB0",
">. c #4B2EA8",
",. c #5D26AE",
"<. c #4233AB",
"1. c #4D3AA1",
"2. c #5634A4",
"3. c #4322B4",
"4. c #4A21B6",
"5. c #4726BD",
"6. c #5221B4",
"7. c #4539B9",
"8. c #6629A8",
"9. c #7A21A9",
"0. c #733AAC",
"q. c #57419A",
"w. c #634B8E",
"e. c #684F8A",
"r. c #6C5187",
"t. c #745780",
"y. c #674790",
"u. c #4C40A7",
"i. c #5D4DAD",
"p. c #5726C0",
"a. c #6327C3",
"s. c #7627C7",
"d. c #5D53C8",
"f. c #6E4FC1",
"g. c #665BCB",
"h. c #766DD0",
"j. c #7F76D3",
"k. c #850F96",
"l. c #880F97",
"z. c #840D98",
"x. c #821096",
"c. c #831098",
"v. c #8B119B",
"b. c #85199A",
"n. c #972981",
"m. c #902089",
"M. c #9E358F",
"N. c #A82A96",
"B. c #A52998",
"V. c #AD3884",
"C. c #920FA5",
"Z. c #8316A6",
"A. c #8A15A7",
"S. c #8517AD",
"D. c #8C16AA",
"F. c #8219AD",
"G. c #8E18AF",
"H. c #9413A4",
"J. c #9F1AA5",
"K. c #9415AA",
"L. c #9B14AA",
"P. c #9D18AD",
"I. c #A019A8",
"U. c #A51AB3",
"Y. c #AE1EBC",
"T. c #A417B1",
"R. c #8725AB",
"E. c #9833A6",
"W. c #8C25BF",
"Q. c #952BA2",
"!. c #A54FB2",
"~. c #B147BD",
"^. c #AD5CB8",
"/. c #B31FC1",
"(. c #9628CD",
"). c #B721C4",
"_. c #BD24CB",
"`. c #BB5FC5",
"'. c #857DD5",
"]. c #BE7FC7",
"[. c #B2ADE5",
"{. c #ABA6E3",
"}. c #D79FDC",
"|. c #C3BFEA",
" X c #CCC9EE",
".X c #D7D4EE",
"XX c #E8D5EF",
"oX c #F2E6F4",
/* pixels */
"                                                                  V V                                                   ",
"                                                          V V V V                                                       ",
"                                                      V V V V                                                           ",
"                                                 .A A V 3.:.K.L.L.                                                      ",
"                                        L.L.S.6.V V n  .S.L.L.L.L.L.L.L.L.                                              ",
"                                  L.L.L.L.:.M V V C ;.C.L.L.L.L.L.L.L.L.L.L.L.L.                                        ",
"                              L.L.L.L.K.-.C V V C ;.L.L.L.`.`.L.L.L.K.K.K.A.A.A.D.A.                                    ",
"                          L.L.L.L.L.K...V V V V ;.L.L.L.L.}.XXR.o.I H g g f f j g G G s                                 ",
"                        L.L.L.L.L.K.8.B V V V @.L.L.L.L.Z.0.i.s i i a i i i i i i i i i i i i                           ",
"                    H.L.L.L./.Y.L.@.O & V V ..L.L.L.Z.P s i i a i i i i i a i i i i p s i i i a i i                     ",
"              t   z.v.L.L.L._./.F.O 3 2 & 4.K.L.A.I s i i i a i i i a p s H P E $.%.%.%.%.$.X.P i i i                   ",
"              t 4 n.C.L.L.L.T.G.4.e.e r w.F.L.$.g i i i i i i a i d I $.A.K.L.L.L.L.T.T.L.P.L.L.      i i               ",
"            t t t q V.L.L.L.K...V n r.w. .K.} i i i i i i a i G o.A.L.L.L.L.L.L.L.L.).Y.L.L.L.L.L.                      ",
"        t t t t t t 5 , I.L.*.C V V N M *.] a i i i i i i s ' @.;.,.....-.-.9.M.K.K.L.L.L.L.L.J.L.L.                    ",
"          4 t t t 5 : N.J.K. .V V V V  .H i i i i i p x v m C V V V V V V N - r ) 6.;.S.K.L.J., B.L.L.                  ",
"          h 1 t 5 @ L.L.L.=.C V V V V g i i i i k V V V C V V V V V V V V t.7 t 0 1.V C 6.:.% 6 : L.L.L.                ",
"        d a / 4 ; l.K.L.L...V V V V v p i i z N V V V V V V V V V V V V V B = e w.N V V <.= 5 t 3 > B.L.                ",
"        d i F # n.k.K.L.D.M V V V V z i z m N n V V V V V V V V V V V V V V B w.V V V V q.y t t t w V.L.L.              ",
"      W s i D k.k.k.H.L.*.V V Z 7.V p v V V V V V V V V V V V V V V V V V V V V V V V V V B + t y 2.:.K.L.L.            ",
"      W i i D k.k.k.H.L...V V '. X7.v V V V V V V V V V V V V V V V V V V V V V m c [ 6.3.V <.y q.N V ;.P.L.            ",
"    l.R i i d Q k.v.H.K.4.V V h.[.p.V V V V V V V V V V V V V V V V V V V V V V V v f O.S.*.6.2.Z V V V ,.K.            ",
"    l.R i i d Q l.Y.U.D.M V V V N n V V V V V V V V V V V N V V V N V V V V V V V V x i P K.L.S.,.C V V V -.K.          ",
"  k.l.T i i i W k.v.v.F.C V V V n N N n V V V V V V x x z z z z v V V V V V V V V V Z <.i H D.L.L.*. .V V V -.          ",
"  k.x.R i i i T k.k.k.&.V V V V N n n N V V V V v z i i i i i i i p v V V V V V V V j..Xu.a H H.L.L.K.;.C V C 6.        ",
"  k.l.R s i i F k.k.k.X.V V V V V V V V V V N v p i i i i i i i i i p c V V V V V V g.{.<.i i I K.L.L.L.=.4.V V         ",
"  k.x.W s i i d Q k.k.O.V V V V V V V V V V x i i i i i i i i i i i i i z V V V V V V N V i i i o.L.L.L.L.S.4.V V       ",
"k.k.k.Q s i i i R k.k.O.V V V V V V V V V V p i i i i i i i i i i i i i i v V V V V V V V x i i f =.L.Y./.L.S.4.V       ",
"k.k.k.x.D i i i F k.k.X.V V V V V V V V N z i i i i i i i i i i i i i i i p V V V V V V V V p i i H K./._.T.L.S.3.V     ",
"k.x.k.k.K i i i s W k.+.V V V V V V V V m i i i i i i i i i i i i i i i i i v V V V V V V V z i i i $.L.L.L.L.L.:.V     ",
"k.k.k.k.T i i i i K k.! C V V V V V V V v i i i i i i i i i i i i i i i i i z V V V V V V V v i i i G K.L.L.L.L.L.  V   ",
"c.k.k.k.Q d i i i s W ~ M V V V V V V V x i i i i i i i i i i i i i i i i i z V V V V V V V V p i i i $.L.L.L.L.L.  V   ",
"} k.x.v.c.F i i i i D x.3.V V V V V V V v i i i i i i i i i i i i i i i i i p V V V V V V V V p i i i H L.L.L.L.L.      ",
"C ! k.Y.L.R i i i i i L { V V V V V V V x i i i i i i i i i i i i i i i i i z V V V V V V V V c i i i s Z.L.L.L.L.      ",
"V ` ~ H.v.x.D i i i i s ] V V V V V V V m i i i i i i i i i i i i i i i i i c V V V V V V V V 6.g i i i +.L.L.L.L.      ",
"C V { x.k.k.T s i i i i s m V V V V V V V i i i i i i i i i i i i i i i i p v V V V V V V V V  .X.i i a H L.L.L.        ",
"{ V C O.k.k.x.D i i i i i v V V V V V V V z i i i i i i i i i i i i i i i p V V V V a.s.V V V 6.A.g i i g K.L.L.        ",
"~ 3.V C +.k.k.W s i i i i p V V V V V V N V p i i i i i i i i i i i i i p v V V N n p.a.V V V | B.( a i f Z.L.L.        ",
"  +.V V C X.k.k.T i i i i i v V V V V V V V v p i i i i i i i i i i i i x V V V V V V n V V V 2.9 0 ^ i i %.L.H.        ",
"  x.[ V V m O.z.k.J i i i i p V V V V V V V V v p i i i i i i i i i p x V V V V V V V V V V B + t t o j i o.H.l.        ",
"  k.~ 3.V V V ,.~ Q F i i i i v V V V V V V V V V z p i i i i i j k V V V V V V V V V V V V n 8.u u _ i i L l.          ",
"  k.k.o.C V g. Xf.+.Y G i i i f V V V V V V V V V V V x z c v v m V V V V V V V V V V V V V n ..N.N.$.i i L k.          ",
"    k.k.X.m d.|.d.V [ E D i i i z V V V V V V V V V V V V V V V V V V V V V V V V V m V V V C @.H.H.Y i a L k.          ",
"    k.k.k.O.C Z V V V m ` l i i i x V V V V V V V V V V V V V V V V V V V V V V V v b V V C C o.l.x.Q s i L             ",
"      k.k.k.X.C V V V V V C V v z p c V V V V V V V V V V V V V V V V V V V V V x g ` V V V M ~ z.x.x.d i L             ",
"      k.k.k.k.o.3.V V V 5.(.p.n V V V V V V V V V V V V V V V V V V V V V V V v p L ` V V V ` k.k.k.k.D i               ",
"        k.k.k.k.~ [ m V C p.N n V V V V V V V V V V V V V V V V V V V V V m k i F ~ M V V V X.k.x.H.v.D i               ",
"        k.k.k.k.k.c.+.3.V V n N V V V V V V V V V V V V V V V V V V V m v p i d Y ! m V V M ~ k.k.Y.P.D i               ",
"          k.k.k.k.k.x.Q O.3.V n V V V N V V V V V V V V V V V V V m v p i i s R k.{ V V V { k.k.k.c.x.D i               ",
"            k.k.k.k.k.k.k.~ o.[ 3.V <.- M V V V V V V V V V V v c i i i i s T x.c.3.V V C ! k.k.k.k.Q s                 ",
"            k.k.k.k.k.k.v.k.l.k.c._ + 2 O >.| M M M | ` { ] f i i i i i s T k.k.o.m V V { k.k.k.k.k.  i                 ",
"              k.k.k.k.v.).U.c.k.k.X w t 8 n.Y ~ Q Q x.Q T d i i i i i d R k.k.x.` V V 3.~ k.k.k.k.    i                 ",
"                k.k.k.v.Y.P.x.l.k.z.. 9 . k.k.k.k.k.W D i i i i i i G Y k.k.k.$.V V V X.k.k.k.k.                        ",
"                  k.k.k.l.k.k.k.k.k.x.m.l.k.k.k.! F.j i i i i i s L b.^.E.k.z.' V V [ x.k.k.k.                          ",
"                      k.k.k.k.l.k.k.l.k.k.Y L D G W.' i i a s K Y k.E.oX].k.O.V V | ~ k.k.k.                            ",
"                        Q Q W W W R L F D s i i i p i s d K W k.k.k.v.!.Q.W M n 3.~ k.k.k.                              ",
"                          d d d s i i i a i i i s D K R Q k.k.k.k.k.k.Q ~ | V | ~ x.k.                                  ",
"                              R R T L L L T T W Q x.k.k.k.k.k.x.k.k.k.x.[ V ` ~ x.k.                                    ",
"                                  l.k.k.l.x.k.k.k.x.k.k.k.k.k.k.k.k.c.{ C [ ~                                           ",
"                                        k.k.k.k.k.k.k.k.k.k.k.k.k.c.{ V [                                               ",
"                                                k.k.k.k.k.k.k.k.k.                                                      "
};
