/* XPM */
static char *space__1___2_1673447822[] = {
/* columns rows colors chars-per-pixel */
"60 60 183 2 ",
"   c None",
".  c #010101",
"X  c #0A0205",
"o  c #0C0B02",
"O  c #03080A",
"+  c #030709",
"@  c #14030B",
"#  c #1A040E",
"$  c #1A1703",
"%  c #020D11",
"&  c #1C0711",
"*  c #00141A",
"=  c #0D1415",
"-  c #141919",
";  c #181A1B",
":  c #211E06",
">  c #2D0A1A",
",  c #240714",
"<  c #320C1E",
"1  c #2E2900",
"2  c #262308",
"3  c #342E00",
"4  c #3D3600",
"5  c #36320D",
"6  c #363311",
"7  c #3E3A15",
"8  c #2F2D10",
"9  c #011821",
"0  c #191F21",
"q  c #1D2222",
"w  c #17353D",
"e  c #222629",
"r  c #242A2B",
"t  c #292D2E",
"y  c #252327",
"u  c #282F32",
"i  c #2C3538",
"p  c #33383A",
"a  c #433C01",
"s  c #423F16",
"d  c #470A28",
"f  c #4B112C",
"g  c #570B30",
"h  c #5A1636",
"j  c #660F3A",
"k  c #601739",
"l  c #4D4401",
"z  c #4C481A",
"x  c #554E0E",
"c  c #655A01",
"v  c #746701",
"b  c #726709",
"n  c #5F5921",
"m  c #6A6424",
"M  c #746E28",
"N  c #013648",
"B  c #013B50",
"V  c #7C1E4A",
"C  c #7D1447",
"Z  c #3D4648",
"A  c #3A4548",
"S  c #024C65",
"D  c #025E7F",
"F  c #326371",
"G  c #42494B",
"H  c #4B575A",
"J  c #51595B",
"K  c #59666A",
"L  c #5A6B72",
"P  c #426772",
"I  c #606A6D",
"U  c #6B7679",
"Y  c #6D787C",
"T  c #657277",
"R  c #7C6078",
"E  c #8B7B00",
"W  c #86124A",
"Q  c #831F4D",
"!  c #941653",
"~  c #A7165D",
"^  c #A9185F",
"/  c #85204F",
"(  c #862050",
")  c #892151",
"_  c #962259",
"`  c #BE196A",
"'  c #A82864",
"]  c #B42A6B",
"[  c #C31E6F",
"{  c #CF327B",
"}  c #D3327D",
"|  c #846177",
" . c #948402",
".. c #A99703",
"X. c #B39F00",
"o. c #BBA601",
"O. c #A99D24",
"+. c #A59C38",
"@. c #ACA33B",
"#. c #BBB03F",
"$. c #918932",
"%. c #CCB602",
"&. c #DBC301",
"*. c #E6CD06",
"=. c #EDD302",
"-. c #F6DC09",
";. c #F3DC15",
":. c #FAE218",
">. c #DDCC2B",
",. c #EDD826",
"<. c #FBE528",
"1. c #FCEA38",
"2. c #C3B842",
"3. c #D5C948",
"4. c #E9DC4F",
"5. c #FDED44",
"6. c #F9EA4B",
"7. c #F2E452",
"8. c #FAED53",
"9. c #FFF156",
"0. c #FFF458",
"q. c #347688",
"w. c #547E8B",
"e. c #737E82",
"r. c #697C83",
"t. c #DE3584",
"y. c #D73480",
"u. c #EC2385",
"i. c #E52381",
"p. c #F02487",
"a. c #E73789",
"s. c #EA388B",
"d. c #F4358F",
"f. c #FE3C97",
"g. c #FF3D99",
"h. c #6D818A",
"j. c #768488",
"k. c #79868A",
"l. c #7C8D92",
"z. c #7B939D",
"x. c #469DB4",
"c. c #4090A5",
"v. c #669AA8",
"b. c #6FA7B7",
"n. c #58ABC1",
"m. c #73B0C2",
"M. c #7AE3FF",
"N. c #808D91",
"B. c #8B999E",
"V. c #829094",
"C. c #8D9CA0",
"Z. c #88A3AD",
"A. c #86A0AA",
"S. c #99A9AE",
"D. c #97A7AB",
"F. c #8DA8B2",
"G. c #9CADB2",
"H. c #A5B5BA",
"J. c #C790B2",
"K. c #9DBCC8",
"L. c #AABCC1",
"P. c #C998C1",
"I. c #EAACD9",
"U. c #B9CCD2",
"Y. c #B7D8E4",
"T. c #81E5FF",
"R. c #9CEAFF",
"E. c #C0D4DA",
"W. c #C5D9DF",
"Q. c #C7DBE2",
"!. c #CBE1E8",
"~. c #D0E6EC",
"^. c #D3E9EF",
"/. c #C7EBF8",
"(. c #D5EBF1",
"). c #D8EEF5",
"_. c #CAF2FF",
"`. c #D5F3FD",
"'. c #DFF6FD",
"]. c #DCF9FF",
"[. c #D9F0F7",
"{. c #E0F7FE",
"}. c #E3FAFF",
/* pixels */
"                                                                                                                        ",
"                                                                                                                        ",
"                                                                                                                        ",
"                                                                                                                        ",
"                                                                                                                        ",
"                                                                                                                        ",
"                                                                                                                        ",
"                                                          . . . . . . .                                                 ",
"                                                        . . > V ! W d .                                                 ",
"                                                . . . . . f t.g.f.u.~ X .                                               ",
"                                              . O 9 * . & } g.g.f.i.W X .                                               ",
"                                            . + S D N . V g.f.f.f.C X . . . . . . . .                                   ",
"                                            . + B S * & } f.f.g.a., 0 r.A . 3 v c 4 $ . . .                             ",
"                                              . O O . h f.f.f.g.t.# A _.h.. ..-.-.=.%.E 4 o . .                         ",
"                                                . . X ' g.g.f.g.t.# G `.j.. O.5.5.1.<.-.*...4 . . .                     ",
"                              . . .               . < s.g.f.g.f.t.# Z '.j.. @.0.8.9.9.5.>. .1 . . .                     ",
"                            . X @ . .             . / g.f.f.f.g.a.@ Z {.k.. +.8.8.4.#.M 2 . . .                         ",
"                          . & ] ^ @ .           . @ { g.f.f.f.g.s.> = K p . 2 z z 2 O . . .                             ",
"                    . . . . ( g.[ @ .           . h f.f.f.g.f.f.d.! @ . . . . . . . .                                   ",
"                    . . . & y.f.[ @ .         . . ' f.f.g.f.g.g.f.u.! X .                                               ",
"                        . k g.f.[ @ .         . > a.f.f.g.g.f.f.f.u.~ . .                                               ",
"                      . X ] g.g.[ @ .         . V g.g.f.f.f.g.g.g.u.~ X .                                               ",
"                      . # / ) / j X .       . . k ) / ' f.f.} ) ( C g . .                                               ",
"                . . . . . . . . . . . X . X . + . + . e P.I.R . . . X . . + + . .                                       ",
"          . . . + 0 A K h.z.A.Z.Z.Z.Z.Z.Z.Z.Z.Z.Z.Z.A.K._._.Y.F.Z.Z.Z.Z.Z.Z.F.T . .   . . . . .                         ",
"      . . . e L F.Y./.`.`.`.].].].].].}.].].].'.].].].].`.`.`.].].].].].].].].G.X . . . H z.; . . . . . . .             ",
"    . . u z.Y.`.'.'.{.{.].).H.j.Y Y Y Y l.U.{.{.].'.'.'.{.{.].'.{.'.'.{.'.'.'.I . @ @ . l./.e o l c c l 1 o . .         ",
"  . O L Y.].'.'.{.'.'.{.(.I . . . . . . . ; D.}.'.'.'.'.{.{.{.].{.{.{.}.'.{.Q.q , ` W . l.~.e 3 *.:.-.-.*.o.v $ . .     ",
". . r.`.'.'.'.'.'.'.{.{.C.. w c.x.x.x.x.q.% y W.{.{.{.}.^.~.~.~.~.~.~.^.'.}.U.- d d.~ . l.~.e 5 6.8.8.5.1.<.;.%.c . .   ",
". u !.}.'.'.'.'.{.'.'.'.J % n.M.T.T.T.T.M.F . G.}.{.}.H.p t t t t t t t V.}.W.- f g.' . V.~.e 5 7.9.9.9.9.9.9.1.;.b . . ",
". u ~.{.'.'.'.{.{.'.{.{.J O m.R.R.R.R.R.R.P . G.}.{.{.H.i t t t r t t r V.}.W.- f f.' . N.~.y 6 7.8.9.8.9.9.9.9.6.b . . ",
". X e.'.}.{.'.'.'.'.{.}.B.. i v.b.b.b.b.w.= y W.{.{.{.{.~.~.~.~.~.~.~.~.'.].U.- f f.' . N.~.e 6 7.8.9.9.9.0.9.3.n . .   ",
"  . O U Q.}.}.{.'.{.'.}.(.K X . . . . . . ; D.{.{.{.'.'.'.].{.{.{.{.{.{.{.{.W.q > } _ . V.~.e 5 7.0.0.8.4.2.M 2 . .     ",
"    . . i B.!.}.}.{.'.'.'.).G.e.Y Y Y Y N.U.{.}.{.{.{.'.'.'.{.'.{.'.'.'.{.{.'.I . # # . V.^.r o z m m z 6 o . .         ",
"      . . . t T H.Q.[.}.}.}.}.}.}.}.}.}.}.}.}.}.}.}.{.}.'.'.}.}.}.}.}.}.}.}.}.G.. . . . J B.; . . . . . . .             ",
"          . . . X q Z I N.A.S.S.S.S.S.S.S.S.S.S.S.S.S.H.'.}.!.G.S.S.S.S.D.D.H.U . .   . . . . .                         ",
"                . . . . . . . . . . + . + . + X . + . ; J.I.| . . . . X . + + . .                                       ",
"                      . # Q / / j X .       . . k ) / _ d.g.} ) / C g . .                                               ",
"                      . X ] g.g.[ @ .         . V g.g.g.g.f.g.g.f.u.^ . .                                               ",
"                        . h f.f.[ @ .         . > a.g.f.g.f.f.f.f.u.~ X .                                               ",
"                    . . . & } f.[ @ .         . + ' g.g.g.f.f.g.f.u.! . .                                               ",
"                    . . . . ( f.[ @ .           . f f.g.f.f.f.f.f.! @ . . . . . . . .                                   ",
"                          . , ] ^ @ .           . @ { g.f.f.g.g.a.> = K i . 2 l l 2 + . . .                             ",
"                            . X @ . .             . V g.f.g.f.g.t.# A _.h..  .-.=.&.X.v : . . .                         ",
"                              . . .               . < s.g.g.f.f.t.# A [.j.. O.1.1.<.:.-.&. .1 . . .                     ",
"                                                . . . ] g.g.g.g.t.# Z '.j.. @.0.9.9.9.5.,...4 . . .                     ",
"                                              . O O . h f.f.f.g.a.# G {.k.. @.0.9.7.3.$.7 o . .                         ",
"                                            . + B S * # } g.f.g.a., 0 j.G . 6 m m s $ . . .                             ",
"                                            . + S D N . V f.f.f.d.W X . . . . . . . .                                   ",
"                                              . O 9 * . & { g.g.f.i.W . .                                               ",
"                                                . . . . . f t.g.f.p.^ . .                                               ",
"                                                        . . > V ) W d .                                                 ",
"                                                          . . . . . . .                                                 ",
"                                                                                                                        ",
"                                                                                                                        ",
"                                                                                                                        ",
"                                                                                                                        ",
"                                                                                                                        ",
"                                                                                                                        ",
"                                                                                                                        "
};
