/* XPM */
static char *spaceship1673424937[] = {
/* columns rows colors chars-per-pixel */
"60 60 170 2 ",
"   c None",
".  c #010101",
"X  c #0B0405",
"o  c #0A0B03",
"O  c #060608",
"+  c #0B0B0C",
"@  c #070807",
"#  c #120507",
"$  c #130608",
"%  c #13080A",
"&  c #1A090C",
"*  c #0E0E12",
"=  c #0E1111",
"-  c #131414",
";  c #151419",
":  c #1B1B1B",
">  c #220A0D",
",  c #2D0D11",
"<  c #220F11",
"1  c #2E1316",
"2  c #34161A",
"3  c #3C1A1F",
"4  c #3A1116",
"5  c #24220B",
"6  c #29260C",
"7  c #343110",
"8  c #1D1B23",
"9  c #211F27",
"0  c #232324",
"q  c #26252B",
"w  c #2B2B2B",
"e  c #30302F",
"r  c #292631",
"t  c #2D2B36",
"y  c #302F36",
"u  c #343434",
"i  c #34333B",
"p  c #3C3C3C",
"a  c #38373D",
"s  c #421319",
"d  c #4B151C",
"f  c #451E22",
"g  c #4C1C22",
"h  c #4D2126",
"j  c #76222D",
"k  c #672D34",
"l  c #74323A",
"z  c #79353C",
"x  c #6D2029",
"c  c #514C19",
"v  c #56511B",
"b  c #5C571D",
"n  c #615C1E",
"m  c #676120",
"M  c #393644",
"N  c #3C3B43",
"B  c #3E3B4B",
"V  c #403F41",
"C  c #413D4E",
"Z  c #433F50",
"A  c #434344",
"S  c #484749",
"D  c #4B4B4B",
"F  c #444152",
"G  c #484557",
"H  c #4B4951",
"J  c #4D495C",
"K  c #4A4659",
"L  c #535254",
"P  c #565559",
"I  c #58575A",
"U  c #5B5B5C",
"Y  c #514D61",
"T  c #545065",
"R  c #59556C",
"E  c #5C586F",
"W  c #595664",
"Q  c #5D5970",
"!  c #625F6A",
"~  c #626263",
"^  c #6A6A6A",
"/  c #666569",
"(  c #6D6A75",
")  c #727272",
"_  c #74727C",
"`  c #7B7B7B",
"'  c #9E2E3C",
"]  c #862733",
"[  c #A12F3D",
"{  c #8A3C45",
"}  c #AE3342",
"|  c #B53545",
" . c #CE3B4E",
".. c #D13D4F",
"X. c #B0414E",
"o. c #AB4A55",
"O. c #A34751",
"+. c #B24D59",
"@. c #B14753",
"#. c #BA515D",
"$. c #CD4354",
"%. c #E94458",
"&. c #E84A5D",
"*. c #F3475C",
"=. c #FB495F",
"-. c #F4495E",
";. c #D55D6A",
":. c #D15967",
">. c #FD4A60",
",. c #FB5469",
"<. c #FE5F72",
"1. c #E94E61",
"2. c #EB6675",
"3. c #EF6877",
"4. c #F36A79",
"5. c #FE6E7E",
"6. c #FC6577",
"7. c #8B832B",
"8. c #90882D",
"9. c #9C9331",
"0. c #A09632",
"q. c #A39A33",
"w. c #B2A837",
"e. c #BFB43B",
"r. c #C0B53C",
"t. c #DACD44",
"y. c #D2C641",
"u. c #DED145",
"i. c #E7D948",
"p. c #F4E64C",
"a. c #F7E94D",
"s. c #F9EB4D",
"d. c #EFE24B",
"f. c #7C7985",
"g. c #FF6F80",
"h. c #FF7181",
"j. c #838383",
"k. c #8B8B8B",
"l. c #87848E",
"z. c #8E8D91",
"x. c #8E8B9A",
"c. c #908F93",
"v. c #939393",
"b. c #969599",
"n. c #98979B",
"m. c #9B9B9B",
"M. c #9A97A5",
"N. c #A09CAD",
"B. c #A39FB0",
"V. c #A3A3A4",
"C. c #ABABAC",
"Z. c #A7A5AB",
"A. c #A6A2B3",
"S. c #AEACB5",
"D. c #ACA8B8",
"F. c #B1AFB4",
"G. c #B4B3B4",
"H. c #B7B5BC",
"J. c #B8B7BC",
"K. c #BCBCBD",
"L. c #BDBBC2",
"P. c #C3C3C3",
"I. c #C6C4CA",
"U. c #C9C7CD",
"Y. c #CBCACD",
"T. c #CDCAD1",
"R. c #D3D3D3",
"E. c #DCDCDC",
"W. c #E5E5E5",
"Q. c #E8E8E8",
/* pixels */
"                                                          . .                                                           ",
"                                                      . . + + . .                                                       ",
"                                                    . . I C.C.I O .                                                     ",
"                                                    . D E.Q.Q.E.D .                                                     ",
"                      . . X . . . . .             . : G.Q.W.W.W.G.: .             . . . . X . . .                       ",
"                    . > [ } X.+.+.f .           . . ) W.W.W.W.W.W._ . .           . s } } @.+.O.< .                     ",
"                    . s *.=.<.h.h.z .           . u Y.W.W.W.W.W.W.Y.u .           . j >.>.6.h.5.f .                     ",
"                    . 4 *.=.6.5.h.z .           I C.W.W.W.W.W.W.W.W.m.+ .         . j =.>.6.h.5.f .                     ",
"                    . 4 %.-.<.5.5.l .           W.W.W.W.W.W.W.E.W.W.E.L .         . x -.-.6.5.2.3 .                     ",
"                    . X s d d h h & .       . U W.W.W.W.W.W.W.W.W.W.W.K.: .       . & d d g h f X .                     ",
"                      . . + - * . .       . . j.W.W.W.W.W.W.W.W.W.W.W.W.` . .       . . = - + . .                       ",
"                      . O ` S.n.- .       . u R.W.W.W.W.W.W.W.W.W.W.W.W.R.p .       . - n.S.` O .                       ",
"                      . . c.T.F.: .     . + V.Q.W.W.W.W.W.W.W.W.W.W.W.W.Q.m.+ .     . : F.T.c.. .                       ",
"                      . O z.T.S.; .     . U E.W.W.W.W.Q.Q.Q.Q.W.Q.W.W.W.W.W.U .     . ; F.T.z.O .                       ",
"                      . . c.T.C.- .   . 0 K.Q.W.W.W.E.G.v.j.j.v.G.E.W.W.W.W.P.9 .   . - C.Y.z.O .                       ",
"                      . O k.Y.M.- . . . j.W.W.W.E.k.p + . . . . = p k.E.W.W.W.j.. . . - M.Y.z.. .                       ",
"                      . O c.L.x.; . . p R.W.Q.K.D . . ; r M B t 8 . . A L.Q.W.R.V . . - x.L.x.. .                       ",
"                      . O l.D.x.- . + C.Q.Q.K.w . ; i G R Q Q Q R K q . w K.W.Q.C.= . - x.D.l.O .                       ",
"    . . . . . .       . . f.A.x.- . ~ W.W.Y.p . 0 C K R E E Q Q E Q R t . p T.W.W.~ . - x.A.f.O .       . . . . . .     ",
"  . X # # % % X .     . . _ A.f.+ 0 P.W.W.) . 8 C F R E E E E Q E E Q R q . ) W.W.P.0 + f.B._ . .     . X # # % # X .   ",
". . ] ..$.:.;.O.X .   . O _ M.N . k.Q.Q.G.- + M Z Y E E E E E E E E E Q Y * - G.W.Q.k.. p M._ . .   . X [  .$.:.;.{ . . ",
". . | >.>.5.h.;.% .   . . _ ( . A E.W.E.D . r C G R E E E E E E E E E E Q N . S E.W.E.A . ( f.. .   . $ ..>.,.h.h.#.. . ",
". X | =.,.5.h.;.% .   . O ! 0 = C.Q.Q.v.. ; B F T Q E E E E E E E E E E E R 8 O v.Q.Q.C.- 0 ! O .   . $ ..>.,.5.h.#.X . ",
". . ' %.&.2.4.#.# .   . . 0 . ^ W.W.Y.0 O i Z J E Q E E E E E E E E E E E Q G O 0 Y.W.W.^ . 0 . .   . # | %.1.2.3.O.. . ",
"  . & , , 1 1 < .     . . . w U.Q.W.^ . 0 C F R E E E E E E E E E E E E E E Q t . ^ W.W.Y.w . . .     . > , , 1 1 & .   ",
"    . + 0 q - . .     . . O v.Q.Q.C.% * B F Y E E E E E Q Q Q E Q E E E E E Q Y - = C.W.W.v.@ . .     . . = q 0 + .     ",
"    . p J.L.P .       . . D E.W.R.A . t C F R Q Q Q R Y K Z Z G Y R E E Q E E Q B . A E.W.E.D . .       . I L.J.p .     ",
"    . N I.Y.U .       . - G.Q.Q.Z.@ ; B Z Y E T B r ; O . . . . O ; q B T E Q E R 8 @ V.Q.Q.G.- .       . U Y.I.A .     ",
"    . V I.U.W .     . . ) W.W.Q.v.. q F F F t = . . : p U ^ ( U V : o . * t J E Q M . v.Q.W.W.) . .     . U U.I.V .     ",
"    . V P.U.U .     . w Y.W.W.Q.v.. q M 8 . . 0 ~ V.Y.E.W.W.Q.W.E.U.V.~ 0 . O q J i . v.Q.W.W.Y.w .     . U U.I.N .     ",
"    . N I.I.P .   . o n.Q.W.W.Q.Z.+ O . . e j.Y.W.Q.W.W.W.W.W.W.W.W.Q.W.Y.j.e . + + O Z.Q.W.W.W.m.+ .   . L I.I.V .     ",
"    . N I.H.H . . . L E.W.W.W.Q.E.^ : w j.R.Q.W.W.W.W.W.W.W.W.W.W.W.W.W.Q.W.R.j.w : ^ E.W.W.W.W.E.L . . . H H.I.V .     ",
"    . A L.A.H . . : J.Q.W.W.W.W.W.E.U.R.W.W.W.W.W.W.W.W.W.W.W.W.W.W.E.W.W.W.W.W.R.P.E.W.W.W.W.W.W.K.: . . H A.L.V .     ",
"    . p D.B.H . . ` W.W.W.W.W.W.W.W.W.W.W.W.W.W.W.W.E.W.W.W.W.W.W.W.W.W.W.W.W.W.W.Q.W.W.W.W.W.W.W.W.` . . H B.D.N .     ",
"    . i N.B.H . u R.W.W.W.W.W.W.W.W.W.W.W.W.W.W.W.W.W.W.W.W.E.W.W.W.W.W.W.W.W.W.W.W.W.W.W.W.W.W.W.W.R.u . D B.N.i .     ",
"    . u M.M.q + V.W.W.W.W.E.W.W.W.W.W.W.W.W.W.W.W.W.W.W.W.W.W.W.W.W.W.W.W.W.W.W.W.W.W.W.W.W.W.W.W.W.W.V.+ q M.M.u .     ",
"    . i N.W . I E.W.W.W.W.W.W.W.W.W.W.W.W.W.E.R.E.W.W.W.W.W.W.W.W.W.Q.E.R.E.W.W.W.W.E.W.W.W.E.W.W.W.W.E.I . W N.i .     ",
"    . i l.- : P.W.W.W.W.W.W.W.W.W.W.W.W.E.m.p 0 D G.W.W.W.W.W.W.W.W.F.A 0 p b.W.W.W.W.W.W.W.W.W.W.W.W.W.K.: - l.i .     ",
"    . y p . j.W.W.W.W.W.E.W.W.W.W.W.Q.I.~ O + 0 o 0 K.Q.W.W.W.W.W.K.0 . 0 + . U U.W.W.W.W.W.W.W.W.W.W.W.Q.j.. N y .     ",
"    . + . p R.W.W.W.W.W.W.W.W.W.W.W.m.w . u b.L./ . ` Q.W.W.W.W.W.` . / K.b.u . w m.W.W.W.W.W.W.W.W.W.W.Q.R.p . + .     ",
"    . . + V.W.W.W.W.W.W.W.W.E.Q.Y.^ + + W J.U.Y.b.. ^ Q.Q.W.Q.W.Q.^ . b.T.Y.J.~ = o / Y.Q.W.W.W.W.W.W.W.E.W.V.= . .     ",
"    . . ~ W.W.W.W.W.W.W.W.W.W.Z.u . w z.P.Y.U.U.b.O u ` ` ` ` ` ` i . b.U.I.I.I.v.w . u Z.W.W.W.W.W.W.W.W.W.W.~ . .     ",
"    . 0 P.W.W.W.W.W.W.W.Q.R.) = O P G.U.U.U.I.U./ . . . . . . . . . . / U.I.I.U.Y.G.P O = ) R.W.W.W.W.W.W.W.W.P.0 .     ",
"  . . k.W.W.W.W.W.W.W.W.F.p . . S I.U.U.U.I.U.V.- o . 2 o.o.o.o.2 . o - V.U.I.I.I.U.I.S . . p F.W.W.W.W.W.W.W.W.k.. .   ",
"  . p R.W.W.W.W.W.W.E.` - . . . L U.U.I.I.I.U.U . v o l h.h.h.h.l o v . I U.I.I.U.I.U.L . . . - ` E.W.W.W.W.W.W.R.u .   ",
". . k.Q.W.W.W.W.Q.J.A . .     . S U.U.I.I.U.J.0 6 9.o l h.5.5.h.l o 9.6 9 J.Y.I.I.U.I.S .     . . ^ W.W.W.W.W.W.W.j.. . ",
". - P.Q.W.W.W.E.j.: . .       . : Z.T.U.U.Y.m.. b e.o k 5.h.g.g.k o e.b O b.T.I.U.Y.Z.: .       . D W.R.E.W.W.W.Q.K.- . ",
". u R.W.W.Q.K.L . .             . u b.H.K.L._ . 7.t.5 1 3.g.g.2.1 5 u.7.. _ L.K.H.n.u .               w D P.W.W.W.R.w . ",
". p E.W.E.v.0 . .               . . + 0 0 0 : . 0.a.b . +.h.h.+.. v s.0.. - w 0 0 + . .               . . 0 k.E.Q.E.p . ",
". A W.P.I + .                       . . . . . . 0.s.w.o 3 2.2.3 o w.s.9.. . . . . .                       . + I P.W.A . ",
". w k.w . .                                   . 7.s.p.m . f f . m d.a.7..                                   . . w j.w . ",
". . . .                                       . b p.p.u.v o o v i.p.p.b .                                       . . . . ",
"    .                                         . 6 u.a.p.i.r.r.i.p.a.t.6 .                                         .     ",
"                                              . . 7.a.p.a.s.s.p.p.a.8.. .                                               ",
"                                                . 6 y.p.p.p.p.p.a.y.6 .                                                 ",
"                                                  . c i.s.p.p.s.i.c .                                                   ",
"                                                  . . v t.s.s.t.v . .                                                   ",
"                                                    . . 7 q.q.7 . .                                                     ",
"                                                      . . . . . .                                                       ",
"                                                          . .                                                           "
};
