/* XPM */
static char *_25fe027219b49df98e719c640abb853T9K2Lb5gbXNwlY8k[] = {
/* columns rows colors chars-per-pixel */
"60 60 81 1 ",
"  c None",
". c #020303",
"X c #070708",
"o c #070808",
"O c #0A0B0C",
"+ c #0F1011",
"@ c #121314",
"# c #161718",
"$ c #161819",
"% c #1A1B1D",
"& c #1D1F20",
"* c #1E2022",
"= c #212426",
"- c #242729",
"; c #26292C",
": c #292C2E",
"> c #2A2E31",
", c #2D3134",
"< c #2F3438",
"1 c #313436",
"2 c #323639",
"3 c #35393D",
"4 c #383C3F",
"5 c #363D42",
"6 c #3A3E41",
"7 c #3D4246",
"8 c #3D454A",
"9 c #414649",
"0 c #44494D",
"q c #454C52",
"w c #4A4E52",
"e c #4C5156",
"r c #4D545A",
"t c #51565A",
"y c #53595D",
"u c #4F5961",
"i c #545C62",
"p c #595F63",
"a c #5B6166",
"s c #566169",
"d c #5C656B",
"f c #5C6770",
"g c #5D6971",
"h c #60666B",
"j c #636A6F",
"k c #646C72",
"l c #686F74",
"z c #6A7176",
"x c #65717B",
"c c #6C757B",
"v c #70777D",
"b c #71787F",
"n c #697680",
"m c #6D7B85",
"M c #747C82",
"N c #787F86",
"B c #717F8A",
"V c #788087",
"C c #75838E",
"Z c #7C848B",
"A c #7F888F",
"S c #778590",
"D c #788792",
"F c #7B8A95",
"G c #7E8E9A",
"H c #80888F",
"J c #848C94",
"K c #879097",
"L c #82929E",
"P c #8B949C",
"I c #8494A1",
"U c #8F99A0",
"Y c #929CA4",
"T c #97A1A9",
"R c #9AA4AD",
"E c #9DA7B0",
"W c #9EA9B2",
"Q c #A2ADB5",
"! c #A4AFB8",
"~ c #A5B0B9",
"^ c #A8B3BC",
/* pixels */
"                            o$&&@.                          ",
"                          %wMPTYKc9@.                       ",
"                        X9P^^~~^~^!Kp-.                     ",
"                       #k!^!~~!~~~~~~Rb4@.                  ",
"                     o3J~~!~~~!Q!~^^~~^QJy=.                ",
"                   O6VQ^~~~~~~Y940aMUQ^~^^Rz3O              ",
"                 @7ZQ^!~~~!~~!QJMje4,5kY^^^^QZ3.            ",
"               @0J!^~!~~~~~~~~!^^^^QYc7>pY^!~^Wto           ",
"            .$wK~~!~!~~~~!!~~~~~~~!~~^!J9,N^~~~Qt.          ",
"          O1dP^^~~~~~~~~~~~~~!~!~!~~~~~~!c;j!~~~Q6          ",
"        %eHQ^^~~~~!~~~~~~!~~~~~~~~~~~~~~!^J>a!~~^Y:         ",
"      .9P~^~!~!~~!~~~~~^^^^!!~!~~!~~!~~!!!^KdQ~~~~A#        ",
"     opQ^^YtH^~!~~~~^RHkphHQ~~~~~~!~~~~~!~!^~~~!~!~zo       ",
"    .r!^^K>0Y!~~~!~Rd,:508;wR~~~~~~~~WW~~~!!~!~~~~~!t.      ",
"    :R~^K;h!^!!!~~Z12xFLIIC,d^~~~~^Ry>1M!!~~~~~~~~~~R4      ",
"   .z^~Y>h!~^!~~~b=iGILLLLIf4Q~~~~R72cd-Y^!~~~!~!~!~^Y=     ",
"   &Y~~e0Q~~~~~^J*gILLLGIIIg5Q~~~~y2GII<m^~~!~~!~~~~~~V#    ",
"   4!^J;Y~~!!~~W1rIIIGLLIGG7i~~~~U;mIIG5z^!~~~~~~!~~~~~ko   ",
"  .i^~et~~~~~~^Z;DLLIILLIIx;U~~~^x2IGLG>Z^~~!~~~~!~~~~~Q7   ",
"  XV^W1J~~~!~~~j5ILLGLLLIx-z~~~~^yqIIIg,R~~~~~~~~~~~~~~~J@  ",
"  %Y~QPQ~~~~~~~c<GGIIIIGs-k!~~~~^yqIID,k^~~~!~~~Wb94wJ~~W3  ",
"  ,W~!~~~~~!~!~T,rDGGCd<1Z~!~~!~^V;nc<0W~~~!~~~Y8>rge-J~~p. ",
"  e~~~~~~~~~~~~~K5-,>:3lR~~~~~~~~Wa:,dW~~~!~~^K,qFIIIu4Q^ZO ",
" .k^~~!~!~~!~!~~^WJVDUQ^~~~!~~!~~~!TR~~!~~~~~Y,rGLLIIS;U^T= ",
" .M~~~~~~~Q~~~~~~~^~~~~~~~~~!~~!~~~~~~~~~~~~W08GIGIIGG>K^~9 ",
" oM^~~~~~~~~~~~!~~~~~!~~~~~!~~~~!~!~~~~~~~~^V>DILIGIID,U~^h.",
" oZ^!~~~~!~~~~!~~~~~~~~!~~~~!~~!~~^~~~~!~~~W7uIGLLLIIm,E~^b.",
" OH^~~~~~~!~~~~~~!~~~~~~~~~~~~~~~!KR~~~~~~^J>DLILLLGIu0~~^Vo",
" OJ~~!~~~~Q~~~~~~~~~!~~!~!~~~~~~~P:U~~~~~~^d8GIILLLLG<M~~^Vo",
" +K^~~~~Rd20P~~~~!!~~~~~~~~!~!~!!ew!~~~~~~~0uIIGLLLIf<E~~^Vo",
" #P~~~~T5,s83W~~~~~~!~!~~!~~~~~^V-P~~~Q~~~~7dIIGLLLS>M~~~^Vo",
" $U~~~Qe2GIF:K~~!~!~~~~~~~~!~~^P;z~~~~~~~~~7sILLLIG5wQ~~~^MX",
" =T~~^J-CLLG,F^!~~!~!~!~~~~~!^P,y!!!~!~!^!^a7GIIID77T^~~!^k.",
" 3Q~~~i8LLIC:P^~~!~~~~~~~!~~~Z:tQ!~~~~~~!!^P-sFFk,qT~~~~~^0 ",
" e~~~~7dILIs4Q!~~~~~~~~~~~~Yt=kQ^~~~~!~~^!~^C,->2zQ~~!~!~Y& ",
".k^~~~9fIID:b^!~~~!~!~!~QPi-7K^!!~~!~~!~!!~~^RKPW~!~~~~~^k. ",
".M^~!^a3Dm<tQ!~!!~~!~~~We-7ZQ^~~!!!~~~~!~!~~!!^^~!~!~!~!Q1  ",
".V^~!^T7-,aW^!~~~~~~~~~QAP!^~~~!~~~~~!~~~~~!!^!!~~~~~~~^ZO  ",
".z^~!~^QPT^!!~~~!~!~~~!~^~~~~~~~~~~~~~~~~!~~~~!^!~!~~!~~q   ",
" r^!!~!!^!~~~~~!~~~~~~~~~~~~~~~~!~!~~!~!~~~!~!!!~~~~~~^P%   ",
" ;R~~~~~!!~~~~~~~~!~~!!~~!~!~~~~~~~~!~~!~!~!~!~~~~~~~!^h.   ",
" oc^~!~!~~!~~!~!~!~~~~~~~~~!~~!!!~!~~~~~~~~~~~!~!~!~~~R,    ",
"  <E^!~~~~~~!~~~~~~~~~~~~~~^^^^^~~~!~~~~~~~~~!~~~~~~~^MO    ",
"  ov^!~~!~!~~~~!~!~~!~~!!^WJclMU~~~~~!!~~!~!~~^~!~~!~!9     ",
"   2W^!!~~~~~!~~~!~!~~~~!n1,58<;tR~~~~~~~~!~~Uac~~~~^K%     ",
"   ob^!!~!~~~~!~~~~~~~~~z-dGIILB<t~~~!!~~~~Ty:0K~~~~Q0      ",
"    2W~~!~~!!E~~!~!~~~~Q<fIIGIIIx1W~~~~!~~b,8K!^~~!^kO      ",
"    ob^!~~!!R0P^~~~~~!~Q2iIIIIIG8w~~~!~~Wt:b!^!!~~~v@       ",
"     :T~~~~~!y7Q!!~~~~~~V;8knxi,6T~~~~~T94Y^!~~~~~M@        ",
"     .0W~~~~~R1k~~!~!~~~^Ky3<<0cE!!~~~T60R^!~~!~^V%         ",
"      .0R~~~~~J-Z^~~~~~~~~~QWW~^~~!~~W80W~~~!~!~Z&          ",
"       .,J~!~~~l:P^~~!~~~~~~~!~~!~~~~y4R~~!~~~^J=           ",
"         %z!~~~~p:P^~~~~~~~~~~~~~~~~V:P^!~~~!^K-            ",
"          oeR~~~!p:Z~~~~!~!~~~!~~~~T1z^~~~~!^P:             ",
"           .1K^~~!l-iT!~~~~~!~~!~~~TaW~~~~!^K,              ",
"             %cQ~~^K71P~~!~!~~~~~~~~~~~!~~~Z-               ",
"              OtR^~^QKE~~!!~~~~~!~~~~~~~^Qd@                ",
"               .1ZQ^^^^!^~^^^^~~~^^~^^^QJ7o                 ",
"                 O3hZKYYRYKVzpw9eykbVbd4@                   ",
"                   .o@$=-&@O.     .oO..                     "
};
