/* XPM */
static char *_117020_orig1673421570[] = {
/* columns rows colors chars-per-pixel */
"60 60 77 1 ",
"  c #252D3F",
". c #26303F",
"X c #242B45",
"o c #2A2F43",
"O c #262C4A",
"+ c #292E49",
"@ c #253344",
"# c #2A3345",
"$ c #273847",
"% c #283847",
"& c #263149",
"* c #2C354A",
"= c #27384C",
"- c #2D394D",
"; c #30374C",
": c #313A4E",
"> c #2E3751",
", c #2E3C52",
"< c #2F3A59",
"1 c #303750",
"2 c #333D54",
"3 c #383F55",
"4 c #343E59",
"5 c #393F5B",
"6 c #2E4053",
"7 c #344055",
"8 c #394156",
"9 c #36425B",
"0 c #3B445D",
"q c #3E495E",
"w c #364561",
"e c #3B4661",
"r c #3D4964",
"t c #3E4D69",
"y c #3E506A",
"u c #3C5070",
"i c #40475D",
"p c #41495E",
"a c #404763",
"s c #424B64",
"d c #484F65",
"f c #444E69",
"g c #484F6A",
"h c #475165",
"j c #495166",
"k c #45516C",
"l c #4A536C",
"z c #4F586E",
"x c #50576E",
"c c #51596E",
"v c #455572",
"b c #4C5671",
"n c #435973",
"m c #4D5974",
"M c #4D5D79",
"N c #505771",
"B c #535B74",
"V c #585F76",
"C c #555E79",
"Z c #585F79",
"A c #4D617C",
"S c #546077",
"D c #5A6176",
"F c #55617B",
"G c #5B637C",
"H c #53687F",
"J c #5C687E",
"K c #60677F",
"L c #61697E",
"P c #5E6780",
"I c #5D6A82",
"U c #606781",
"Y c #636B83",
"T c #647186",
"R c #697387",
"E c #667288",
"W c #6B7589",
/* pixels */
"1afp0330aaaags3:iai50000adsp083sfsjccjjp0phs33dddgldp550ags1",
"hGUYZbfsgCPUYYjaZUZZZBjsfgjhxsdLYGLLDDNmDLLLgxLURWWELGZBCPZ0",
"zUZPYYZfagBCUUaaCBggreee000rxssVbbbbmbBGZBBDsNUPUYGFCPGBvvZa",
"zPBBZZPBgggggNiaCfeae9440strzfaBkkkvhkBBbkkzsgUZNgsrrfgfaaN0",
"gZgsgbgggaaasg55Bfeeerffkvt0jspbfrfttfjfsrrgsgZbaew555eresb0",
"aNasfae555<5ea24fw55eefrfe45f00gfseeesstttsf0abe555weeerffge",
"5s5555<<411<<5**521222>>4225002e05000e0000es52555<4w445555e4",
"++X++++X++1;;;**;1111*X*211:2;;;;**;;o;;--;;*O++OOOOOOO>>+*&",
"ggggkll8hjbmmvgfrklzlp-lGGDDVBzjdphcd:llkNZZZBvfaagg5glbbNNN",
"ZNfsffbsHJHCbbbbhsskAj8DVSMmbssjBGLUViNcBGPCBCbrwwbPpNBBgBBZ",
"gsse7wlrFBbBvssfkksqll7BbkkkrpfzlNbBx:xgNNffaffe<emmillwegZB",
"4<<5wyl8mjtffffffkkykl8lttt900rettfjd:llfsee5w4<5gbg5gbfgNge",
"449wwtk8bseffffsaasrsk2ae04499eewtafs;ja054<<,<9ress0fjkfa54",
"2<9999r:se00000000940q#942242999000ra;00422<,><7<<502a005443",
"&#**=--@1;-1-**+*&&;-: *=&+**&*&***::.--&&OX@@=*>*-:#;%-**-*",
"0sjcBzlpepase0215adjhsppa0iia03spsasp807:277;:ide5psjshhglj0",
"NIIYUIGNmPPZGLlpBGGGJGPIYYYZBjkEITTJSAHSkskBscLGZBgBIYEYYUUg",
"mIAMFZkkCPCZGVslYUCCMMMMMmlbPNkPGGmkllmmkysbslVjNgrrtykyfgBa",
"lFnvmyfkfrtsfNplPZPZSGMbljkNUcjVkafkkyyytstlsdltrrew49etteb0",
"hnytweaeree0rbpsBbmmMmmlkkBZbdak0rtty0e0w00kaskerew999we50fa",
"pyww0040w0weef0aBssttrrasklrsa8r9w9e0eee009f00a9w9998w0440sr",
"889043400ew00a00gw0000300q00e020237774444230:252<,2277774408",
"-222232o-:12121>308322;332222:*;***:-&-;-;;2;;;**#**%-*67282",
"zDJLYLx2ssgzBBBPGUKVDVhVBZLDLJDBBVVBc0mDDGDGDBzzNmzl8DDJJEDl",
"JTEWEPg5DbfgbCPPEIYEEJpBkCTEWEIIIIIJZsJYPPZBvfmPFBGB0DPIIPvB",
"AAPBbbg3YFfftkvvMMPASSpMmPCmvvvPFBmmBaCmfaseafvktwkl3bMuffvM",
"mbgeekg3CbvfeeewrreekGqmvvtuuuvvkkkmm0Nse5wwstwwwekk2btwrtvm",
"stetttf3btkytrewww55fB0ktewreeeerykkm0j04499w5w75wff,yteeers",
"tweewtt8fe00wwrewe00sf2seweeww4w0t0rf8e949998976990q*0e845we",
"2,-->>:-3212221;>>>-1-@--->->&=<:6--:#:%==$*@.$$%-:* -->1->-",
"3pp00528hjjfss3:000pap007:888;-0hp88882--:77@*780q00p0qq832;",
"cRUDZBkdNDKUDJd0cNBGPDDGDmlzDpsYLJDBBVNjhzBVqpNbCNjzBBZVxzl0",
"zGZMmmmfegbbgNdiBmlSMsslZBkaNpdGVBZNkkmmbktf8ijts0aggjkfsflp",
"xVkwwerae5agbNaimllMBkw9wblsz0sNsfffsthykkfjiifeweffetee9el0",
"zmte054455<egZpiltwttw099etsz00hettsre9etttj00s9wsfwe99649ga",
"fjaew94244weaNi8s90777099wwwf77a0w9eew998w0t80e90ee944<440f0",
"00032222,3355a320226243097349*;82276,6,66,77:;77277926,,9003",
";22:*-;o-:1232:;208:2-@#-##@###;---%$@$----*##-#%->%@-788::*",
"cDDVbNl3fzVBBNcVZGYGSN8cDDNf0afNVBVBk2jBBVBBzzzdNGJz8GIGDVzj",
"jcZSGPciNNfsaaglbMJGJD8BDSJPVgfskbbGN0NSCHPZNNbVGILDqDGGYUGc",
"laaggBliBlfse00rryuvBZ3blkknmmhttetmb0kzfvvksrtlSkkz2NzVGCPD",
"xjfa0dx0kssffs05779esk:Bmrqrerrtrtwbl3lktwtfe9ekkesk-zfafjZJ",
"sp00ppj8jreetwe0w4790f;zShq9899w00ekg2dferttyrryw9rh;de00rsa",
"000050p:s099997776779e*saqq9q9989eess2fa0009qrr9890a-ar09080",
"*---::1o1-1--*#$%#%%:3o27682:1::,,774:3721:;-:2---11#:::-*##",
":3355832338000:2sfjzjp0pjccsp830qssaseasi78i2:q080p08000p08*",
"rzklzjjkbBNNxx0pUUYYGNZLYYLGLDlGLJDGZGJGGhpzssZzjBGBVZFPBBN0",
"0frsr0tfffsaez00NbZVsslNbbjzDxfDlr0hBSBzlh0ssazefBvvkflbssl8",
"3pee0wrre999eb88xbk09efjfaefBsfBq70lBlkrqq9srqzsfkrweyhretj3",
"pbsrre00qee0eziijfe70ss040easiaN97rsst00899k00jtrew90rrqwef2",
"ds09779979eesk00s97700777900000j89009800089s00hew899ewq900a8",
"004426666=6679;:3>--==,,,2340230997,7277,223::07777677,69782",
":1:>-::@##*#*:;:;#####@#;#-#;#;*;;;;-##:1:1-**-:;:;:**:8598:",
"GZZZDSB0lbskDLGGDVBbzh3dNNccxxgsslbBk0zBSZDZNzjNGGZB0zDLPPUY",
"GGPUJYDpCmmJRWEWEPCmBB0BNNbllNBbbssgNpGPPFZFGJBkBUIBaGEYPPPE",
"bBBBmGD0VZGYEJCmmmCBbB0BlNggggggggrsg0BbmbkkmmbttlZz0ZSMnuPI",
"mmvmvBN3BbgffrrrfnMIUGaNbklgfgssasees5Nsww59wwttwekb8mmuuuvv",
"fftffkl5lgeewwewwrrmGYpjfsase5500540s8zr5www999ww9rk9kkrwwar",
"wwre0sf2sreeeweww5eesb0ssw00ee554300e3ke9wwwww9000ws3ffw55ew",
"2445544*33224224444<12*321221111*>123-094222224805551e52444<"
};
